<svg xmlns="http://www.w3.org/2000/svg" width="130" height="32" fill="none" viewBox="0 0 130 32"><path fill="#fff" d="m21.094 19.578-2.838 2.838.762.761 2.838-2.838zM19.019 1.884l-.762.762 2.838 2.838.762-.762zM29.053 1.884l-.761.76 2.838 2.839.761-.761zM23.275 7.664l1.319 1.319c.549.553.948 1.2 1.186 1.89q.19-.231.432-.473l.66-.66-2.839-2.837-.762.761zM25.784 14.19a5 5 0 0 1-1.187 1.89l-1.318 1.318.762.762 2.837-2.838-.659-.66a7 7 0 0 1-.432-.472M31.132 19.58l-2.838 2.839.762.761 2.838-2.838zM54.98 7.683v9.722h1.362q2.246 0 3.454-1.252 1.208-1.254 1.208-3.596c0-1.56-.384-2.802-1.157-3.633q-1.16-1.24-3.38-1.241H54.98m-3.75-3.204h5.112q3.99.001 6.248 2.138t2.259 5.914c0 1.674-.362 3.116-1.088 4.336q-1.087 1.829-3.057 2.783-1.97.956-4.6.956H51.23zM71.65 10.524q-1.96 0-2.293 2.63h4.49c-.034-.843-.239-1.494-.623-1.948q-.572-.682-1.578-.682m.747 10.393q-3.06 0-4.78-1.743-1.719-1.743-1.72-4.827c0-1.322.252-2.475.765-3.464q.765-1.48 2.102-2.27 1.336-.786 3.058-.787 2.508 0 3.94 1.647 1.433 1.648 1.432 4.538v1.552H69.4q.55 2.531 3.487 2.53c1.132 0 2.3-.278 3.512-.834v2.794q-1.79.861-4.014.86M84.067 20.844q-2.196 0-3.322-1.136-1.124-1.134-1.124-3.38v-5.423H77.71V8.133h1.911V4.885h3.633v3.248h2.63v2.772h-2.63v5.09q0 1.006.406 1.483.405.477 1.267.476.67 0 1.242-.238v2.794q-1.148.335-2.102.334M92.647 10.524q-1.96 0-2.293 2.63h4.49c-.033-.843-.238-1.494-.623-1.948-.38-.455-.908-.682-1.574-.682m.74 10.393q-3.06 0-4.78-1.743t-1.72-4.827c0-1.322.252-2.475.765-3.464q.765-1.48 2.102-2.27 1.336-.786 3.057-.787 2.51 0 3.94 1.647 1.433 1.648 1.432 4.538v1.552h-7.788q.548 2.531 3.486 2.53 1.695 0 3.512-.834v2.794q-1.79.861-4.014.86M105.471 20.917c-1.308 0-2.432-.271-3.38-.813a5.4 5.4 0 0 1-2.175-2.281c-.502-.978-.751-2.124-.751-3.428s.278-2.48.835-3.475a5.75 5.75 0 0 1 2.292-2.293q1.456-.801 3.296-.801 1.72.001 2.962.644v2.937a5.04 5.04 0 0 0-2.508-.645q-1.484 0-2.34.945-.862.944-.861 2.64c0 1.132.29 2 .872 2.652q.872.98 2.355.981c.988 0 1.878-.23 2.629-.692v2.915q-1.36.716-3.226.718M115.874 20.844q-2.195 0-3.321-1.136-1.122-1.134-1.124-3.38v-5.423h-1.912V8.133h1.912V4.885h3.632v3.248h2.63v2.772h-2.63v5.09q0 1.006.407 1.483.405.477 1.267.476.67 0 1.241-.238v2.794q-1.147.335-2.102.334M124.114 18.43q.931 0 1.578-.67.643-.67.644-1.648v-1.05a4 4 0 0 0-.443-.026h-.465q-1.457 0-2.255.465c-.535.311-.802.75-.802 1.326 0 .494.157.882.479 1.171q.478.429 1.267.429m-1.08 2.49q-1.863.001-2.973-1.003t-1.11-2.652q0-2.125 1.648-3.31 1.647-1.182 4.658-1.183.264 0 .523.011.265.01.524.037c-.08-.718-.337-1.245-.776-1.59q-.66-.511-1.923-.512c-1.164 0-2.34.311-3.537.93V8.803a8.94 8.94 0 0 1 4.134-.977q2.654-.001 4.098 1.41 1.445 1.409 1.446 4.038v7.335h-2.962l-.191-1.314q-.549.765-1.494 1.193a4.9 4.9 0 0 1-2.065.429"/><path fill="#fff" d="M38.992 10.404c1.568 1.567 1.568 2.691 0 4.258l-9.228 9.228a4.02 4.02 0 0 0 5.68 0l8.517-8.517a4.02 4.02 0 0 0 0-5.68l-8.517-8.518a4.02 4.02 0 0 0-5.68 0z"/><path fill="#fff" d="M28.955 10.404c1.567 1.567 1.567 2.691 0 4.258l-9.228 9.228a4.02 4.02 0 0 0 5.68 0l8.517-8.517a4.02 4.02 0 0 0 0-5.68l-8.518-8.518a4.02 4.02 0 0 0-5.68 0z"/><path fill="#fff" d="M18.918 10.404c1.567 1.567 1.567 2.691 0 4.258L9.689 23.89a4.02 4.02 0 0 0 5.68 0l8.518-8.517a4.02 4.02 0 0 0 0-5.68l-8.518-8.518a4.02 4.02 0 0 0-5.68 0z"/><path fill="#fff" d="m11.82 20.338-5.679-5.68c-1.567-1.567-1.567-2.69 0-4.258l5.68-5.68-2.838-2.838L1.175 9.69a4.02 4.02 0 0 0 0 5.68l7.808 7.807z"/><path fill="#fff" d="m16.838 9.744-2.839-2.838-2.79 2.787a4.02 4.02 0 0 0 0 5.68l2.79 2.79 2.838-2.838-.659-.659c-1.567-1.567-1.567-2.691 0-4.259l.66-.659zM108.773 25.01h.613l2.489 6.775h-.613l-.712-1.987h-2.951l-.703 1.987h-.602zm-.993 4.276h2.589l-1.295-3.654zM112.648 24.307h.583v7.478h-.583zM116.534 31.916q-1.074 0-1.702-.733t-.627-1.988q0-.824.276-1.43.276-.608.768-.929a2.03 2.03 0 0 1 1.134-.32q.923 0 1.45.662.528.662.527 1.827v.35h-3.583q.05.954.522 1.492.471.537 1.285.537a2.5 2.5 0 0 0 1.475-.462v.552q-.652.442-1.525.442m-.181-4.889q-.693 0-1.099.482-.407.481-.467 1.365h3.021q-.02-.874-.401-1.36-.382-.486-1.054-.487M119.276 26.646h.512l.04.793q.182-.422.527-.658t.778-.236q.261 0 .462.07v.533a1.4 1.4 0 0 0-.472-.07q-.572 0-.918.46-.346.464-.346 1.226v3.021h-.583zM124.294 31.886q-.653 0-.989-.387-.336-.386-.336-1.12v-3.252h-.863v-.482h.863V25.21h.582v1.435h1.325v.482h-1.325v3.233q0 .532.201.778.2.245.622.246.311 0 .672-.181v.502q-.33.18-.752.18M127.301 31.916q-.734 0-1.175-.402-.441-.401-.441-1.074 0-.854.717-1.305.718-.452 2.083-.452h.221q.11 0 .21.01v-.04q0-.823-.331-1.22-.332-.395-1.013-.396-.783 0-1.486.472v-.542a2.75 2.75 0 0 1 1.536-.452q.903 0 1.39.537t.487 1.541v3.192h-.512l-.04-.753q-.231.411-.678.648-.447.236-.968.236m.09-.482q.432 0 .783-.22.35-.222.547-.563.195-.342.195-.733v-.743a10 10 0 0 0-.511-.01q-1.044 0-1.591.311-.547.312-.547.914 0 .471.306.758.306.286.818.286M101.854 28.15H51.225v.442h50.629z"/></svg>