<svg xmlns="http://www.w3.org/2000/svg" width="487" height="120" fill="none" viewBox="0 0 487 120"><g clip-path="url(#a)"><path fill="#1961ac" d="M192.103 16.803h19.169q14.958 0 23.424 8.018 8.464 8.018 8.465 22.176 0 9.407-4.076 16.262-4.076 6.854-11.465 10.439t-17.241 3.584h-18.272V16.806zm14.065 12.004v36.466h5.107q8.42-.001 12.943-4.705t4.524-13.484c0-5.854-1.449-10.51-4.343-13.62q-4.345-4.66-12.676-4.66h-5.555zM271.449 78.441q-11.468 0-17.916-6.539-6.447-6.539-6.446-18.1 0-7.435 2.867-12.99 2.868-5.554 7.881-8.511c3.343-1.973 7.166-2.955 11.465-2.955q9.405 0 14.779 6.18 5.375 6.183 5.375 17.023v5.824h-29.202q2.06 9.498 13.078 9.498c4.238 0 8.631-1.043 13.166-3.136v10.484q-6.72 3.226-15.047 3.226zm-2.778-38.973q-7.346 0-8.6 9.855h16.838q-.179-4.75-2.329-7.303c-1.434-1.701-3.402-2.552-5.913-2.552zM315.224 78.174q-8.244-.002-12.451-4.254-4.21-4.253-4.211-12.678v-20.34h-7.166V30.51h7.166V18.323h13.617V30.51h9.853v10.393h-9.853v19.082q0 3.761 1.524 5.556c1.016 1.198 2.597 1.792 4.746 1.792q2.508.001 4.659-.895V76.92q-4.3 1.254-7.881 1.254zM350.176 78.441q-11.466 0-17.914-6.539-6.45-6.539-6.451-18.1 0-7.435 2.868-12.99 2.868-5.554 7.881-8.511c3.342-1.973 7.166-2.955 11.464-2.955q9.406 0 14.78 6.18 5.374 6.183 5.374 17.023v5.824h-29.202q2.06 9.498 13.078 9.498 6.36.002 13.17-3.136v10.484q-6.72 3.226-15.048 3.226zm-2.777-38.973q-7.346 0-8.6 9.855h16.839q-.18-4.75-2.33-7.303c-1.434-1.701-3.402-2.552-5.913-2.552zM395.491 78.441q-7.345 0-12.676-3.046-5.33-3.044-8.152-8.556-2.822-5.51-2.822-12.855c0-4.898 1.042-9.302 3.135-13.037q3.133-5.6 8.6-8.601 5.462-3 12.359-3 6.448-.001 11.107 2.42v11.019q-4.302-2.42-9.405-2.421-5.555.002-8.777 3.539-3.225 3.54-3.226 9.9c0 4.239 1.088 7.495 3.271 9.946q3.268 3.675 8.821 3.674c3.704 0 7.046-.866 9.854-2.598v10.932q-5.103 2.688-12.093 2.688zM434.502 78.174q-8.244-.002-12.451-4.254-4.211-4.253-4.211-12.678v-20.34h-7.167V30.51h7.167V18.323h13.616V30.51h9.854v10.393h-9.854v19.082q0 3.761 1.525 5.556c1.016 1.198 2.597 1.792 4.746 1.792q2.507.001 4.659-.895V76.92q-4.301 1.254-7.881 1.254zM461.355 78.441q-6.987 0-11.152-3.764-4.166-3.762-4.166-9.946 0-7.974 6.18-12.407 6.182-4.434 17.467-4.435a43 43 0 0 1 3.945.18c-.302-2.687-1.269-4.671-2.91-5.958q-2.465-1.927-7.211-1.928-6.538-.001-13.256 3.494V33.016q7.167-3.672 15.496-3.674 9.939 0 15.363 5.285 5.42 5.286 5.419 15.14v27.507h-11.106l-.715-4.928c-1.374 1.913-3.241 3.403-5.601 4.48s-4.941 1.611-7.749 1.611zm4.031-9.317c2.33 0 4.298-.835 5.913-2.507q2.418-2.505 2.42-6.181v-3.941q-.809-.09-1.656-.09h-1.746q-5.467 0-8.465 1.746-3.001 1.746-3 4.973-.002 2.779 1.792 4.389c1.193 1.076 2.778 1.61 4.746 1.61z"/><path fill="#bad0e6" d="M98.312 54.985c-5.879-5.88-5.879-10.092 0-15.972L132.908 4.41c-5.879-5.88-15.412-5.88-21.291 0L79.683 36.351c-5.88 5.88-5.88 15.415 0 21.295l31.934 31.942c5.879 5.88 15.412 5.88 21.291 0z"/><path fill="#1961ac" d="M146.216 39.013c5.879 5.88 5.879 10.092 0 15.972l-34.595 34.603c5.879 5.88 15.412 5.88 21.291 0l31.935-31.942c5.878-5.88 5.878-15.415 0-21.295L132.912 4.41c-5.879-5.88-15.412-5.88-21.291 0z"/><path fill="#f9cfcd" d="M60.676 54.985c-5.879-5.88-5.879-10.092 0-15.972L95.272 4.41c-5.88-5.88-15.413-5.88-21.292 0L42.046 36.351c-5.88 5.88-5.88 15.415 0 21.295L73.98 89.588c5.879 5.88 15.413 5.88 21.292 0z"/><path fill="#eb5e57" d="M108.58 39.013c5.878 5.88 5.878 10.092 0 15.972L73.984 89.588c5.879 5.88 15.412 5.88 21.291 0l31.935-31.942c5.879-5.88 5.879-15.415 0-21.295L95.275 4.41c-5.879-5.88-15.412-5.88-21.29 0z"/><path fill="#f18e89" d="M23.04 54.985c-5.88-5.88-5.88-10.092 0-15.972L57.634 4.41c-5.879-5.88-15.412-5.88-21.291 0L4.409 36.351c-5.879 5.88-5.879 15.415 0 21.295l31.935 31.942c5.879 5.88 15.412 5.88 21.29 0z"/><path fill="#d3242d" d="M70.943 39.013c5.879 5.88 5.879 10.092 0 15.972L36.348 89.588c5.878 5.88 15.412 5.88 21.29 0l31.935-31.942c5.879-5.88 5.879-15.415 0-21.295L57.64 4.41c-5.88-5.88-15.413-5.88-21.292 0z"/><path fill="#1961ac" d="M407.9 93.785h2.296l9.334 25.41h-2.296l-2.672-7.454h-11.066l-2.634 7.454h-2.258zm-3.726 16.037h9.71l-4.855-13.703zM422.431 91.15h2.183v28.045h-2.183zM437.001 119.684q-4.026 0-6.38-2.748-2.353-2.75-2.352-7.453 0-3.089 1.035-5.365 1.033-2.277 2.879-3.482 1.845-1.204 4.253-1.204 3.461 0 5.439 2.484 1.975 2.485 1.975 6.851v1.318h-13.436q.188 3.574 1.957 5.59t4.818 2.014c2.032 0 3.925-.576 5.532-1.732v2.071q-2.445 1.654-5.72 1.656m-.678-18.333q-2.597 0-4.121 1.807t-1.75 5.12h11.328c-.048-2.184-.553-3.885-1.505-5.101q-1.428-1.825-3.952-1.826M447.287 99.92h1.919l.151 2.974q.678-1.579 1.976-2.465 1.297-.886 2.916-.885c.651 0 1.231.087 1.732.264v1.995q-.752-.264-1.769-.263-2.145.001-3.444 1.731c-.866 1.156-1.298 2.684-1.298 4.593v11.331h-2.183zM466.101 119.571q-2.445 0-3.707-1.449-1.26-1.449-1.261-4.197v-12.197h-3.237v-1.807h3.237v-5.383h2.183v5.383h4.968v1.807h-4.968v12.121q.001 1.995.753 2.918.75.92 2.334.922 1.167 0 2.521-.678v1.883q-1.242.677-2.823.677M477.377 119.684q-2.749.002-4.403-1.506c-1.103-1.005-1.657-2.345-1.657-4.028q-.001-3.2 2.692-4.894 2.691-1.693 7.809-1.693h.829q.41.002.79.037v-.15q0-3.089-1.242-4.574-1.243-1.486-3.802-1.487-2.934.001-5.57 1.769v-2.033q2.597-1.694 5.759-1.694 3.387 0 5.212 2.014c1.216 1.345 1.826 3.268 1.826 5.779v11.971h-1.92l-.15-2.824q-.864 1.543-2.541 2.428a7.64 7.64 0 0 1-3.632.885m.339-1.807q1.62.001 2.936-.828 1.316-.828 2.051-2.108a5.44 5.44 0 0 0 .734-2.748v-2.786a36 36 0 0 0-1.92-.037q-3.914-.001-5.965 1.166-2.05 1.168-2.052 3.426.001 1.768 1.149 2.843 1.146 1.072 3.067 1.072"/><path fill="#d3242d" d="M381.953 105.564H192.095v1.656h189.858z"/></g><defs><clipPath id="a"><path fill="#fff" d="M0 0h486.557v120H0z"/></clipPath></defs></svg>