<svg width="400" height="200" viewBox="0 0 400 200" fill="none" xmlns="http://www.w3.org/2000/svg">
<path d="M179.98 49.9945H149.983V19.9978C149.968 14.6989 147.856 9.62159 144.109 5.8747C140.362 2.12782 135.285 0.0158255 129.986 0H69.9923C64.6934 0.0158255 59.6161 2.12782 55.8692 5.8747C52.1223 9.62159 50.0103 14.6989 49.9945 19.9978V49.9945H19.9978C14.6989 50.0103 9.62159 52.1223 5.8747 55.8692C2.12782 59.6161 0.0158255 64.6934 0 69.9923V129.986C0.0158255 135.285 2.12782 140.362 5.8747 144.109C9.62159 147.856 14.6989 149.968 19.9978 149.983H49.9945V179.98C50.0103 185.279 52.1223 190.356 55.8692 194.103C59.6161 197.85 64.6934 199.962 69.9923 199.978H129.986C135.285 199.962 140.362 197.85 144.109 194.103C147.856 190.356 149.968 185.279 149.983 179.98V149.983H179.98C185.279 149.968 190.356 147.856 194.103 144.109C197.85 140.362 199.962 135.285 199.978 129.986V69.9923C199.962 64.6934 197.85 59.6161 194.103 55.8692C190.356 52.1223 185.279 50.0103 179.98 49.9945Z" fill="#EB5E57"/>
<path d="M149.983 49.9945H49.9944V149.983H149.983V49.9945Z" fill="#D3242D"/>
<path d="M129.986 49.9945H69.9922C58.9478 49.9945 49.9944 58.9478 49.9944 69.9923V129.986C49.9944 141.03 58.9478 149.983 69.9922 149.983H129.986C141.03 149.983 149.983 141.03 149.983 129.986V69.9923C149.983 58.9478 141.03 49.9945 129.986 49.9945Z" fill="#1961AC"/>
<path d="M224.019 2.15179H220.848V38.4518H224.019V2.15179Z" fill="#1961AC"/>
<path d="M235.366 21.6736C235.366 19.1273 236.093 17.0475 237.546 15.4343C238.256 14.6396 239.133 14.0108 240.114 13.5927C241.095 13.1745 242.156 12.9772 243.221 13.0146C245.442 13.0146 247.175 13.7758 248.421 15.2983C249.666 16.8208 250.284 18.9633 250.276 21.7256V38.4518H253.396V21.2977C253.396 17.8927 252.536 15.1944 250.816 13.2026C249.096 11.2108 246.785 10.2162 243.881 10.2189C242.115 10.194 240.372 10.6296 238.826 11.4828C237.322 12.3244 236.078 13.5608 235.226 15.0584L235.01 10.9188H232.266V38.4518H235.386L235.366 21.6736Z" fill="#1961AC"/>
<path d="M274.622 36.9999C275.484 36.3377 276.177 35.4807 276.644 34.4991C277.111 33.5175 277.339 32.4392 277.309 31.3525C277.309 29.2008 276.691 27.5076 275.454 26.2731C274.216 25.0386 272.074 23.972 269.026 23.0735C266.696 22.3935 265.096 21.6763 264.227 20.9217C263.783 20.5263 263.434 20.0356 263.206 19.4864C262.978 18.9372 262.877 18.3437 262.911 17.75C262.899 17.0667 263.055 16.3909 263.364 15.7816C263.674 15.1722 264.128 14.6479 264.687 14.2544C265.871 13.3585 267.448 12.9106 269.418 12.9106C271.653 12.8843 273.85 13.4797 275.766 14.6304V11.7787C274.855 11.2429 273.865 10.8529 272.834 10.6228C271.698 10.3542 270.534 10.2199 269.366 10.2229C266.641 10.2229 264.383 10.9495 262.591 12.4026C261.746 13.0383 261.063 13.8636 260.596 14.8119C260.129 15.7603 259.892 16.8051 259.903 17.862C259.903 19.8351 260.495 21.435 261.679 22.6615C262.863 23.888 264.764 24.8826 267.382 25.6452C269.908 26.4131 271.685 27.197 272.714 27.9969C273.21 28.3785 273.608 28.873 273.874 29.4392C274.141 30.0055 274.268 30.6272 274.246 31.2526C274.265 31.9903 274.104 32.7216 273.775 33.3826C273.447 34.0435 272.962 34.614 272.362 35.0441C271.106 35.9934 269.421 36.468 267.306 36.468C264.582 36.4474 261.918 35.6646 259.615 34.2082V37.1679C261.839 38.5011 264.475 39.1677 267.522 39.1677C270.463 39.157 272.83 38.4344 274.622 36.9999Z" fill="#1961AC"/>
<path d="M284.897 30.9206C284.897 33.539 285.496 35.5388 286.696 36.92C287.896 38.3012 289.661 38.9917 291.992 38.9917C293.396 39.0161 294.783 38.683 296.023 38.0239V35.3362C294.915 35.9336 293.682 36.2649 292.424 36.304C290.92 36.304 289.808 35.8641 289.088 34.9842C288.368 34.1043 288.01 32.7084 288.012 30.7967V13.4786H295.111V10.9188H288.012V3.2277H284.893V10.9188H280.269V13.4986H284.893L284.897 30.9206Z" fill="#1961AC"/>
<path d="M303.714 4.62353C304.244 4.61925 304.755 4.43185 305.162 4.09316C305.569 3.75447 305.846 3.28537 305.946 2.76557C306.046 2.24577 305.964 1.70732 305.712 1.24169C305.46 0.776054 305.055 0.411951 304.565 0.211237C304.075 0.0105224 303.531 -0.0144275 303.025 0.140627C302.518 0.295681 302.082 0.621172 301.788 1.06181C301.495 1.50246 301.363 2.03107 301.415 2.55785C301.467 3.08464 301.7 3.57711 302.075 3.95161C302.287 4.16984 302.543 4.34207 302.825 4.45764C303.107 4.57322 303.41 4.62968 303.714 4.62353Z" fill="#1961AC"/>
<path d="M305.274 10.9188H302.155V38.4518H305.274V10.9188Z" fill="#1961AC"/>
<path d="M314.525 30.9206C314.525 33.539 315.125 35.5388 316.325 36.92C317.525 38.3012 319.291 38.9917 321.624 38.9917C323.029 39.0163 324.416 38.6832 325.656 38.0239V35.3362C324.547 35.9336 323.315 36.2649 322.056 36.304C320.55 36.304 319.438 35.8641 318.721 34.9842C318.003 34.1043 317.644 32.7084 317.641 30.7967V13.4786H324.74V10.9188H317.641V3.2277H314.521V10.9188H309.898V13.4986H314.521L314.525 30.9206Z" fill="#1961AC"/>
<path d="M340.874 39.1517C342.608 39.1786 344.319 38.7658 345.85 37.9519C347.316 37.1654 348.549 36.0066 349.425 34.5922L349.641 38.4638H352.385V10.9188H349.265V27.749C349.265 30.2954 348.548 32.3752 347.114 33.9883C346.435 34.7721 345.59 35.3957 344.642 35.8141C343.693 36.2325 342.663 36.4354 341.626 36.408C339.44 36.408 337.737 35.6375 336.519 34.0963C335.3 32.5551 334.691 30.4034 334.691 27.641V10.9188H331.563V28.073C331.563 31.4779 332.397 34.175 334.063 36.1641C335.73 38.1532 338 39.1491 340.874 39.1517Z" fill="#1961AC"/>
<path d="M365.828 34.9842C365.116 34.1043 364.76 32.7084 364.76 30.7967V13.4786H371.859V10.9188H364.76V3.2277H361.64V10.9188H357.017V13.4986H361.64V30.9246C361.64 33.543 362.24 35.5428 363.44 36.924C364.64 38.3052 366.405 38.9957 368.735 38.9957C370.139 39.0201 371.527 38.687 372.767 38.0278V35.3401C371.658 35.9376 370.426 36.2689 369.167 36.308C367.658 36.3027 366.545 35.8614 365.828 34.9842Z" fill="#1961AC"/>
<path d="M398.504 17.1981C397.615 15.1257 396.149 13.3527 394.28 12.0907C392.389 10.8926 390.199 10.2499 387.961 10.2357C385.722 10.2216 383.524 10.8366 381.618 12.0107C379.733 13.2603 378.234 15.0111 377.29 17.0661C376.181 19.4754 375.634 22.1054 375.69 24.7573C375.647 27.3 376.151 29.8224 377.17 32.1525C378.075 34.2227 379.537 36.0007 381.394 37.2879C383.281 38.5612 385.517 39.2193 387.793 39.1717C390.001 39.2061 392.17 38.5883 394.028 37.3959C395.917 36.1417 397.416 34.3834 398.356 32.3204C399.466 29.9112 400.013 27.2811 399.956 24.6293C400.001 22.0776 399.506 19.5451 398.504 17.1981ZM394.356 33.1963C393.582 34.1875 392.591 34.9887 391.46 35.5388C390.328 36.089 389.086 36.3735 387.828 36.3708C386.57 36.3681 385.329 36.0783 384.201 35.5233C383.072 34.9683 382.084 34.1628 381.314 33.1683C379.682 31.0352 378.866 28.2116 378.866 24.6973C378.866 21.1137 379.666 18.2727 381.266 16.1742C382.045 15.1888 383.039 14.3936 384.171 13.8486C385.303 13.3037 386.544 13.0233 387.801 13.0287C389.057 13.0341 390.296 13.3251 391.423 13.8797C392.551 14.4344 393.537 15.2381 394.308 16.2302C395.94 18.3633 396.756 21.187 396.756 24.7013C396.756 28.2156 395.956 31.0473 394.356 33.1963Z" fill="#1961AC"/>
<path d="M230.742 179.272C227.876 178.411 225.842 177.424 224.639 176.313C223.437 175.201 222.837 173.695 222.839 171.797C222.804 170.865 222.991 169.938 223.384 169.091C223.777 168.245 224.364 167.504 225.099 166.93C226.606 165.727 228.613 165.127 231.122 165.13C233.897 165.091 236.617 165.897 238.922 167.442V164.382C236.735 162.982 234.118 162.283 231.07 162.286C229.088 162.264 227.124 162.673 225.315 163.486C223.666 164.217 222.244 165.379 221.2 166.85C220.172 168.322 219.635 170.082 219.668 171.877C219.668 174.458 220.358 176.519 221.739 178.06C223.121 179.602 225.423 180.892 228.647 181.932C232.054 182.998 234.43 184.11 235.774 185.268C236.431 185.829 236.953 186.531 237.299 187.323C237.646 188.115 237.808 188.975 237.774 189.839C237.812 190.855 237.607 191.865 237.178 192.785C236.748 193.706 236.105 194.511 235.302 195.134C233.651 196.444 231.428 197.098 228.631 197.098C225.404 197.098 222.178 196.113 218.952 194.143V197.422C222.04 199.155 225.534 200.037 229.075 199.978C231.176 200.01 233.258 199.578 235.174 198.714C236.908 197.937 238.389 196.69 239.45 195.114C240.502 193.512 241.046 191.628 241.009 189.711C241.009 187.13 240.193 185.014 238.562 183.364C236.93 181.713 234.323 180.349 230.742 179.272Z" fill="#1961AC"/>
<path d="M256.5 171.045C253.58 171.013 250.717 171.848 248.273 173.445V176.381C250.608 174.75 253.384 173.869 256.232 173.853C258.669 173.853 260.479 174.561 261.663 175.977C262.847 177.392 263.439 179.571 263.439 182.512V182.728C263.082 182.693 262.706 182.675 262.311 182.672H261.111C256.234 182.672 252.515 183.478 249.952 185.092C248.739 185.8 247.741 186.825 247.063 188.056C246.386 189.287 246.055 190.679 246.105 192.083C246.105 194.483 246.894 196.401 248.473 197.838C250.051 199.275 252.151 199.989 254.772 199.978C256.583 199.993 258.369 199.559 259.971 198.714C261.496 197.94 262.759 196.734 263.603 195.246L263.819 199.278H266.562V182.18C266.562 178.596 265.693 175.845 263.955 173.925C262.216 172.005 259.731 171.045 256.5 171.045ZM263.435 189.275C263.44 190.653 263.078 192.007 262.387 193.199C261.675 194.431 260.668 195.466 259.455 196.21C258.201 197.006 256.745 197.422 255.26 197.41C253.431 197.41 251.964 196.9 250.86 195.878C250.313 195.358 249.884 194.726 249.601 194.026C249.318 193.326 249.188 192.573 249.22 191.819C249.22 189.667 250.198 188.035 252.152 186.923C254.107 185.812 256.948 185.256 260.675 185.256C261.859 185.256 262.772 185.273 263.415 185.308L263.435 189.275Z" fill="#1961AC"/>
<path d="M291.404 188.579C291.404 191.126 290.687 193.205 289.252 194.818C288.573 195.602 287.729 196.226 286.78 196.644C285.831 197.063 284.801 197.266 283.765 197.238C281.578 197.238 279.876 196.468 278.657 194.926C277.439 193.385 276.829 191.234 276.829 188.471V171.745H273.71V188.899C273.71 192.304 274.543 195.001 276.209 196.99C277.876 198.979 280.142 199.974 283.009 199.974C284.742 200 286.454 199.588 287.984 198.774C289.45 197.988 290.684 196.829 291.56 195.414L291.776 199.286H294.519V171.745H291.4L291.404 188.579Z" fill="#1961AC"/>
<path d="M291.456 159.214H287.744L282.205 167.23H285.164L291.456 159.214Z" fill="#1961AC"/>
<path d="M320.873 176.317C320.039 174.703 318.784 173.346 317.241 172.389C315.722 171.485 313.981 171.02 312.213 171.045C308.747 171.045 305.959 172.378 303.85 175.045C301.741 177.711 300.693 181.26 300.707 185.692C300.658 188.231 301.115 190.754 302.051 193.115C302.841 195.13 304.183 196.882 305.922 198.17C307.646 199.4 309.72 200.041 311.838 199.998C313.763 200.022 315.655 199.5 317.297 198.494C318.909 197.512 320.192 196.07 320.981 194.355L321.248 199.302H323.992V159.214H320.873V176.317ZM318.669 194.035C317.998 195.04 317.084 195.86 316.012 196.419C314.941 196.978 313.746 197.259 312.537 197.234C311.306 197.272 310.085 197.004 308.982 196.454C307.88 195.905 306.93 195.092 306.218 194.087C304.661 191.991 303.881 189.15 303.878 185.564C303.876 181.977 304.656 179.118 306.218 176.985C306.922 175.967 307.869 175.142 308.972 174.583C310.076 174.025 311.301 173.75 312.537 173.785C314.098 173.768 315.619 174.269 316.865 175.209C318.226 176.28 319.268 177.703 319.877 179.324C320.65 181.33 321.025 183.467 320.981 185.616C320.981 189.095 320.21 191.902 318.669 194.035Z" fill="#1961AC"/>
<path d="M341.846 171.045C339.695 171.004 337.581 171.603 335.771 172.765C333.947 173.991 332.518 175.719 331.655 177.74C330.619 180.159 330.114 182.773 330.175 185.404C330.175 189.886 331.297 193.435 333.539 196.05C335.782 198.666 338.82 199.974 342.654 199.974C345.556 200.038 348.409 199.214 350.829 197.61V194.651C348.528 196.303 345.755 197.171 342.922 197.126C340.018 197.126 337.724 196.168 336.039 194.251C334.354 192.333 333.42 189.667 333.239 186.251H352.437V184.38C352.437 180.22 351.496 176.958 349.613 174.593C347.731 172.228 345.142 171.045 341.846 171.045ZM333.295 183.684C333.511 180.529 334.344 178.091 335.795 176.369C337.245 174.646 339.208 173.786 341.682 173.789C344.082 173.789 345.964 174.658 347.33 176.397C348.695 178.135 349.412 180.564 349.481 183.684H333.295Z" fill="#1961AC"/>
<path d="M229.935 90.966H233.11V57.4097H244.885V54.666H218.16V57.4097H229.935V90.966Z" fill="#1961AC"/>
<path d="M249.08 89.7821C250.968 91.0554 253.203 91.7135 255.48 91.6659C257.688 91.7003 259.857 91.0826 261.715 89.8901C263.6 88.6408 265.099 86.8899 266.043 84.8346C267.152 82.4254 267.699 79.7954 267.642 77.1435C267.69 74.5865 267.195 72.0484 266.191 69.6963C265.303 67.6245 263.838 65.8516 261.971 64.5889C260.08 63.3908 257.89 62.7481 255.651 62.7339C253.412 62.7198 251.215 63.3348 249.308 64.5089C247.424 65.7585 245.925 67.5093 244.981 69.5643C243.871 71.9734 243.324 74.6036 243.381 77.2555C243.337 79.7983 243.842 82.3207 244.861 84.6507C245.765 86.7191 247.226 88.4957 249.08 89.7821ZM248.972 68.6764C249.752 67.691 250.745 66.8958 251.878 66.3508C253.01 65.8059 254.251 65.5255 255.507 65.5309C256.764 65.5363 258.003 65.8273 259.13 66.3819C260.257 66.9366 261.244 67.7403 262.015 68.7324C263.647 70.8655 264.463 73.6892 264.463 77.2035C264.463 80.7178 263.656 83.5508 262.043 85.7026C261.268 86.6937 260.278 87.4949 259.146 88.0451C258.015 88.5952 256.773 88.8798 255.515 88.8771C254.257 88.8744 253.016 88.5844 251.887 88.0295C250.758 87.4745 249.771 86.669 249 85.6746C247.369 83.5415 246.553 80.7178 246.553 77.2035C246.553 73.6172 247.359 70.7749 248.972 68.6764Z" fill="#1961AC"/>
<path d="M277.365 89.8381C279.089 91.0686 281.164 91.7097 283.281 91.6659C285.206 91.6889 287.098 91.1676 288.74 90.1621C290.352 89.1794 291.635 87.7381 292.424 86.0226L292.692 90.97H295.435V50.9024H292.316V67.9925C291.483 66.3809 290.23 65.0249 288.688 64.069C287.169 63.1647 285.428 62.6995 283.661 62.7251C280.194 62.7251 277.407 64.0583 275.298 66.7247C273.188 69.3911 272.139 72.94 272.15 77.3715C272.101 79.9105 272.558 82.4338 273.494 84.7947C274.286 86.8053 275.628 88.5529 277.365 89.8381ZM277.661 68.6765C278.365 67.6594 279.312 66.834 280.415 66.2753C281.519 65.7166 282.744 65.4421 283.981 65.4768C285.541 65.4604 287.062 65.9611 288.308 66.9007C289.669 67.9716 290.711 69.395 291.32 71.0162C292.094 73.0215 292.469 75.1586 292.424 77.3075C292.424 80.7738 291.653 83.5735 290.112 85.7066C289.441 86.7117 288.527 87.5317 287.456 88.0909C286.384 88.6501 285.189 88.9305 283.981 88.9062C282.75 88.9439 281.529 88.6766 280.426 88.1282C279.324 87.5797 278.374 86.767 277.661 85.7626C276.101 83.6668 275.322 80.8258 275.322 77.2395C275.322 73.6532 276.101 70.7989 277.661 68.6765Z" fill="#1961AC"/>
<path d="M320.201 64.5889C318.309 63.3908 316.12 62.7481 313.881 62.7339C311.642 62.7198 309.444 63.3348 307.538 64.5089C305.653 65.7585 304.154 67.5093 303.21 69.5643C302.1 71.9734 301.553 74.6036 301.611 77.2555C301.567 79.7982 302.072 82.3206 303.091 84.6507C303.995 86.7209 305.457 88.4989 307.314 89.7861C309.202 91.0594 311.437 91.7175 313.713 91.6699C315.921 91.7043 318.09 91.0866 319.949 89.8941C321.834 88.6448 323.333 86.8939 324.276 84.8386C325.386 82.4295 325.933 79.7994 325.876 77.1475C325.924 74.5904 325.429 72.0523 324.424 69.7003C323.536 67.6265 322.07 65.8521 320.201 64.5889ZM320.281 85.6946C319.506 86.6857 318.515 87.4869 317.384 88.037C316.252 88.5872 315.01 88.8718 313.752 88.8691C312.494 88.8664 311.254 88.5765 310.125 88.0215C308.996 87.4665 308.008 86.661 307.238 85.6666C305.606 83.5335 304.79 80.7098 304.79 77.1955C304.79 73.6119 305.59 70.7709 307.19 68.6724C307.97 67.687 308.963 66.8918 310.095 66.3468C311.227 65.8019 312.468 65.5215 313.725 65.5269C314.981 65.5323 316.22 65.8233 317.348 66.3779C318.475 66.9326 319.462 67.7364 320.233 68.7284C321.864 70.8615 322.68 73.6852 322.68 77.1995C322.68 80.7138 321.88 83.5468 320.281 85.6986V85.6946Z" fill="#1961AC"/>
<path d="M345.662 89.5141C346.524 88.8519 347.217 87.9949 347.684 87.0133C348.151 86.0317 348.379 84.9534 348.349 83.8668C348.349 81.715 347.731 80.0218 346.494 78.7873C345.256 77.5528 343.115 76.4862 340.07 75.5877C337.74 74.9077 336.14 74.1905 335.271 73.4359C334.826 73.0408 334.476 72.5504 334.248 72.0012C334.019 71.452 333.918 70.8582 333.951 70.2643C333.94 69.581 334.096 68.9053 334.405 68.296C334.715 67.6868 335.168 67.1624 335.727 66.7686C336.911 65.8727 338.488 65.4248 340.458 65.4248C342.693 65.3983 344.89 65.9938 346.806 67.1446V64.2929C345.895 63.7571 344.905 63.3671 343.874 63.137C342.738 62.8687 341.574 62.7345 340.406 62.7371C337.681 62.7371 335.423 63.4637 333.631 64.9168C332.787 65.5527 332.104 66.3781 331.637 67.3263C331.17 68.2746 330.932 69.3193 330.943 70.3763C330.943 72.3494 331.535 73.9492 332.719 75.1757C333.903 76.4023 335.804 77.3968 338.423 78.1594C340.966 78.9113 342.75 79.6912 343.774 80.4991C344.27 80.8807 344.668 81.3752 344.934 81.9414C345.201 82.5077 345.328 83.1294 345.306 83.7548C345.325 84.4925 345.164 85.2239 344.835 85.8848C344.507 86.5457 344.022 87.1162 343.422 87.5464C342.166 88.4983 340.481 88.9729 338.367 88.9702C335.642 88.9498 332.978 88.167 330.675 86.7104V89.6701C332.897 91.0033 335.531 91.6699 338.579 91.6699C341.509 91.6672 343.87 90.9486 345.662 89.5141Z" fill="#1961AC"/>
<path d="M238.538 116.947C236.821 115.7 234.744 115.048 232.622 115.091C230.697 115.071 228.807 115.602 227.175 116.623C225.563 117.619 224.279 119.067 223.483 120.787L223.215 115.787H220.472V153.543H223.575V138.809C224.376 140.408 225.615 141.747 227.149 142.668C228.682 143.589 230.446 144.054 232.234 144.008C235.701 144.008 238.488 142.682 240.597 140.029C242.706 137.376 243.756 133.827 243.745 129.382C243.789 126.861 243.333 124.357 242.401 122.015C241.606 120.001 240.269 118.247 238.538 116.947ZM238.242 138.109C237.534 139.12 236.585 139.939 235.482 140.492C234.379 141.046 233.156 141.317 231.922 141.28C230.362 141.298 228.84 140.798 227.595 139.857C226.232 138.787 225.19 137.363 224.583 135.741C223.81 133.736 223.437 131.598 223.483 129.45C223.483 125.983 224.254 123.184 225.795 121.051C226.466 120.046 227.38 119.226 228.451 118.666C229.523 118.107 230.718 117.827 231.926 117.851C233.158 117.813 234.379 118.081 235.482 118.63C236.584 119.18 237.534 119.993 238.246 120.999C239.805 123.094 240.585 125.935 240.585 129.522C240.585 133.108 239.804 135.97 238.242 138.109Z" fill="#1961AC"/>
<path d="M259.943 115.091C257.793 115.051 255.678 115.649 253.868 116.811C252.044 118.037 250.615 119.765 249.752 121.787C248.717 124.206 248.212 126.819 248.273 129.45C248.273 133.932 249.394 137.481 251.636 140.097C253.879 142.712 256.917 144.02 260.751 144.02C263.654 144.085 266.506 143.26 268.926 141.656V138.697C266.625 140.349 263.852 141.217 261.019 141.172C258.115 141.172 255.821 140.214 254.136 138.297C252.451 136.38 251.518 133.713 251.336 130.298H270.534V128.418C270.534 124.258 269.593 120.996 267.71 118.631C265.828 116.266 263.239 115.086 259.943 115.091ZM251.392 127.73C251.608 124.576 252.441 122.139 253.892 120.419C255.342 118.699 257.305 117.839 259.779 117.839C262.179 117.839 264.061 118.708 265.427 120.447C266.792 122.185 267.509 124.614 267.578 127.734L251.392 127.73Z" fill="#1961AC"/>
<path d="M279.785 103.261H276.665V143.324H279.785V103.261Z" fill="#1961AC"/>
<path d="M303.878 139.293L304.094 143.324H306.838V126.226C306.838 122.642 305.969 119.891 304.23 117.971C302.492 116.051 300.004 115.091 296.767 115.091C293.848 115.059 290.984 115.894 288.54 117.491V120.395C290.875 118.764 293.651 117.882 296.499 117.867C298.936 117.867 300.747 118.575 301.931 119.991C303.114 121.407 303.706 123.585 303.706 126.526V126.742C303.332 126.705 302.955 126.686 302.578 126.686H301.379C296.502 126.686 292.782 127.493 290.22 129.106C289.007 129.815 288.01 130.84 287.333 132.071C286.656 133.302 286.326 134.693 286.376 136.097C286.376 138.497 287.165 140.415 288.744 141.852C290.322 143.29 292.42 144.007 295.035 144.004C296.846 144.02 298.633 143.586 300.235 142.74C301.761 141.973 303.028 140.774 303.878 139.293ZM299.735 140.261C298.481 141.056 297.024 141.472 295.539 141.46C293.71 141.46 292.244 140.95 291.14 139.929C290.593 139.408 290.163 138.776 289.881 138.076C289.598 137.376 289.468 136.624 289.5 135.869C289.5 133.717 290.477 132.085 292.432 130.974C294.386 129.862 297.227 129.306 300.955 129.306C302.139 129.306 303.053 129.323 303.698 129.358V133.337C303.703 134.715 303.342 136.069 302.65 137.261C301.941 138.486 300.94 139.517 299.735 140.261Z" fill="#1961AC"/>
</svg>
