<svg xmlns="http://www.w3.org/2000/svg" width="64" height="32" fill="none" viewBox="0 0 64 32"><path fill="#fff" d="M28.797 8h-4.8V3.2a3.21 3.21 0 0 0-3.2-3.2H11.2a3.21 3.21 0 0 0-3.2 3.2V8H3.2A3.21 3.21 0 0 0 0 11.198v9.599a3.21 3.21 0 0 0 3.2 3.2H8v4.799a3.21 3.21 0 0 0 3.199 3.2h9.599a3.21 3.21 0 0 0 3.2-3.2v-4.8h4.799a3.21 3.21 0 0 0 3.2-3.2V11.2a3.21 3.21 0 0 0-3.2-3.2m-4.8 12.798a3.21 3.21 0 0 1-3.2 3.2H11.2a3.21 3.21 0 0 1-3.2-3.2v-9.6A3.21 3.21 0 0 1 11.2 8h9.599a3.21 3.21 0 0 1 3.2 3.2zM35.843.344h-.507v5.808h.507zM37.659 3.468q0-.611.348-.999a1.16 1.16 0 0 1 .908-.387q.534 0 .832.366.3.365.297 1.028v2.676h.5V3.408q0-.817-.413-1.296-.413-.477-1.11-.477a1.6 1.6 0 0 0-.809.202c-.24.135-.44.333-.576.572l-.034-.662h-.44v4.405h.5zM43.94 5.92a1.1 1.1 0 0 0 .43-.904q0-.516-.297-.812t-1.029-.512q-.56-.163-.768-.345a.63.63 0 0 1-.21-.507.67.67 0 0 1 .284-.56q.285-.214.757-.214c.357-.005.709.09 1.016.275v-.456a1.6 1.6 0 0 0-.47-.185 2.4 2.4 0 0 0-.554-.064q-.655 0-1.084.348a1.08 1.08 0 0 0-.43.874q0 .474.284.768t.912.477q.606.185.853.377a.63.63 0 0 1 .245.52.72.72 0 0 1-.301.607q-.301.228-.809.228a2.34 2.34 0 0 1-1.23-.362v.474q.533.32 1.265.32.705-.003 1.136-.347M45.583 4.947q0 .63.288.96.288.332.848.332c.224.004.446-.05.645-.155v-.43a1.3 1.3 0 0 1-.576.155q-.36 0-.534-.212-.172-.21-.172-.67v-2.77h1.136v-.41h-1.136V.517h-.5v1.23h-.739v.413h.74zM48.594.74a.367.367 0 1 0-.006-.734.367.367 0 0 0 .006.734M48.844 1.747h-.5v4.405h.5zM50.324 4.947q0 .63.288.96.288.332.848.332c.225.004.447-.05.645-.155v-.43a1.3 1.3 0 0 1-.576.155q-.361 0-.534-.212-.172-.21-.172-.67v-2.77h1.135v-.41h-1.135V.517h-.5v1.23h-.74v.413h.74zM54.54 6.264c.277.005.551-.061.796-.192.235-.126.432-.311.572-.537l.035.62h.439V1.746h-.5V4.44q0 .61-.344.998a1.12 1.12 0 0 1-.878.387q-.525 0-.817-.37-.292-.369-.292-1.032V1.747h-.5v2.745q0 .817.4 1.294.399.478 1.089.478M58.532 5.597q-.17-.21-.17-.67v-2.77h1.136v-.41h-1.136V.517h-.5v1.23h-.74v.413h.74v2.788q0 .628.288.96.288.33.848.331c.224.004.446-.05.645-.155v-.43a1.3 1.3 0 0 1-.576.155q-.363 0-.535-.212M63.76 2.752a1.9 1.9 0 0 0-.675-.817 1.91 1.91 0 0 0-2.026-.013c-.302.2-.541.48-.693.809a2.8 2.8 0 0 0-.255 1.23c-.008.407.073.81.236 1.183.145.332.379.616.676.822.302.204.66.31 1.024.301.353.006.7-.093.998-.284.302-.2.542-.482.692-.812.177-.385.265-.806.256-1.23a2.9 2.9 0 0 0-.232-1.19m-.663 2.56a1.32 1.32 0 0 1-2.087-.005q-.39-.512-.391-1.355 0-.86.383-1.364a1.327 1.327 0 0 1 2.087.009q.392.512.392 1.355 0 .844-.384 1.36M36.919 28.684q-.688-.207-.977-.474-.288-.267-.288-.723a.94.94 0 0 1 .362-.778q.36-.29.964-.288c.443-.006.879.123 1.248.37v-.49q-.526-.336-1.257-.335a2.2 2.2 0 0 0-.92.192 1.6 1.6 0 0 0-.66.538c-.163.235-.25.517-.244.804q0 .62.331.99.332.37 1.105.62.819.255 1.14.533a.91.91 0 0 1 .32.731 1.02 1.02 0 0 1-.395.848q-.396.314-1.067.314-.775 0-1.549-.473v.525a3.2 3.2 0 0 0 1.62.409c.336.005.67-.064.976-.203.277-.124.514-.323.684-.576.168-.256.255-.558.25-.864q0-.62-.392-1.016-.391-.396-1.251-.654M41.04 27.367a2.36 2.36 0 0 0-1.316.384v.47c.373-.261.817-.402 1.273-.404q.585 0 .87.34.283.339.283 1.045v.034a2 2 0 0 0-.18-.009h-.192q-1.17 0-1.786.388a1.24 1.24 0 0 0-.615 1.118q0 .576.379.921.378.345 1.008.343c.29.002.575-.068.831-.203.244-.124.447-.317.581-.555l.035.645h.439V29.15q0-.86-.417-1.321t-1.193-.46m1.11 2.917c0 .22-.057.437-.168.628a1.4 1.4 0 0 1-.47.482c-.2.127-.433.194-.67.192q-.44 0-.704-.245a.85.85 0 0 1-.263-.65q0-.516.47-.783.468-.267 1.363-.267.285 0 .438.008zM46.625 30.173q0 .61-.345.998a1.12 1.12 0 0 1-.878.387q-.525 0-.817-.37-.292-.369-.292-1.033V27.48h-.5v2.745q0 .817.4 1.294t1.088.478c.278.004.552-.062.797-.192.234-.126.431-.311.572-.538l.034.62h.44v-4.407h-.5zM46.633 25.474h-.594l-.886 1.283h.473zM51.34 28.21a1.6 1.6 0 0 0-.581-.628 1.53 1.53 0 0 0-.805-.215q-.831 0-1.338.64-.506.64-.503 1.704c-.008.406.066.81.215 1.187.127.323.341.603.62.81.275.196.607.299.946.292.308.004.61-.08.874-.24.258-.158.463-.389.589-.663l.043.791h.439v-6.414h-.5zm-.353 2.835a1.15 1.15 0 0 1-.981.512 1.2 1.2 0 0 1-1.011-.503q-.375-.503-.374-1.364 0-.86.374-1.373a1.19 1.19 0 0 1 1.011-.511c.25-.003.493.077.692.227.218.172.385.4.482.659.124.32.184.663.177 1.006q0 .835-.37 1.348M54.695 27.367a1.74 1.74 0 0 0-.972.275 1.8 1.8 0 0 0-.658.797 2.9 2.9 0 0 0-.237 1.226q0 1.076.538 1.703.539.628 1.459.628c.464.01.92-.122 1.308-.378v-.474a2.1 2.1 0 0 1-1.265.396q-.697 0-1.102-.46t-.448-1.28h3.072v-.3q0-.998-.452-1.565-.451-.568-1.243-.568m-1.368 2.022q.052-.756.4-1.17t.942-.413q.576 0 .904.418.327.417.344 1.165zM36.79 14.555h.508v-5.37h1.884v-.438h-4.276v.439h1.884zM39.853 14.365c.302.204.66.31 1.024.301.353.006.7-.093.997-.284.302-.2.542-.48.693-.809.177-.385.265-.806.256-1.23a2.9 2.9 0 0 0-.233-1.192 1.9 1.9 0 0 0-.675-.817 1.91 1.91 0 0 0-2.026-.013c-.301.2-.541.48-.692.81a2.8 2.8 0 0 0-.256 1.23c-.007.407.074.81.237 1.183.144.331.378.615.675.821m-.017-3.377a1.327 1.327 0 0 1 2.086.01q.392.51.392 1.355 0 .843-.387 1.36a1.32 1.32 0 0 1-2.087-.005q-.392-.512-.392-1.355 0-.861.388-1.365M44.379 14.374c.275.197.607.3.946.292.308.004.61-.08.873-.24.258-.157.464-.388.59-.662l.043.791h.439v-6.41h-.5v2.734a1.6 1.6 0 0 0-.58-.628 1.53 1.53 0 0 0-.804-.215q-.832 0-1.338.64t-.504 1.703c-.008.407.065.81.215 1.188.127.322.341.601.62.807m.047-3.386a1.19 1.19 0 0 1 1.01-.512c.25-.002.494.078.693.228.218.172.385.4.482.659.124.32.184.662.177 1.006q0 .832-.37 1.344a1.15 1.15 0 0 1-.981.512 1.2 1.2 0 0 1-1.011-.503q-.375-.503-.375-1.364 0-.86.375-1.37M51.232 10.334a1.91 1.91 0 0 0-2.026-.013c-.302.2-.541.48-.692.81a2.8 2.8 0 0 0-.256 1.23c-.007.407.073.81.236 1.183.145.331.38.616.676.822.302.204.66.309 1.024.301.353.006.7-.093.998-.284.301-.2.541-.48.692-.809.178-.385.265-.806.256-1.23a2.9 2.9 0 0 0-.232-1.192 1.9 1.9 0 0 0-.676-.818m.013 3.377a1.32 1.32 0 0 1-2.087-.004q-.392-.512-.392-1.356 0-.86.384-1.363a1.327 1.327 0 0 1 2.087.008q.392.513.392 1.356t-.384 1.36M55.306 14.322a1.1 1.1 0 0 0 .43-.903q0-.518-.297-.813-.296-.297-1.028-.512-.56-.163-.768-.344a.63.63 0 0 1-.21-.508.67.67 0 0 1 .283-.559q.285-.215.757-.215c.358-.004.71.091 1.016.275v-.456a1.6 1.6 0 0 0-.47-.185 2.4 2.4 0 0 0-.554-.064q-.654 0-1.084.349a1.08 1.08 0 0 0-.43.873q0 .474.284.768.285.294.913.477.61.18.856.375a.63.63 0 0 1 .245.52.72.72 0 0 1-.301.607q-.301.23-.81.228a2.33 2.33 0 0 1-1.23-.361v.473q.533.32 1.265.32.702 0 1.133-.345M38.166 18.712a1.56 1.56 0 0 0-.946-.297 1.6 1.6 0 0 0-.872.245c-.258.159-.463.39-.59.666l-.044-.8h-.438v6.04h.496V22.21a1.51 1.51 0 0 0 1.386.832q.831 0 1.338-.636.506-.637.503-1.704a3 3 0 0 0-.215-1.179 1.9 1.9 0 0 0-.618-.81m-.047 3.385a1.19 1.19 0 0 1-1.011.508 1.13 1.13 0 0 1-.693-.228 1.5 1.5 0 0 1-.482-.658 2.6 2.6 0 0 1-.176-1.007q0-.832.37-1.344a1.15 1.15 0 0 1 .981-.512 1.2 1.2 0 0 1 1.011.504q.375.503.375 1.364 0 .86-.375 1.373M41.59 18.415a1.74 1.74 0 0 0-.971.275 1.8 1.8 0 0 0-.659.796 2.94 2.94 0 0 0-.236 1.226q0 1.075.538 1.704.539.627 1.458.627c.465.01.921-.121 1.308-.378v-.473a2.1 2.1 0 0 1-1.265.396q-.698 0-1.101-.46-.406-.46-.448-1.28h3.072v-.301q0-.999-.452-1.566-.453-.568-1.243-.566m-1.367 2.022q.051-.757.4-1.17.348-.413.942-.413.576 0 .903.418.328.417.345 1.165zM44.766 16.522h-.5v6.41h.5zM48.62 22.287l.035.645h.44v-2.736q0-.86-.418-1.32-.417-.462-1.194-.461a2.36 2.36 0 0 0-1.317.384v.464a2.25 2.25 0 0 1 1.274-.404q.585 0 .869.34t.284 1.045v.035a2 2 0 0 0-.18-.01h-.192q-1.17 0-1.786.388a1.24 1.24 0 0 0-.615 1.119q0 .575.38.92.378.345 1.006.345c.29.002.575-.067.832-.203.244-.122.447-.314.583-.551m-.662.155c-.201.127-.434.194-.672.192q-.438 0-.704-.245a.85.85 0 0 1-.262-.65q0-.516.47-.783.468-.267 1.363-.267.285 0 .439.008v.637c0 .22-.057.437-.168.628a1.4 1.4 0 0 1-.466.48"/></svg>