<svg width="64" height="32" viewBox="0 0 64 32" fill="none" xmlns="http://www.w3.org/2000/svg">
<path d="M28.7968 7.99912H23.9974V3.19965C23.9948 2.35183 23.6569 1.53946 23.0574 0.939953C22.4579 0.340451 21.6455 0.00253208 20.7977 0H11.1988C10.3509 0.00253208 9.53857 0.340451 8.93907 0.939953C8.33957 1.53946 8.00165 2.35183 7.99912 3.19965V7.99912H3.19965C2.35183 8.00165 1.53946 8.33957 0.939953 8.93907C0.340451 9.53857 0.00253208 10.3509 0 11.1988V20.7977C0.00253208 21.6455 0.340451 22.4579 0.939953 23.0574C1.53946 23.6569 2.35183 23.9948 3.19965 23.9974H7.99912V28.7968C8.00165 29.6446 8.33957 30.457 8.93907 31.0565C9.53857 31.656 10.3509 31.9939 11.1988 31.9965H20.7977C21.6455 31.9939 22.4579 31.656 23.0574 31.0565C23.6569 30.457 23.9948 29.6446 23.9974 28.7968V23.9974H28.7968C29.6446 23.9948 30.457 23.6569 31.0565 23.0574C31.656 22.4579 31.9939 21.6455 31.9965 20.7977V11.1988C31.9939 10.3509 31.656 9.53857 31.0565 8.93907C30.457 8.33957 29.6446 8.00165 28.7968 7.99912ZM23.9974 20.7977C23.9948 21.6455 23.6569 22.4579 23.0574 23.0574C22.4579 23.6569 21.6455 23.9948 20.7977 23.9974H11.1988C10.3509 23.9948 9.53857 23.6569 8.93907 23.0574C8.33957 22.4579 8.00165 21.6455 7.99912 20.7977V11.1988C8.00165 10.3509 8.33957 9.53857 8.93907 8.93907C9.53857 8.33957 10.3509 8.00165 11.1988 7.99912H20.7977C21.6455 8.00165 22.4579 8.33957 23.0574 8.93907C23.6569 9.53857 23.9948 10.3509 23.9974 11.1988V20.7977Z" fill="white"/>
<path d="M35.8431 0.344284H35.3356V6.15228H35.8431V0.344284Z" fill="white"/>
<path d="M37.6586 3.46778C37.6586 3.06036 37.7748 2.72759 38.0073 2.46949C38.1211 2.34233 38.2613 2.24173 38.4183 2.17482C38.5752 2.10792 38.7449 2.07634 38.9154 2.08233C39.2708 2.08233 39.5481 2.20413 39.7473 2.44773C39.9465 2.69133 40.0455 3.03412 40.0442 3.4761V6.15228H40.5434V3.40762C40.5434 2.86283 40.4058 2.43109 40.1306 2.11241C39.8555 1.79372 39.4856 1.63459 39.021 1.63502C38.7384 1.63104 38.4596 1.70073 38.2121 1.83724C37.9716 1.9719 37.7724 2.16972 37.6362 2.40933L37.6016 1.74701H37.1626V6.15228H37.6618L37.6586 3.46778Z" fill="white"/>
<path d="M43.9395 5.91999C44.0774 5.81403 44.1883 5.67691 44.263 5.51986C44.3378 5.3628 44.3743 5.19028 44.3695 5.01641C44.3695 4.67212 44.2705 4.40122 44.0726 4.2037C43.8746 4.00617 43.5318 3.83552 43.0442 3.69175C42.6713 3.58296 42.4154 3.4682 42.2763 3.34747C42.2052 3.2842 42.1494 3.2057 42.113 3.11783C42.0765 3.02996 42.0604 2.93499 42.0658 2.84001C42.0639 2.73067 42.0888 2.62254 42.1383 2.52505C42.1878 2.42756 42.2605 2.34367 42.3499 2.28071C42.5393 2.13736 42.7916 2.06569 43.1069 2.06569C43.4644 2.06149 43.816 2.15676 44.1225 2.34086V1.88459C43.9767 1.79887 43.8185 1.73646 43.6534 1.69965C43.4716 1.65667 43.2854 1.63519 43.0986 1.63566C42.6626 1.63566 42.3013 1.75191 42.0146 1.98442C41.8794 2.08613 41.7701 2.21817 41.6954 2.36991C41.6207 2.52164 41.5827 2.68881 41.5845 2.85792C41.5845 3.17362 41.6792 3.42959 41.8687 3.62584C42.0581 3.82208 42.3623 3.98121 42.7812 4.10323C43.1852 4.22609 43.4695 4.35152 43.6342 4.4795C43.7136 4.54056 43.7772 4.61967 43.8199 4.71027C43.8625 4.80087 43.8829 4.90034 43.8793 5.00041C43.8824 5.11845 43.8566 5.23546 43.804 5.34121C43.7515 5.44696 43.6739 5.53824 43.5779 5.60706C43.377 5.75894 43.1073 5.83488 42.769 5.83488C42.3331 5.83158 41.9069 5.70634 41.5385 5.47332V5.94686C41.8943 6.16017 42.316 6.26683 42.8036 6.26683C43.2742 6.26512 43.6528 6.14951 43.9395 5.91999Z" fill="white"/>
<path d="M45.5834 4.94729C45.5834 5.36623 45.6794 5.68619 45.8714 5.90718C46.0634 6.12817 46.3458 6.23867 46.7187 6.23867C46.9434 6.24256 47.1653 6.18927 47.3637 6.08381V5.65377C47.1864 5.74936 46.9892 5.80238 46.7878 5.80863C46.5472 5.80863 46.3693 5.73824 46.2541 5.59746C46.1389 5.45667 46.0815 5.23334 46.082 4.92745V2.15656H47.2178V1.747H46.082V0.516418H45.5828V1.747H44.843V2.15976H45.5828L45.5834 4.94729Z" fill="white"/>
<path d="M48.5943 0.739755C48.679 0.73907 48.7609 0.709086 48.826 0.654896C48.8911 0.600705 48.9354 0.525649 48.9514 0.442482C48.9675 0.359314 48.9542 0.273162 48.9139 0.198661C48.8736 0.124159 48.8088 0.0659027 48.7304 0.0337884C48.652 0.00167412 48.565 -0.00231786 48.484 0.0224908C48.403 0.0472995 48.3331 0.0993781 48.2862 0.169881C48.2392 0.240383 48.2181 0.324961 48.2265 0.409247C48.2348 0.493533 48.2721 0.572329 48.332 0.632248C48.366 0.667164 48.4069 0.694721 48.452 0.713213C48.4971 0.731706 48.5456 0.740739 48.5943 0.739755Z" fill="white"/>
<path d="M48.8439 1.74701H48.3448V6.15229H48.8439V1.74701Z" fill="white"/>
<path d="M50.3241 4.94729C50.3241 5.36623 50.42 5.68619 50.612 5.90718C50.804 6.12817 51.0866 6.23867 51.4599 6.23867C51.6846 6.24259 51.9066 6.1893 52.105 6.0838V5.65377C51.9276 5.74936 51.7304 5.80238 51.529 5.80863C51.288 5.80863 51.1101 5.73824 50.9953 5.59746C50.8806 5.45667 50.823 5.23334 50.8226 4.92745V2.15656H51.9584V1.747H50.8226V0.516418H50.3234V1.747H49.5836V2.15976H50.3234L50.3241 4.94729Z" fill="white"/>
<path d="M54.5399 6.26427C54.8172 6.26856 55.0911 6.20251 55.336 6.07229C55.5706 5.94645 55.7679 5.76105 55.9081 5.53475L55.9426 6.1542H56.3816V1.74701H55.8825V4.43983C55.8825 4.84725 55.7677 5.18002 55.5382 5.43812C55.4296 5.56354 55.2945 5.66331 55.1427 5.73025C54.9909 5.7972 54.8261 5.82965 54.6602 5.82528C54.3104 5.82528 54.038 5.70199 53.843 5.4554C53.6481 5.20881 53.5506 4.86453 53.5506 4.42255V1.74701H53.0502V4.49167C53.0502 5.03646 53.1835 5.46799 53.4501 5.78625C53.7168 6.1045 54.08 6.26385 54.5399 6.26427Z" fill="white"/>
<path d="M58.5324 5.59746C58.4185 5.45667 58.3616 5.23334 58.3616 4.92745V2.15656H59.4975V1.747H58.3616V0.516418H57.8624V1.747H57.1227V2.15976H57.8624V4.94793C57.8624 5.36687 57.9584 5.68684 58.1504 5.90782C58.3424 6.12881 58.6248 6.23931 58.9977 6.23931C59.2223 6.2432 59.4443 6.18991 59.6427 6.08444V5.65441C59.4654 5.75 59.2682 5.80302 59.0668 5.80927C58.8253 5.80842 58.6472 5.73782 58.5324 5.59746Z" fill="white"/>
<path d="M63.7606 2.7517C63.6185 2.42011 63.3839 2.13643 63.0849 1.93451C62.7823 1.74282 62.4319 1.63998 62.0737 1.63772C61.7155 1.63546 61.3639 1.73386 61.0589 1.92171C60.7573 2.12165 60.5175 2.40178 60.3664 2.73059C60.1889 3.11606 60.1014 3.53687 60.1105 3.96117C60.1035 4.36801 60.1842 4.77159 60.3473 5.1444C60.492 5.47563 60.726 5.76011 61.023 5.96607C61.325 6.1698 61.6827 6.27509 62.0469 6.26748C62.4002 6.27297 62.7472 6.17414 63.0446 5.98335C63.3467 5.78267 63.5866 5.50135 63.737 5.17128C63.9145 4.7858 64.002 4.36499 63.9929 3.94069C64.0002 3.53242 63.921 3.12722 63.7606 2.7517ZM63.097 5.31142C62.9731 5.47001 62.8146 5.5982 62.6335 5.68622C62.4525 5.77424 62.2538 5.81977 62.0525 5.81934C61.8512 5.81891 61.6527 5.77253 61.4721 5.68373C61.2915 5.59493 61.1335 5.46606 61.0102 5.30694C60.7491 4.96565 60.6186 4.51386 60.6186 3.95157C60.6186 3.37819 60.7466 2.92363 61.0025 2.58788C61.1273 2.43022 61.2862 2.30297 61.4673 2.21578C61.6485 2.12859 61.8471 2.08373 62.0481 2.08459C62.2492 2.08545 62.4474 2.13202 62.6278 2.22076C62.8081 2.30951 62.966 2.43811 63.0893 2.59684C63.3504 2.93813 63.481 3.38993 63.481 3.95221C63.481 4.5145 63.353 4.96757 63.097 5.31142Z" fill="white"/>
<path d="M36.9188 28.6836C36.4602 28.5458 36.1347 28.3879 35.9423 28.21C35.7499 28.0321 35.6539 27.7913 35.6543 27.4875C35.6487 27.3384 35.6785 27.19 35.7414 27.0546C35.8042 26.9193 35.8983 26.8007 36.0159 26.7087C36.2569 26.5163 36.5781 26.4203 36.9796 26.4208C37.4234 26.4145 37.8587 26.5435 38.2275 26.7906V26.3011C37.8776 26.0771 37.4589 25.9653 36.9713 25.9658C36.654 25.9622 36.3398 26.0277 36.0504 26.1578C35.7865 26.2746 35.559 26.4606 35.3919 26.6959C35.2275 26.9315 35.1417 27.2131 35.1468 27.5003C35.1468 27.9133 35.2573 28.2431 35.4783 28.4897C35.6993 28.7362 36.0677 28.9427 36.5835 29.1091C37.1287 29.2798 37.5088 29.4577 37.7238 29.6428C37.829 29.7326 37.9125 29.845 37.9679 29.9717C38.0233 30.0984 38.0493 30.2361 38.0438 30.3742C38.0499 30.5367 38.0172 30.6983 37.9484 30.8457C37.8796 30.993 37.7768 31.1218 37.6483 31.2215C37.3842 31.431 37.0284 31.5357 36.5809 31.5357C36.0647 31.5357 35.5485 31.3781 35.0323 31.0628V31.5876C35.5264 31.8649 36.0854 32.006 36.6519 31.9965C36.9882 32.0016 37.3214 31.9325 37.6278 31.7943C37.9052 31.67 38.1422 31.4705 38.3119 31.2183C38.4803 30.9619 38.5673 30.6605 38.5615 30.3538C38.5615 29.9408 38.431 29.6023 38.1699 29.3382C37.9088 29.0741 37.4917 28.8559 36.9188 28.6836Z" fill="white"/>
<path d="M41.04 27.3672C40.5729 27.362 40.1147 27.4957 39.7236 27.7512V28.2209C40.0973 27.96 40.5414 27.819 40.9971 27.8165C41.387 27.8165 41.6767 27.9297 41.8661 28.1563C42.0555 28.3828 42.1503 28.7313 42.1503 29.2019V29.2365C42.0931 29.2309 42.0329 29.2279 41.9698 29.2275H41.7778C40.9975 29.2275 40.4024 29.3566 39.9924 29.6147C39.7983 29.7281 39.6386 29.892 39.5302 30.089C39.4218 30.2859 39.3688 30.5086 39.3768 30.7333C39.3768 31.1172 39.5031 31.4242 39.7556 31.6541C40.0082 31.8841 40.3442 31.9982 40.7635 31.9965C41.0533 31.9989 41.3391 31.9294 41.5954 31.7943C41.8394 31.6704 42.0415 31.4774 42.1765 31.2394L42.211 31.8845H42.65V29.1488C42.65 28.5754 42.511 28.1351 42.2328 27.828C41.9546 27.5208 41.557 27.3672 41.04 27.3672ZM42.1496 30.284C42.1504 30.5044 42.0925 30.7211 41.982 30.9118C41.8681 31.1089 41.7068 31.2745 41.5129 31.3937C41.3123 31.5209 41.0792 31.5876 40.8416 31.5856C40.5489 31.5856 40.3143 31.5039 40.1377 31.3405C40.0502 31.2573 39.9815 31.1562 39.9362 31.0442C39.891 30.9321 39.8702 30.8117 39.8753 30.691C39.8753 30.3467 40.0317 30.0856 40.3444 29.9077C40.6571 29.7298 41.1117 29.6409 41.7081 29.6409C41.8975 29.6409 42.0436 29.6437 42.1464 29.6492L42.1496 30.284Z" fill="white"/>
<path d="M46.6246 30.1727C46.6246 30.5801 46.5099 30.9129 46.2803 31.171C46.1717 31.2964 46.0366 31.3962 45.8848 31.4631C45.733 31.53 45.5682 31.5625 45.4024 31.5581C45.0525 31.5581 44.7801 31.4348 44.5852 31.1882C44.3902 30.9417 44.2927 30.5974 44.2927 30.1554V27.4792H43.7936V30.2239C43.7936 30.7687 43.9269 31.2002 44.1935 31.5185C44.4602 31.8367 44.8228 31.9958 45.2814 31.9958C45.5587 32.0001 45.8326 31.934 46.0775 31.8039C46.3121 31.678 46.5094 31.4926 46.6496 31.2663L46.6841 31.8858H47.1231V27.4792H46.624L46.6246 30.1727Z" fill="white"/>
<path d="M46.6329 25.4743H46.0391L45.1528 26.7567H45.6263L46.6329 25.4743Z" fill="white"/>
<path d="M51.3396 28.2107C51.2063 27.9525 51.0055 27.7353 50.7586 27.5822C50.5155 27.4376 50.237 27.3632 49.9542 27.3672C49.3996 27.3672 48.9535 27.5805 48.6161 28.0072C48.2786 28.4338 48.111 29.0016 48.1131 29.7107C48.1054 30.1169 48.1785 30.5206 48.3281 30.8984C48.4546 31.2208 48.6693 31.5011 48.9476 31.7072C49.2233 31.9041 49.5553 32.0066 49.894 31.9997C50.2021 32.0035 50.5049 31.92 50.7675 31.7591C51.0255 31.6019 51.2307 31.3712 51.3569 31.0967L51.3998 31.8883H51.8388V25.4743H51.3396V28.2107ZM50.987 31.0455C50.8796 31.2064 50.7335 31.3376 50.562 31.427C50.3906 31.5165 50.1994 31.5614 50.006 31.5575C49.809 31.5634 49.6136 31.5206 49.4372 31.4327C49.2608 31.3448 49.1088 31.2147 48.9949 31.0539C48.7458 30.7185 48.621 30.264 48.6206 29.6902C48.6201 29.1164 48.7449 28.6588 48.9949 28.3175C49.1075 28.1548 49.259 28.0227 49.4356 27.9333C49.6121 27.8439 49.8082 27.8 50.006 27.8056C50.2557 27.8029 50.4991 27.883 50.6984 28.0334C50.9162 28.2047 51.0829 28.4325 51.1803 28.6919C51.3041 29.0127 51.3641 29.3547 51.3569 29.6985C51.3569 30.2552 51.2336 30.7042 50.987 31.0455Z" fill="white"/>
<path d="M54.6954 27.3672C54.3513 27.3606 54.013 27.4564 53.7234 27.6424C53.4316 27.8386 53.2029 28.1151 53.0649 28.4385C52.899 28.8255 52.8183 29.2436 52.8281 29.6646C52.8281 30.3817 53.0075 30.9496 53.3663 31.3681C53.7251 31.7866 54.2112 31.9958 54.8247 31.9958C55.2891 32.0061 55.7455 31.8742 56.1327 31.6176V31.1441C55.7644 31.4085 55.3209 31.5474 54.8676 31.5402C54.403 31.5402 54.0359 31.3868 53.7662 31.0801C53.4966 30.7734 53.3473 30.3467 53.3183 29.8002H56.3899V29.5008C56.3899 28.8352 56.2394 28.3133 55.9382 27.9349C55.637 27.5564 55.2227 27.3672 54.6954 27.3672ZM53.3272 29.3894C53.3618 28.8847 53.4951 28.4946 53.7272 28.219C53.9593 27.9434 54.2733 27.8058 54.6692 27.8062C55.0531 27.8062 55.3543 27.9453 55.5728 28.2235C55.7912 28.5016 55.906 28.8903 55.917 29.3894H53.3272Z" fill="white"/>
<path d="M36.7896 14.5546H37.2977V9.18554H39.1816V8.74655H34.9056V9.18554H36.7896V14.5546Z" fill="white"/>
<path d="M39.8529 14.3651C40.1549 14.5689 40.5126 14.6742 40.8768 14.6665C41.23 14.672 41.5771 14.5732 41.8744 14.3824C42.176 14.1825 42.4159 13.9024 42.5668 13.5735C42.7444 13.1881 42.8319 12.7673 42.8228 12.343C42.8303 11.9338 42.7512 11.5277 42.5905 11.1514C42.4485 10.8199 42.2141 10.5363 41.9154 10.3342C41.6128 10.1425 41.2624 10.0397 40.9042 10.0374C40.546 10.0352 40.1944 10.1336 39.8894 10.3214C39.5878 10.5214 39.348 10.8015 39.197 11.1303C39.0194 11.5157 38.9318 11.9366 38.941 12.3609C38.9339 12.7677 39.0147 13.1713 39.1778 13.5441C39.3224 13.8751 39.5561 14.1593 39.8529 14.3651ZM39.8356 10.9882C39.9603 10.8306 40.1193 10.7033 40.3004 10.6161C40.4816 10.5289 40.6802 10.4841 40.8812 10.4849C41.0822 10.4858 41.2804 10.5324 41.4608 10.6211C41.6412 10.7099 41.7991 10.8385 41.9224 10.9972C42.1835 11.3385 42.3141 11.7903 42.3141 12.3526C42.3141 12.9148 42.185 13.3681 41.9269 13.7124C41.803 13.871 41.6444 13.9992 41.4634 14.0872C41.2824 14.1752 41.0837 14.2208 40.8824 14.2203C40.6811 14.2199 40.4826 14.1735 40.302 14.0847C40.1213 13.9959 39.9634 13.867 39.8401 13.7079C39.579 13.3666 39.4485 12.9148 39.4485 12.3526C39.4485 11.7788 39.5775 11.324 39.8356 10.9882Z" fill="white"/>
<path d="M44.3785 14.3741C44.6542 14.571 44.9862 14.6735 45.3249 14.6665C45.633 14.6702 45.9358 14.5868 46.1984 14.4259C46.4564 14.2687 46.6616 14.0381 46.7878 13.7636L46.8307 14.5552H47.2697V8.14438H46.7705V10.8788C46.6374 10.6209 46.4368 10.404 46.1901 10.251C45.947 10.1063 45.6686 10.0319 45.3857 10.036C44.8311 10.036 44.3851 10.2493 44.0476 10.6759C43.7102 11.1026 43.5423 11.6704 43.544 12.3794C43.5363 12.7857 43.6094 13.1894 43.759 13.5671C43.8858 13.8888 44.1005 14.1685 44.3785 14.3741ZM44.4258 10.9882C44.5385 10.8255 44.6899 10.6934 44.8665 10.604C45.043 10.5146 45.2391 10.4707 45.4369 10.4763C45.6866 10.4737 45.93 10.5538 46.1293 10.7041C46.3471 10.8755 46.5137 11.1032 46.6112 11.3626C46.735 11.6834 46.795 12.0254 46.7878 12.3692C46.7878 12.9238 46.6645 13.3717 46.4179 13.713C46.3105 13.8739 46.1644 14.0051 45.9929 14.0945C45.8215 14.184 45.6303 14.2289 45.4369 14.225C45.24 14.231 45.0446 14.1883 44.8682 14.1005C44.6918 14.0127 44.5398 13.8827 44.4258 13.722C44.1763 13.3867 44.0515 12.9321 44.0515 12.3583C44.0515 11.7845 44.1763 11.3278 44.4258 10.9882Z" fill="white"/>
<path d="M51.2321 10.3342C50.9295 10.1425 50.5792 10.0397 50.221 10.0374C49.8627 10.0352 49.5111 10.1336 49.2061 10.3214C48.9045 10.5214 48.6647 10.8015 48.5137 11.1303C48.3361 11.5157 48.2486 11.9366 48.2577 12.3609C48.2507 12.7677 48.3315 13.1713 48.4945 13.5441C48.6392 13.8753 48.8732 14.1598 49.1703 14.3658C49.4723 14.5695 49.8299 14.6748 50.1942 14.6672C50.5474 14.6727 50.8944 14.5738 51.1918 14.3831C51.4934 14.1832 51.7332 13.903 51.8842 13.5742C52.0618 13.1887 52.1493 12.7679 52.1402 12.3436C52.1478 11.9345 52.0686 11.5284 51.9079 11.152C51.7658 10.8202 51.5312 10.5363 51.2321 10.3342ZM51.2449 13.7111C51.121 13.8697 50.9624 13.9979 50.7814 14.0859C50.6004 14.1739 50.4017 14.2195 50.2004 14.219C49.9991 14.2186 49.8006 14.1722 49.62 14.0834C49.4394 13.9946 49.2814 13.8658 49.1581 13.7066C48.897 13.3654 48.7665 12.9136 48.7665 12.3513C48.7665 11.7779 48.8945 11.3233 49.1504 10.9876C49.2752 10.8299 49.4341 10.7027 49.6152 10.6155C49.7964 10.5283 49.995 10.4834 50.196 10.4843C50.3971 10.4852 50.5953 10.5317 50.7756 10.6205C50.956 10.7092 51.1139 10.8378 51.2372 10.9965C51.4983 11.3378 51.6289 11.7896 51.6289 12.3519C51.6289 12.9142 51.5009 13.3675 51.2449 13.7118V13.7111Z" fill="white"/>
<path d="M55.3059 14.3223C55.4439 14.2163 55.5547 14.0792 55.6295 13.9221C55.7042 13.7651 55.7407 13.5925 55.736 13.4187C55.736 13.0744 55.637 12.8035 55.439 12.606C55.2411 12.4084 54.8985 12.2378 54.4113 12.094C54.0384 11.9852 53.7825 11.8705 53.6434 11.7497C53.5722 11.6865 53.5163 11.6081 53.4797 11.5202C53.4431 11.4323 53.4269 11.3373 53.4322 11.2423C53.4304 11.1329 53.4553 11.0248 53.5049 10.9274C53.5544 10.8299 53.627 10.746 53.7163 10.683C53.9058 10.5396 54.1581 10.468 54.4734 10.468C54.8309 10.4637 55.1825 10.559 55.4889 10.7431V10.2869C55.3432 10.2011 55.1849 10.1387 55.0199 10.1019C54.8381 10.059 54.6519 10.0375 54.4651 10.0379C54.0291 10.0379 53.6677 10.1542 53.381 10.3867C53.2459 10.4884 53.1366 10.6205 53.0619 10.7722C52.9872 10.9239 52.9492 11.0911 52.951 11.2602C52.951 11.5759 53.0457 11.8319 53.2351 12.0281C53.4245 12.2244 53.7287 12.3835 54.1477 12.5055C54.5546 12.6258 54.8401 12.7506 55.0039 12.8799C55.0832 12.9409 55.1469 13.02 55.1895 13.1106C55.2321 13.2012 55.2525 13.3007 55.249 13.4008C55.2521 13.5188 55.2262 13.6358 55.1737 13.7416C55.1212 13.8473 55.0435 13.9386 54.9476 14.0074C54.7466 14.1597 54.477 14.2356 54.1387 14.2352C53.7028 14.232 53.2765 14.1067 52.9081 13.8737V14.3472C53.2635 14.5605 53.685 14.6672 54.1726 14.6672C54.6415 14.6667 55.0192 14.5518 55.3059 14.3223Z" fill="white"/>
<path d="M38.166 18.7115C37.8914 18.512 37.559 18.4077 37.2196 18.4146C36.9116 18.4113 36.6091 18.4964 36.348 18.6597C36.0901 18.819 35.8847 19.0507 35.7574 19.3259L35.7145 18.526H35.2755V24.5669H35.7721V22.2094C35.9001 22.4653 36.0984 22.6795 36.3438 22.8269C36.5892 22.9742 36.8714 23.0486 37.1575 23.0413C37.7121 23.0413 38.1582 22.8291 38.4956 22.4046C38.8331 21.9801 39.0009 21.4123 38.9992 20.7011C39.0063 20.2978 38.9333 19.8971 38.7842 19.5223C38.6569 19.2002 38.443 18.9196 38.166 18.7115ZM38.1187 22.0974C38.0054 22.2592 37.8537 22.3902 37.6772 22.4788C37.5007 22.5674 37.305 22.6107 37.1076 22.6049C36.8579 22.6077 36.6144 22.5276 36.4152 22.3771C36.1972 22.2059 36.0305 21.9781 35.9333 21.7186C35.8097 21.3977 35.7499 21.0558 35.7574 20.712C35.7574 20.1574 35.8806 19.7094 36.1272 19.3681C36.2346 19.2073 36.3808 19.0761 36.5522 18.9866C36.7237 18.8972 36.9149 18.8523 37.1082 18.8562C37.3052 18.8501 37.5007 18.893 37.6771 18.9809C37.8535 19.0687 38.0055 19.1989 38.1193 19.3598C38.3689 19.6951 38.4937 20.1497 38.4937 20.7235C38.4937 21.2973 38.3687 21.7553 38.1187 22.0974Z" fill="white"/>
<path d="M41.5909 18.4146C41.2468 18.4081 40.9085 18.5039 40.6189 18.6898C40.3271 18.886 40.0984 19.1625 39.9604 19.4859C39.7947 19.8729 39.7139 20.291 39.7236 20.712C39.7236 21.4291 39.903 21.9969 40.2618 22.4155C40.6206 22.834 41.1067 23.0432 41.7202 23.0432C42.1846 23.0535 42.641 22.9216 43.0282 22.665V22.1915C42.66 22.4559 42.2164 22.5948 41.7631 22.5876C41.2985 22.5876 40.9314 22.4342 40.6618 22.1275C40.3921 21.8208 40.2428 21.3941 40.2138 20.8476H43.2855V20.5469C43.2855 19.8813 43.1349 19.3594 42.8337 18.981C42.5325 18.6025 42.1182 18.4138 41.5909 18.4146ZM40.2228 20.4368C40.2573 19.9321 40.3906 19.5422 40.6227 19.267C40.8548 18.9918 41.1688 18.8542 41.5647 18.8542C41.9487 18.8542 42.2498 18.9933 42.4683 19.2715C42.6867 19.5496 42.8015 19.9383 42.8126 20.4374L40.2228 20.4368Z" fill="white"/>
<path d="M44.7656 16.5217H44.2665V22.9319H44.7656V16.5217Z" fill="white"/>
<path d="M48.6206 22.2868L48.6551 22.9319H49.0941V20.1962C49.0941 19.6228 48.955 19.1825 48.6769 18.8754C48.3987 18.5682 48.0007 18.4146 47.4828 18.4146C47.0157 18.4094 46.5575 18.5431 46.1664 18.7986V19.2632C46.5401 19.0022 46.9842 18.8612 47.4399 18.8587C47.8298 18.8587 48.1195 18.972 48.3089 19.1985C48.4983 19.4251 48.593 19.7736 48.593 20.2442V20.2787C48.5331 20.2727 48.4729 20.2697 48.4126 20.2698H48.2206C47.4403 20.2698 46.8452 20.3988 46.4352 20.6569C46.2412 20.7704 46.0816 20.9344 45.9733 21.1313C45.865 21.3283 45.8121 21.5509 45.8202 21.7755C45.8202 22.1595 45.9465 22.4664 46.1991 22.6964C46.4516 22.9263 46.7872 23.0411 47.2057 23.0407C47.4955 23.0432 47.7813 22.9737 48.0376 22.8384C48.2818 22.7157 48.4846 22.5239 48.6206 22.2868ZM47.9576 22.4417C47.7569 22.5689 47.5239 22.6355 47.2863 22.6337C46.9937 22.6337 46.759 22.552 46.5824 22.3886C46.4949 22.3053 46.4262 22.2042 46.3809 22.0922C46.3357 21.9802 46.3149 21.8598 46.32 21.739C46.32 21.3948 46.4764 21.1337 46.7891 20.9558C47.1018 20.7779 47.5564 20.6889 48.1528 20.6889C48.3422 20.6889 48.4885 20.6917 48.5918 20.6972V21.334C48.5926 21.5544 48.5347 21.7711 48.4241 21.9617C48.3107 22.1578 48.1504 22.3227 47.9576 22.4417Z" fill="white"/>
</svg>
