<svg width="613" height="640" viewBox="0 0 613 640" fill="none" xmlns="http://www.w3.org/2000/svg">
<style>
  path { fill: #BAD0E6; }
  .regiao-sul { fill: #EB5E57; }
  .regiao-nordeste { fill: #F0C653; }
</style>
<g clip-path="url(#clip0_5_13)">
<path d="M30.7326 238.031L28.6526 237.991L29.1926 236.181L28.9826 235.351L28.7326 234.861L27.4826 234.161L27.3426 233.711L27.6126 232.561L26.8426 230.611L25.7526 229.971L20.1526 228.721L12.8126 228.531L13.0826 227.971L15.5726 225.711L16.4626 224.481L16.7526 223.281L16.5326 222.051L15.8526 221.141L15.0226 220.701L13.3426 217.751L12.5726 217.311L11.6726 217.121L10.5426 215.991L9.62257 213.611L7.62257 212.081L6.64257 208.461L5.77257 206.821L3.89257 205.741L3.81257 204.571L4.62257 204.671L5.04257 204.151L5.11257 203.481L4.91257 203.061L2.79257 202.131L2.43257 201.471L0.262573 199.581L0.302573 199.211L0.922573 199.161L1.42257 197.841L1.41257 196.531L4.42257 196.141L4.92257 195.751L4.70257 194.401L3.53257 192.831L21.4826 200.311L45.1426 205.971L57.2826 209.111L83.7226 223.281L112.233 235.411L115.203 236.671L114.903 237.151L113.333 237.811L111.243 239.401L108.383 242.191L106.733 243.051L106.073 242.871L104.543 243.051L104.493 243.611L102.573 244.911L100.493 245.901L99.0526 247.731L98.6126 248.911L98.0026 249.191L96.8326 248.441L96.0726 248.311L93.7026 248.361L93.0226 248.621L92.3926 249.071L92.0326 249.931L89.5926 253.411L85.8226 254.661L84.9826 255.351L83.0426 255.861L82.0126 255.891L82.0926 253.781L80.7326 253.981L77.1826 253.211L71.9426 252.741L66.8526 253.121L66.1926 252.541L63.9226 252.371L60.3626 254.201L57.6326 254.821L55.9526 254.151L54.5526 252.711L52.9126 253.871L52.9526 236.321L53.0026 235.221L53.4726 234.511L53.5426 232.161L53.2826 231.281L54.2526 230.101L54.7326 228.961L53.5726 229.161L50.6026 231.751L49.0026 232.761L46.9426 235.141L44.9926 235.811L44.3426 236.891L42.5326 237.881L30.7326 238.031Z" stroke="white" stroke-width="2.32896"/>
<path class="regiao-nordeste" d="M562.173 230.561L561.973 229.831L560.553 229.051L560.103 229.141L559.083 228.851L558.543 227.451L559.863 226.381L560.503 225.291L562.673 224.531L565.053 221.241L565.143 220.551L565.963 219.951L566.963 221.171L568.633 221.471L569.713 221.351L572.263 223.371L574.163 225.491L575.943 226.541L577.853 227.021L580.353 226.371L583.493 226.661L584.663 226.551L586.523 225.491L587.683 225.541L589.493 224.431L591.673 222.141L591.793 221.691L593.343 220.451L595.343 220.211L597.583 221.061L600.143 219.771L601.613 219.581L603.533 220.391L606.433 220.661L606.703 220.871L603.923 225.831L599.373 230.961L595.793 234.541L592.753 239.121L589.423 242.001L588.423 244.031L587.103 245.821L586.503 244.511L582.913 242.281L582.453 242.251L580.793 241.461L579.033 240.011L577.733 237.561L572.313 234.491L568.633 233.541L562.173 230.561Z" stroke="white" stroke-width="2.32896"/>
<path d="M166.083 47.5511L166.803 48.3311L167.553 48.6711L168.163 48.6811L169.293 48.2611L169.923 48.3711L169.983 49.3311L171.193 50.5011L172.163 50.8711L173.043 50.6611L174.403 50.7711L176.353 51.7211L176.843 52.3811L175.933 55.7011L175.223 57.2011L177.953 60.9411L179.613 65.7011L179.803 67.9611L180.673 69.0812L180.723 69.5311L179.103 70.9911L179.463 72.5812L180.123 74.1611L179.353 77.2011L178.783 78.1611L179.073 83.1411L179.953 85.3111L181.173 86.1511L181.753 87.0512L182.883 91.3811L182.823 91.9611L181.683 93.2811L179.843 92.9511L179.703 94.0911L184.713 98.5112L185.233 98.5512L187.193 99.8611L188.673 101.511L189.713 103.551L190.243 103.621L191.583 103.201L193.943 104.241L193.503 102.131L194.253 99.8411L194.503 98.1111L194.133 96.3111L194.953 93.3411L195.973 92.0812L197.253 91.3911L199.343 90.6811L199.893 89.7911L201.493 89.7312L204.323 90.6611L206.193 92.7011L207.113 95.2111L208.933 95.4412L210.183 94.9812L211.593 93.5711L213.623 93.0211L214.043 92.6311L214.063 92.1011L212.923 90.6912L212.693 89.9611L212.803 89.3012L213.953 86.6611L214.023 85.5311L215.683 82.5011L218.013 79.2411L217.983 78.5611L236.473 78.6311L236.873 83.4911L236.443 84.9412L236.623 87.2111L236.863 87.8911L238.563 88.7411L238.743 89.1511L238.393 89.8411L238.343 91.9511L240.173 93.9412L240.533 94.1311L241.233 93.9511L243.073 95.1811L243.623 97.0112L243.663 97.9412L243.963 98.3911L248.603 102.161L253.183 104.701L253.813 105.601L255.163 106.691L257.043 107.361L259.413 108.671L261.673 109.321L263.033 109.471L264.353 110.291L264.433 110.901L265.703 112.241L268.403 113.681L269.503 115.851L271.373 116.641L272.223 116.031L273.603 115.681L273.793 116.161L273.663 116.941L275.473 118.611L245.573 182.851L244.793 184.161L243.343 185.291L242.763 186.261L242.733 187.391L243.553 189.721L243.933 190.291L245.003 190.871L246.583 192.431L247.223 193.691L247.373 195.651L247.943 196.221L246.763 197.421L246.563 198.031L246.503 198.791L246.843 199.631L246.573 200.641L245.373 202.461L244.513 203.101L244.093 203.951L244.193 204.801L244.853 206.171L245.313 208.111L243.933 212.331L242.753 217.551L241.543 218.281L193.693 218.601L193.733 217.901L193.373 217.521L191.983 217.241L190.063 218.321L189.523 220.061L188.843 220.251L185.603 218.771L184.923 215.891L184.303 215.691L183.323 215.821L182.863 215.611L181.613 212.341L179.073 211.361L177.743 210.091L176.943 208.181L176.493 207.691L174.343 206.561L163.553 206.621L162.173 209.181L160.453 209.681L160.543 210.851L160.283 211.071L157.803 211.601L156.613 213.191L156.563 213.861L157.463 214.561L157.633 215.011L157.273 216.031L156.463 217.181L154.403 218.391L154.293 220.201L154.533 221.661L150.663 221.201L148.533 221.581L147.333 222.651L145.543 222.551L144.703 222.001L144.243 221.981L142.493 223.241L141.963 224.081L142.223 225.831L139.683 228.991L139.003 229.071L138.323 228.541L137.683 226.281L137.303 226.191L135.463 227.211L134.163 228.421L132.793 228.811L132.023 228.681L130.943 229.181L130.533 229.711L130.403 230.431L129.183 231.221L128.813 231.241L126.503 228.911L125.783 228.541L122.913 228.871L118.953 228.611L119.113 229.901L118.963 230.461L117.413 232.271L115.493 232.851L112.233 235.411L83.7226 223.281L57.2826 209.111L45.1426 205.971L21.4826 200.311L3.53259 192.831L3.46259 192.181L4.16259 189.261L5.38259 187.861L10.3026 184.391L12.5626 184.151L13.0326 183.851L14.0126 182.291L14.0926 181.261L12.3526 176.771L12.7326 175.581L13.9126 173.391L15.1926 172.071L16.1126 170.821L16.5326 169.841L16.8326 168.101L16.5426 166.781L17.2126 164.741L17.5226 162.431L18.2526 161.681L21.9126 160.051L24.1026 158.821L25.2526 157.781L25.6926 156.381L26.4726 156.011L27.8826 155.901L29.5326 154.971L33.0726 152.241L35.4926 151.811L37.0026 152.101L41.1926 150.881L42.6926 150.111L44.5126 149.751L47.8426 150.131L49.1426 148.541L49.7726 147.091L50.8626 146.481L53.0026 146.681L53.6426 147.221L54.9626 146.981L56.0626 146.241L57.7726 146.361L58.0826 146.891L58.0626 148.071L59.6726 149.361L62.5026 149.441L63.0826 149.041L63.5426 148.261L63.4326 147.871L64.6026 142.951L71.3026 105.781L72.4626 102.861L71.4726 97.9011L71.5926 97.6411L70.2926 96.5911L68.8126 93.8411L68.7726 93.3511L69.4226 91.9611L68.9026 90.1811L68.5326 89.7811L66.8326 89.1912L63.8026 86.8411L61.8626 84.5611L62.0626 73.0512L65.9526 72.7911L67.7026 71.6212L71.2026 70.7011L73.8826 72.4611L75.1026 72.5711L76.3726 72.1411L75.8826 70.4511L76.1826 68.7312L74.8126 66.6311L74.2426 66.0911L73.0926 65.4911L71.5826 66.0211L68.7926 65.4111L65.2226 65.5011L65.1626 55.6011L66.1226 55.6411L67.4426 55.0611L69.7226 54.4611L72.5626 55.3311L91.5926 55.3911L91.1326 54.7311L90.3426 54.5911L89.9626 53.3911L90.9126 51.4611L92.3426 51.8611L92.9526 53.3811L93.8226 54.7011L94.4826 55.0511L95.3126 55.0611L96.9226 54.4511L98.8626 52.3611L99.1826 51.5211L100.443 50.2811L102.993 48.8911L104.283 49.3511L105.453 51.9311L107.073 53.9211L107.813 55.2211L108.473 57.0011L108.703 58.5511L108.213 62.1811L108.413 63.9411L111.613 63.1911L119.923 70.2511L120.713 70.5311L123.213 70.7411L125.513 69.7411L127.213 68.0411L129.323 66.8811L131.513 66.7711L132.073 67.0611L132.843 68.1411L132.823 69.1111L131.713 70.8111L132.083 71.7911L132.663 72.0611L133.993 71.3411L134.553 70.4311L134.783 69.1411L135.783 67.9812L136.253 67.7511L137.253 67.9311L137.803 67.7511L138.213 67.0911L138.673 64.7811L139.183 64.4111L140.693 64.0512L143.623 62.2811L144.593 62.8311L145.523 62.5411L147.123 61.5011L148.143 59.8911L150.253 58.6811L152.283 59.2311L154.643 57.5811L155.193 56.7611L155.633 54.1011L155.603 52.8111L156.373 51.8911L157.403 51.4711L159.143 51.4511L160.483 51.0611L162.543 49.4611L163.503 49.0911L165.783 48.7911L166.083 47.5511Z" stroke="white" stroke-width="2.32896"/>
<path d="M345.243 99.9611L344.303 99.9011L343.533 100.241L342.233 100.361L339.443 99.6811L337.993 98.6511L337.563 97.1511L335.693 95.7612L335.583 94.4611L335.793 93.7711L335.483 92.1912L335.153 91.7211L334.203 91.5311L333.793 90.5911L333.873 88.1611L330.943 84.8811L330.163 85.2411L329.343 85.0512L327.843 81.5711L327.973 79.9911L327.383 78.1811L326.763 77.6211L326.093 76.1111L325.903 74.0011L326.333 70.8611L326.163 70.5311L323.593 69.8011L321.573 67.5411L320.813 64.7111L321.003 63.9911L321.683 63.7611L321.193 62.5811L320.513 62.6111L317.673 59.9511L316.733 60.0911L316.353 60.5111L315.023 60.6511L314.183 60.3811L313.383 59.4011L312.243 58.5611L311.053 58.4411L310.563 57.1611L309.893 56.3611L307.963 55.3111L306.673 54.8211L303.283 54.4511L302.203 54.7411L301.033 54.7211L300.723 54.1811L300.483 52.7411L300.733 48.2011L301.353 46.9011L300.983 44.6011L300.363 44.0311L300.713 43.8211L301.703 44.1211L301.693 44.9311L301.403 45.1111L301.743 46.0811L303.213 46.0211L304.033 46.2511L304.383 47.1511L305.223 47.8611L307.473 48.6411L310.763 49.3911L313.523 47.6111L313.873 46.8511L315.603 45.6811L316.433 45.3911L317.123 46.3311L319.833 47.2711L320.913 47.1511L322.633 46.1411L322.753 45.7211L323.073 45.7511L324.533 47.0511L324.333 47.9211L326.703 47.7511L327.213 48.2511L328.163 48.4211L328.783 48.4111L329.693 47.9311L331.363 46.4311L333.143 45.3311L334.893 43.0311L335.263 42.0311L335.063 41.4911L338.193 34.9911L338.303 33.1711L339.413 31.8711L340.143 31.6811L343.743 25.8911L343.973 24.7411L344.813 23.5411L346.603 21.9911L347.233 20.3311L349.343 19.1911L349.813 18.2711L350.853 17.6911L351.413 19.1511L352.293 20.5111L350.623 15.7111L350.553 14.4211L350.733 14.0911L354.103 16.5111L355.243 17.7211L356.153 18.9411L356.673 20.1311L356.703 21.7111L357.143 22.0211L357.463 21.5411L357.843 21.4411L358.053 21.8411L358.263 29.7311L358.923 33.6011L361.633 39.6511L364.293 48.5911L367.613 53.5911L368.623 53.9411L371.893 53.8611L374.673 54.8011L375.963 55.6511L376.733 58.3011L376.573 61.6311L375.283 62.5911L373.553 63.0211L373.173 63.3511L374.963 63.2011L376.003 62.7811L376.283 63.0111L376.403 63.6011L376.233 64.3311L371.203 68.3911L370.033 70.4911L367.883 71.9011L365.943 75.6211L363.033 79.1212L362.333 79.5812L361.393 79.4911L359.943 80.0112L357.863 82.9911L356.523 83.0611L355.773 83.9611L354.303 85.6411L353.333 87.8611L352.213 89.7312L351.373 90.3811L348.363 93.8312L348.003 96.2312L348.173 98.0311L346.223 99.8411L345.243 99.9611ZM368.603 52.9711L368.153 52.6411L367.053 50.7811L367.123 49.9011L367.353 49.4911L369.013 49.0411L369.443 49.4311L370.273 51.7011L369.283 52.8011L368.603 52.9711ZM371.093 70.5811L370.693 70.3311L370.613 69.6211L371.723 68.5211L372.603 68.3711L373.853 68.6111L374.313 68.5011L374.753 67.8611L374.803 68.4511L373.833 69.8911L372.843 70.3911L371.093 70.5811ZM374.533 67.7111L373.753 67.4811V66.9211L374.473 65.8811L375.723 65.7811L375.903 66.1311L375.803 66.6411L374.533 67.7111ZM367.343 49.2911L366.583 48.7911L366.843 47.9611L367.723 47.7911L368.583 48.1111L368.593 48.8411L367.343 49.2911Z" stroke="white" stroke-width="2.32896"/>
<path class="regiao-nordeste" d="M527.763 365.591L527.403 364.761L528.083 363.411L528.073 362.881L527.543 361.841L523.413 358.791L523.263 358.281L523.483 356.771L522.913 355.541L522.263 355.781L522.063 356.231L521.723 356.411L521.503 356.161L522.033 351.761L522.853 348.461L523.673 347.581L526.143 347.821L527.163 347.111V346.691L526.603 345.671L526.763 343.021L531.723 338.801L533.193 335.721L532.773 334.551L531.993 333.531L531.103 333.471L530.373 333.091L527.543 330.621L525.423 330.641L523.233 330.041L520.963 328.961L518.233 328.401L516.253 328.261L514.933 329.251L513.463 329.751L510.853 329.301L510.283 329.511L509.843 325.551L503.323 319.351L502.943 319.171L498.553 320.401L497.023 319.161L496.513 319.371L495.583 319.151L493.043 317.931L490.873 316.311L489.893 316.491L485.543 312.861L484.443 312.321L481.713 311.571L479.943 311.821L478.063 312.721L477.253 313.841L476.613 314.021L471.283 312.551L470.673 312.061L470.413 310.561L470.553 309.671L471.843 306.931L470.983 306.471L468.703 305.951L466.523 305.911L465.323 305.411L463.533 305.331L459.703 306.911L455.443 309.941L454.803 311.051L451.433 312.921L449.413 313.321L448.463 314.501L446.653 316.051L445.223 316.571L444.223 316.421L442.373 319.001L441.333 319.771L439.203 319.391L438.483 319.521L437.793 320.521L436.453 321.441L436.053 321.201L437.483 317.771L436.973 315.361L438.453 313.391L438.703 312.621L438.473 311.351L437.803 309.631L437.903 308.961L438.613 307.541L438.563 307.081L435.353 304.461L433.663 301.001L433.043 297.481L433.093 295.931L434.293 292.101L435.883 291.071L436.113 290.691L436.173 289.751L434.543 288.911L434.433 288.581L434.913 286.061L436.343 285.001L436.323 284.631L433.603 282.171L433.563 281.241L434.923 278.861L434.883 277.791L434.713 277.371L433.253 276.881L432.313 276.231L431.963 274.971L432.023 272.051L432.213 271.201L434.163 269.531L435.303 269.111L436.263 268.391L435.973 267.761L435.393 267.241L434.473 266.951L433.443 267.131L433.093 266.801L433.003 266.301L433.423 265.341L435.463 264.521L436.023 264.071L435.983 263.311L434.103 262.331L430.523 261.661L428.663 259.701L428.433 258.781L428.933 257.621L429.943 256.891L431.463 253.411L432.363 252.801L433.373 252.531L433.723 252.151L432.433 250.351L432.623 249.981L435.833 247.361L439.653 245.341L440.213 244.871L440.433 243.891L441.123 243.241L443.453 243.221L444.893 244.561L445.553 245.601L446.083 247.811L447.843 250.301L452.023 252.161L453.823 251.641L455.933 251.821L456.263 251.611L457.013 250.161L458.153 249.791L458.823 248.921L459.993 248.031L462.203 247.281L463.533 247.451L465.013 247.981L466.363 247.561L469.333 245.141L472.283 240.091L473.003 239.231L473.243 238.311L473.543 235.751L473.423 234.591L471.183 230.161L471.233 229.231L474.473 227.581L476.423 227.561L477.923 228.021L478.333 228.951L478.653 229.131L480.773 228.701L482.163 228.161L483.493 228.541L485.203 229.531L485.073 230.181L485.263 230.471L486.083 230.751L489.083 230.641L490.553 230.001L492.253 229.901L493.073 228.681L494.583 227.341L497.313 227.001L498.083 226.641L498.893 225.661L501.063 225.671L501.683 226.301L501.993 226.351L503.853 224.541L503.753 222.141L505.743 221.761L506.533 221.941L507.583 221.281L509.083 218.971L509.543 217.821L510.433 218.221L511.593 217.951L513.793 218.241L516.613 219.631L517.053 220.141L516.993 222.871L517.713 224.811L519.923 225.721L520.193 227.721L519.273 229.401L521.103 230.021L522.063 229.801L522.883 228.881L525.753 228.001L526.523 224.421L527.023 223.551L527.773 223.391L528.553 223.921L529.183 223.971L531.573 222.951L532.673 221.711L532.843 221.121L532.593 219.761L532.883 219.511L535.123 219.061L535.893 217.011L537.543 216.571L540.073 215.111L540.663 215.011L542.153 215.571L542.983 217.011L544.343 217.821L546.703 218.601L549.693 219.001L551.273 220.151L551.813 221.801L552.203 222.071L552.633 221.921L552.923 220.171L553.353 219.731L554.353 219.721L554.803 220.041L554.823 220.671L554.203 221.551L554.653 222.381L555.153 222.751L557.253 223.611L557.273 224.551L558.493 227.601L559.033 229.001L560.053 229.291L560.503 229.201L561.933 229.991L562.133 230.711L561.463 231.871L561.673 234.011L562.953 236.511L564.943 238.461L565.693 239.611L565.613 242.731L564.953 244.351L564.863 245.231L565.623 247.981L565.323 248.561L564.633 249.111L562.083 250.111L560.953 249.361L559.243 249.351L558.923 249.651L558.333 251.231L558.353 252.001L559.303 253.601L560.403 254.261L560.923 255.751L562.353 257.261L562.503 257.651L562.373 259.071L562.033 259.461L562.153 259.881L562.743 260.401L564.673 261.321L565.153 262.031L565.693 262.371L567.243 263.011L570.133 262.131L570.773 262.111L571.133 262.521L567.053 271.351L563.223 276.541L562.193 278.871L557.163 284.611L554.713 285.871L553.843 285.861L554.143 284.431L554.513 284.281L554.653 283.181L554.203 281.251L552.333 281.001L551.903 279.701L551.223 278.951L550.853 279.551L550.393 281.881L549.893 282.751L549.343 283.131L548.783 282.841L548.293 281.101L548.403 280.781L548.713 280.651L548.683 280.261L547.813 281.551L548.743 283.241L549.203 283.471L549.573 283.321L550.723 283.581L550.263 285.391L549.053 286.541L548.803 288.361L547.553 289.331L547.203 290.001L547.003 290.841L547.183 291.691L545.833 291.301L545.623 291.691L545.263 294.211L545.623 293.491L546.373 293.701L546.613 294.241L546.383 294.651L546.443 295.271L546.743 295.571L547.073 296.571L546.033 299.081L546.603 302.521L546.053 303.011L545.483 302.791L545.343 303.921L545.933 304.381L547.143 302.661L546.673 300.451L547.493 299.841L547.743 300.381L547.683 302.141L546.723 304.751L545.983 310.181L545.473 311.991L545.673 314.461L546.453 317.311L546.643 321.851L547.513 328.261L548.503 331.681L546.293 338.341L544.943 344.991L544.473 346.001L544.313 348.861L543.253 352.581L543.163 354.911L543.553 359.331L544.443 361.041L542.203 364.021L540.393 364.691L539.453 365.331L536.733 369.221L536.163 371.261L528.073 366.121L527.763 365.591ZM550.043 287.591L549.813 286.391L550.553 285.981L551.613 284.941L551.773 284.301L551.403 283.571L552.163 283.711L552.983 284.761L552.933 285.291L550.043 287.591ZM547.513 294.441L546.883 294.411L546.893 293.741L547.153 293.381L546.353 293.161L545.933 292.761L546.063 291.691L547.933 291.541L548.093 291.741L548.203 292.871L547.513 294.441Z" stroke="white" stroke-width="2.32896"/>
<path class="regiao-nordeste" d="M574.053 157.111L569.163 158.701L566.553 160.711L563.253 167.401L562.413 168.521L561.543 169.091L560.893 170.761L561.043 171.501L559.643 173.941L558.183 175.451L557.613 176.551L556.583 176.811L555.803 176.301L555.293 176.371L554.453 177.251L553.043 179.501L552.703 181.471L553.343 181.641L554.003 181.261L553.923 181.801L553.083 182.951L552.053 185.951L552.573 187.261L551.913 188.571L550.823 189.201L550.653 189.581L550.533 190.511L550.773 190.921L551.353 191.211L551.703 191.931L551.683 193.591L552.923 194.481L553.613 194.561L553.953 195.751L552.343 199.241L551.153 200.361L551.323 200.611L549.733 201.101L548.663 201.931L547.123 204.221L545.473 204.271L544.843 202.631L544.063 202.061L542.703 201.581L541.693 200.511L541.233 199.521L539.403 198.691L536.553 196.791L533.473 196.371L532.183 196.471L530.043 197.271L528.413 197.461L527.523 197.221L522.593 197.021L522.653 195.701L521.973 195.021L521.893 194.051L523.033 190.941L524.533 188.691L524.543 188.001L523.773 186.841L521.213 186.371L519.903 185.721L518.893 183.051L517.843 177.851L517.083 175.281L517.323 174.831L516.383 166.671L516.273 166.291L515.353 165.601L516.153 165.021L516.743 163.441L516.143 160.451L515.143 158.441L515.623 156.841L514.833 152.971L515.573 151.611L515.593 150.851L514.233 149.261L513.793 147.531L510.643 141.111L508.843 136.391L508.553 135.101L508.733 133.641L510.313 131.671L511.403 129.821L511.513 129.021L511.703 128.881L511.663 128.261L511.263 127.601L511.913 126.791L518.653 126.571L521.543 126.141L523.613 125.481L531.013 126.271L533.133 127.391L535.073 128.891L539.193 131.071L540.653 131.591L545.473 134.591L546.683 134.791L548.903 137.081L551.893 139.191L554.463 139.911L556.903 142.821L558.123 143.431L561.083 147.241L565.243 150.321L566.703 152.321L567.743 153.311L569.243 154.131L570.393 154.161L572.763 155.081L573.553 155.751L574.053 157.111Z" stroke="white" stroke-width="2.32896"/>
<path d="M416.973 334.131L402.283 334.111L401.763 330.851L402.683 329.021L403.063 325.291L415.013 325.301L416.843 327.281L416.903 329.491L416.313 330.681L416.103 333.121L416.973 334.131Z" stroke="white" stroke-width="2.32896"/>
<path d="M501.893 411.631L501.603 411.491L502.043 409.151L502.613 407.851L502.023 404.731L502.183 404.311L503.903 402.251L509.053 402.281L509.603 401.961L510.573 398.721L511.683 397.451L512.563 395.161L512.803 393.441L513.063 393.001L514.303 392.141L516.013 390.051L516.553 387.081L516.263 384.651L514.993 381.841L513.893 380.571L513.373 380.481L512.923 380.771L512.163 380.491L511.673 379.781L512.103 379.231L513.583 379.141L514.383 379.491L515.353 379.521L516.303 379.281L516.623 378.861L516.453 377.141L515.143 376.791L514.933 376.381L515.233 374.841L515.263 372.921L514.743 372.261L513.413 371.591L513.113 370.891L514.283 368.961L516.453 367.651L516.763 367.631L517.813 368.371L518.943 368.481L518.963 367.671L517.293 365.401L518.633 365.531L520.813 365.241L521.653 364.631L522.733 364.311L524.313 364.231L526.853 365.041L527.763 365.591L528.063 366.121L536.163 371.261L535.233 374.611L534.923 377.471L535.043 381.061L535.763 387.211L535.453 389.681L533.963 392.861L531.213 394.251L530.663 394.851L528.993 398.181L528.013 401.981L527.243 403.451L526.413 402.771L525.533 402.641L525.243 403.921L526.593 404.441L524.653 408.681L521.203 412.521L520.963 412.251L519.103 412.911L518.303 414.141L518.243 415.531L517.823 416.781L516.233 418.801L515.943 419.931L514.323 418.871L511.333 419.241L506.993 418.231L504.493 417.101L503.823 412.391L501.893 411.631Z" stroke="white" stroke-width="2.32896"/>
<path d="M416.973 334.131L416.103 333.121L416.313 330.681L416.903 329.491L416.843 327.281L415.013 325.301L403.063 325.291L402.683 329.021L401.763 330.851L402.283 334.111L416.973 334.131L416.443 335.651L416.753 337.221L416.073 338.811L415.033 340.061L414.623 341.531L415.473 342.741L416.323 343.081L417.743 344.111L419.393 348.671V349.271L417.073 351.981L413.833 354.991L413.403 357.131L414.493 358.241L415.393 357.771L416.973 358.341L417.443 358.951L417.623 359.951L417.453 360.661L416.723 361.561L416.213 363.451L417.403 366.911L414.313 368.971L413.153 369.171L412.293 370.071L411.813 371.191L406.923 373.931L406.223 373.161L401.873 371.301L401.323 371.781L400.743 371.871L398.993 371.881L397.513 371.601L393.653 371.761L391.643 370.871L387.513 373.511L384.603 376.431H384.273L382.963 375.011L381.443 374.711L378.253 376.351L374.543 375.731L372.063 376.691L369.833 377.231L368.423 379.331L367.213 381.791L367.273 382.791L366.433 384.091L365.613 384.371L364.773 384.211L364.323 384.351L363.383 385.091L361.743 387.191L361.173 389.091L361.733 389.701L361.723 390.041L361.363 390.271L360.503 389.811L360.263 389.361L357.603 387.121L354.453 386.511L352.833 384.961L350.933 384.531L349.443 384.491L346.093 383.151L345.413 382.301L342.343 380.741L341.673 380.131L340.233 379.421L339.093 379.251L336.393 377.571L333.613 377.731L329.813 377.031L329.683 376.701L329.943 375.861L330.513 374.691L331.823 372.931L331.743 372.511L329.493 371.611L328.353 372.281L327.693 372.091L327.413 371.681L327.183 370.571L327.443 367.991L327.253 366.221L326.303 364.021L326.123 360.591L324.713 358.401L324.553 357.691L324.953 354.281L327.503 350.431L327.883 347.521L328.583 346.751L330.603 345.911L332.523 344.141L333.773 342.121L334.103 340.171L334.603 339.161L335.883 338.121L336.703 336.691L336.783 335.151L338.533 334.181L339.933 331.561L342.583 331.431L345.303 330.571L345.623 330.291L347.603 326.101L348.313 325.141L348.953 321.041L349.333 320.301L351.253 318.361L352.903 317.351L353.973 317.091L355.203 317.771L356.413 317.041L357.803 315.611L358.643 312.681L359.813 309.811L359.803 309.011L359.323 307.871L359.903 305.131L361.503 302.041L361.383 296.861L362.593 296.081L363.623 293.451L365.623 290.281L366.013 289.211L365.853 286.491L366.203 285.591L367.173 284.731L367.443 283.601L367.363 282.971L367.703 282.521L367.903 280.641L368.563 279.411L370.373 277.321L370.933 277.021L370.903 278.731L369.683 280.611L369.163 282.951L371.563 283.351L373.763 284.381L377.693 284.781L380.783 286.491L384.853 287.921L385.483 287.691L387.113 281.751L388.583 279.361L389.763 278.391L390.913 279.701L391.953 281.581L393.063 285.291L393.673 288.391L394.813 288.441L395.563 287.691L395.863 286.691L396.423 286.151L399.183 286.491L403.713 285.961L403.933 286.701L403.373 288.261L406.503 289.731L409.853 290.411L410.543 290.331L411.053 287.031L411.603 287.061L413.113 289.681L413.573 289.921L415.353 289.021L417.873 286.941L422.403 285.941H423.953L426.513 284.841L428.253 283.501L433.613 282.081L436.333 284.541L436.353 284.921L434.923 285.981L434.443 288.501L434.543 288.831L436.173 289.671L436.113 290.611L435.883 290.991L434.293 292.021L433.103 295.851L433.053 297.401L433.673 300.921L435.373 304.381L438.583 307.001L438.633 307.471L437.913 308.891L437.813 309.561L438.483 311.281L438.713 312.561L438.463 313.331L436.983 315.301L435.983 316.311L432.753 315.971L431.853 314.211L429.433 312.731L428.263 314.221L428.843 317.991L428.273 318.531L427.873 318.661L425.093 317.521L423.923 317.751L423.553 318.031L422.833 321.211L423.553 321.311L424.043 322.471L423.473 323.411L422.743 324.111L422.783 326.011L423.203 326.621L423.733 326.811L424.423 331.071L423.893 331.601L420.533 332.501L418.243 334.011L416.973 334.131Z"/>
<path d="M416.973 334.131L416.103 333.121L416.313 330.681L416.903 329.491L416.843 327.281L415.013 325.301L403.063 325.291L402.683 329.021L401.763 330.851L402.283 334.111L416.973 334.131ZM416.973 334.131L416.443 335.651L416.753 337.221L416.073 338.811L415.033 340.061L414.623 341.531L415.473 342.741L416.323 343.081L417.743 344.111L419.393 348.671V349.271L417.073 351.981L413.833 354.991L413.403 357.131L414.493 358.241L415.393 357.771L416.973 358.341L417.443 358.951L417.623 359.951L417.453 360.661L416.723 361.561L416.213 363.451L417.403 366.911L414.313 368.971L413.153 369.171L412.293 370.071L411.813 371.191L406.923 373.931L406.223 373.161L401.873 371.301L401.323 371.781L400.743 371.871L398.993 371.881L397.513 371.601L393.653 371.761L391.643 370.871L387.513 373.511L384.603 376.431H384.273L382.963 375.011L381.443 374.711L378.253 376.351L374.543 375.731L372.063 376.691L369.833 377.231L368.423 379.331L367.213 381.791L367.273 382.791L366.433 384.091L365.613 384.371L364.773 384.211L364.323 384.351L363.383 385.091L361.743 387.191L361.173 389.091L361.733 389.701L361.723 390.041L361.363 390.271L360.503 389.811L360.263 389.361L357.603 387.121L354.453 386.511L352.833 384.961L350.933 384.531L349.443 384.491L346.093 383.151L345.413 382.301L342.343 380.741L341.673 380.131L340.233 379.421L339.093 379.251L336.393 377.571L333.613 377.731L329.813 377.031L329.683 376.701L329.943 375.861L330.513 374.691L331.823 372.931L331.743 372.511L329.493 371.611L328.353 372.281L327.693 372.091L327.413 371.681L327.183 370.571L327.443 367.991L327.253 366.221L326.303 364.021L326.123 360.591L324.713 358.401L324.553 357.691L324.953 354.281L327.503 350.431L327.883 347.521L328.583 346.751L330.603 345.911L332.523 344.141L333.773 342.121L334.103 340.171L334.603 339.161L335.883 338.121L336.703 336.691L336.783 335.151L338.533 334.181L339.933 331.561L342.583 331.431L345.303 330.571L345.623 330.291L347.603 326.101L348.313 325.141L348.953 321.041L349.333 320.301L351.253 318.361L352.903 317.351L353.973 317.091L355.203 317.771L356.413 317.041L357.803 315.611L358.643 312.681L359.813 309.811L359.803 309.011L359.323 307.871L359.903 305.131L361.503 302.041L361.383 296.861L362.593 296.081L363.623 293.451L365.623 290.281L366.013 289.211L365.853 286.491L366.203 285.591L367.173 284.731L367.443 283.601L367.363 282.971L367.703 282.521L367.903 280.641L368.563 279.411L370.373 277.321L370.933 277.021L370.903 278.731L369.683 280.611L369.163 282.951L371.563 283.351L373.763 284.381L377.693 284.781L380.783 286.491L384.853 287.921L385.483 287.691L387.113 281.751L388.583 279.361L389.763 278.391L390.913 279.701L391.953 281.581L393.063 285.291L393.673 288.391L394.813 288.441L395.563 287.691L395.863 286.691L396.423 286.151L399.183 286.491L403.713 285.961L403.933 286.701L403.373 288.261L406.503 289.731L409.853 290.411L410.543 290.331L411.053 287.031L411.603 287.061L413.113 289.681L413.573 289.921L415.353 289.021L417.873 286.941L422.403 285.941H423.953L426.513 284.841L428.253 283.501L433.613 282.081L436.333 284.541L436.353 284.921L434.923 285.981L434.443 288.501L434.543 288.831L436.173 289.671L436.113 290.611L435.883 290.991L434.293 292.021L433.103 295.851L433.053 297.401L433.673 300.921L435.373 304.381L438.583 307.001L438.633 307.471L437.913 308.891L437.813 309.561L438.483 311.281L438.713 312.561L438.463 313.331L436.983 315.301L435.983 316.311L432.753 315.971L431.853 314.211L429.433 312.731L428.263 314.221L428.843 317.991L428.273 318.531L427.873 318.661L425.093 317.521L423.923 317.751L423.553 318.031L422.833 321.211L423.553 321.311L424.043 322.471L423.473 323.411L422.743 324.111L422.783 326.011L423.203 326.621L423.733 326.811L424.423 331.071L423.893 331.601L420.533 332.501L418.243 334.011L416.973 334.131Z" stroke="white" stroke-width="2.32896"/>
<path class="regiao-nordeste" d="M458.833 129.181L458.793 129.511L456.753 131.661L456.323 131.831L456.283 133.271L458.253 131.571L458.933 130.361L461.053 128.781L461.943 127.641L462.973 121.311L464.123 120.611L465.233 120.491L466.903 119.571L467.553 119.441L468.013 119.561L468.093 121.191L467.893 121.641L466.473 123.511L463.263 125.261L463.233 125.981L463.963 126.101L464.413 125.291L465.563 124.981L465.783 125.811L465.193 126.321L465.443 126.621L469.653 121.651L470.513 121.981L473.093 121.051L477.133 121.481L476.673 119.071L477.283 118.841L479.703 118.921L481.483 119.301L484.113 120.351L485.153 120.461L487.303 121.841L488.703 121.871L489.963 123.171L491.853 124.491L494.353 125.071L495.513 124.881L496.073 125.641L496.413 125.691L498.003 125.601L500.463 126.261L500.723 125.361L500.053 124.891L501.723 124.511L502.293 124.621L502.203 125.041L501.743 126.471L501.973 127.191L502.603 127.731L502.223 129.261L500.433 131.531L496.303 135.501L492.983 135.961L492.183 135.801L489.263 139.201L489.303 141.001L488.423 142.831L486.533 144.681L485.713 146.661L485.073 146.831L484.303 147.881L484.663 149.801L485.893 150.631L486.273 151.911L485.993 153.371L484.853 156.241L486.433 159.051L486.983 162.031L486.873 164.461L486.663 165.011L482.563 169.431L482.393 171.911L482.513 174.021L483.023 176.321L484.803 178.361L486.413 179.271L486.583 179.771L486.713 180.611L486.323 182.811L486.033 183.251L485.913 184.461L485.413 185.921L484.203 187.231L481.913 187.521L481.263 187.241L480.433 187.281L478.003 188.141L476.483 188.251L473.983 186.431L472.973 186.221L471.513 186.411L470.503 187.011L469.383 187.271L469.153 186.971L468.313 187.211L467.813 187.431L465.913 189.341L465.923 189.801L465.293 190.671L463.283 192.671L460.943 193.581L458.073 196.141L456.743 196.671L455.693 196.711L453.993 198.241L452.913 198.601L450.303 198.921L447.583 199.681L445.453 201.631L444.473 204.601L444.083 207.571L443.453 209.891L442.003 212.631L441.703 212.851L441.363 213.671L441.233 215.191L440.033 217.671L438.333 219.071L437.603 221.071L438.313 223.011L438.783 226.191L440.513 229.251L440.473 229.771L439.713 231.171L439.583 237.531L438.433 239.981L438.173 241.041L438.123 242.961L436.843 242.301L436.233 241.481L435.413 241.031L434.423 240.741L432.643 240.941L431.933 240.761L430.583 238.761L429.593 235.901L427.463 234.281L427.323 232.631L428.963 230.821L428.883 230.291L425.003 228.341L424.383 227.291L424.323 225.631L423.573 224.041L422.633 223.351L420.553 223.071L420.353 222.651L420.613 221.941L423.243 219.401L422.873 218.091L423.603 215.411L424.293 213.981L424.863 213.431L426.203 212.891L429.593 212.541L429.203 211.191L429.843 207.941L429.763 206.181L427.963 204.971L423.693 205.911L421.543 207.251L419.273 204.231L418.363 203.381L415.363 199.231L414.483 199.301L413.643 197.861L414.253 196.671L414.143 195.791L413.893 195.451L412.523 195.211L412.103 195.481L410.173 194.151L410.353 193.441L412.113 192.781L413.863 190.741L414.113 189.151L413.833 188.151L414.143 185.791L415.913 179.631L415.923 179.201L415.243 178.061L415.013 176.981L415.223 173.261L414.583 171.761L414.113 168.271L413.273 167.241L409.873 165.801L408.653 165.781L408.373 165.461L408.293 164.431L407.703 163.741L405.963 163.451L405.003 163.971L403.603 163.881L400.823 162.371L399.963 162.311L398.003 162.841L395.383 164.691L394.853 165.331L394.363 165.251L409.073 153.421L411.423 153.651L412.593 152.731L414.143 150.561L414.573 149.411L416.123 148.241L416.743 145.361L417.863 144.901L420.303 142.581L420.773 141.371L421.063 139.471L422.663 134.781L424.623 133.241L426.103 131.481L426.933 130.031L427.393 128.751L427.213 126.931L428.003 126.121L426.963 124.541L430.643 121.451L430.513 119.811L431.013 117.431L432.753 115.861L433.113 115.151L434.013 112.131L434.093 110.521L433.663 109.991L432.673 110.151L432.403 109.661L432.453 109.041L433.593 108.891L434.163 108.151L434.873 103.761L434.713 102.381L435.183 101.351L435.953 100.901H436.583L436.823 100.661L436.763 100.121L437.103 99.3711L437.683 98.8411L439.023 99.8211L439.473 101.661L440.663 101.781L441.433 100.421L442.043 103.351L443.033 103.391L443.323 102.901L443.393 101.961L444.243 101.921L445.933 102.451L446.433 103.141L445.003 104.841L445.673 105.541L445.693 106.091L446.903 104.051L447.393 102.511H447.843L448.243 103.531V104.111L447.373 105.031L447.103 106.021L447.183 108.731L447.443 109.061L447.913 109.181L448.493 109.041L449.453 108.111L448.983 107.111L449.123 106.511L450.443 105.081L451.493 104.831L453.623 105.421L455.123 104.311L455.173 105.231L454.813 105.441L453.683 106.971L454.273 107.551L454.373 107.181L455.623 106.581L456.203 107.371L456.063 108.581L457.693 110.331L458.553 109.891L460.133 110.561L460.903 112.961L460.793 113.911L458.603 116.641L458.223 117.531L458.323 118.191L458.923 117.161L460.673 115.481L461.503 115.451L462.373 116.261L462.893 118.151L462.623 119.381L461.653 119.571L460.623 120.481L459.463 121.971L459.533 122.741L458.373 125.091L457.753 128.611L457.963 128.951L458.833 129.181ZM459.353 129.631L459.293 128.841L459.823 127.311L459.413 126.241L459.543 125.581L460.453 124.341L461.003 124.151L461.053 126.501L460.833 127.841L460.033 128.441L459.353 129.631ZM453.053 103.871L452.613 103.411L452.533 102.811L453.333 101.691L454.173 101.661L454.853 102.081L454.953 102.421L454.763 102.781L453.053 103.871ZM456.553 108.051L456.263 107.751L456.323 107.221L457.383 106.331L457.863 106.401L458.363 107.251L458.223 107.861L457.823 107.691L456.553 108.051ZM442.393 103.241L442.183 103.191L443.133 99.6111L443.433 99.7011L443.463 99.9311L443.053 102.991L442.393 103.241Z" stroke="white" stroke-width="2.32896"/>
<path d="M527.763 365.591L526.853 365.041L524.313 364.231L522.733 364.311L521.653 364.631L520.813 365.241L518.633 365.531L517.293 365.401L518.963 367.671L518.943 368.481L517.813 368.371L516.763 367.631L516.453 367.651L514.283 368.961L513.113 370.891L513.413 371.591L514.743 372.261L515.263 372.921L515.233 374.841L514.933 376.381L515.143 376.791L516.453 377.141L516.623 378.861L516.303 379.281L515.353 379.521L514.383 379.491L513.583 379.141L512.103 379.231L511.673 379.781L512.163 380.491L512.923 380.771L513.373 380.481L513.893 380.571L514.993 381.841L516.263 384.651L516.553 387.081L516.013 390.051L514.303 392.141L513.063 393.001L512.803 393.441L512.563 395.161L511.683 397.451L510.573 398.721L509.603 401.961L509.053 402.281L503.903 402.251L502.183 404.311L502.023 404.731L502.613 407.851L502.043 409.151L501.603 411.491L501.893 411.631L499.363 413.981L498.123 414.251L497.563 414.751L498.303 415.451L495.943 421.501L494.043 425.211L493.953 425.961L495.393 426.091L495.683 426.701L495.473 427.221L492.943 428.201L483.433 432.731L482.063 432.931L482.083 432.471L481.593 432.301L479.063 432.031L478.493 432.091L476.873 433.031L475.623 433.191L472.423 433.271L472.063 432.951L471.553 433.031L467.453 434.811L466.403 435.581L464.693 436.351L464.193 436.071L461.603 436.241L458.693 437.581L456.273 438.321L455.593 438.811L454.343 439.541L452.143 439.761L450.213 440.781L448.983 442.021L447.193 442.691L444.813 442.941L442.473 442.861L442.463 442.371L442.813 441.881L442.723 441.531L441.533 441.861L441.353 444.161L441.593 444.391L441.543 445.231L440.793 446.211L439.493 446.531L438.923 446.101L435.313 447.101L435.123 446.571L433.113 446.811L431.993 446.561L429.963 443.251L431.183 442.541L430.663 440.831L428.863 440.001L427.073 438.771L426.363 437.161L426.893 435.601L427.083 432.151L426.823 429.211L428.683 426.491L429.383 424.311L429.433 423.041L429.203 422.671L425.503 421.351L424.503 421.401L424.223 421.761L423.443 422.071L421.833 422.121L421.863 421.271L421.033 419.281L419.733 417.491L419.363 415.281L419.053 414.661L418.263 413.921L418.453 411.981L419.973 409.951L420.033 409.391L419.633 407.841L417.753 406.631L417.173 406.021L417.463 403.651L418.033 402.641L417.833 401.601L414.563 398.251L413.263 398.541L412.413 399.181L410.763 398.401L408.383 398.511L408.073 399.121L408.273 399.581L407.833 400.571L405.053 401.251L403.943 400.821L402.433 399.371L401.423 400.621L393.243 401.301L392.783 401.781L392.303 402.971L392.573 405.511L392.163 405.951L390.973 405.431L390.963 402.651L390.713 401.691L390.353 401.301L389.793 401.251L389.533 401.441L389.123 402.571L388.453 403.511L387.913 403.831L387.293 403.811L386.083 401.711L385.753 400.291L385.893 399.381L384.213 398.591L382.033 397.171L380.043 397.761L378.423 397.541L376.753 397.891L372.463 396.931L369.913 396.851L368.183 395.301L367.433 395.161L365.933 395.771L364.503 397.461L362.583 397.831L360.433 398.941L359.213 400.071L359.523 397.451L358.933 394.241L359.923 390.061L360.503 389.811L361.363 390.271L361.723 390.041L361.733 389.701L361.173 389.091L361.743 387.191L363.383 385.091L364.323 384.351L364.773 384.211L365.613 384.371L366.433 384.091L367.273 382.791L367.213 381.791L368.423 379.331L369.833 377.231L372.063 376.691L374.543 375.731L378.253 376.351L381.443 374.711L382.963 375.011L384.273 376.431H384.603L387.513 373.511L391.643 370.871L393.653 371.761L397.513 371.601L398.993 371.881L400.743 371.871L401.323 371.781L401.873 371.301L406.223 373.161L406.923 373.931L411.813 371.191L412.293 370.071L413.153 369.171L414.313 368.971L417.403 366.911L416.213 363.451L416.723 361.561L417.453 360.661L417.623 359.951L417.443 358.951L416.973 358.341L415.393 357.771L414.493 358.241L413.403 357.131L413.833 354.991L417.073 351.981L419.393 349.271V348.671L417.743 344.111L416.323 343.081L415.473 342.741L414.623 341.531L415.033 340.061L416.073 338.811L416.753 337.221L416.443 335.651L416.973 334.131L418.243 334.011L420.533 332.501L423.893 331.601L424.423 331.071L423.733 326.811L423.203 326.621L422.783 326.011L422.743 324.111L423.473 323.411L424.043 322.471L423.553 321.311L422.833 321.211L423.553 318.031L423.923 317.751L425.093 317.521L427.873 318.661L428.273 318.531L428.843 317.991L428.263 314.221L429.433 312.731L431.853 314.211L432.753 315.971L435.983 316.311L436.983 315.301L437.493 317.711L436.063 321.151L436.463 321.381L437.803 320.471L438.503 319.471L439.223 319.341L441.353 319.721L442.393 318.951L444.243 316.381L445.233 316.531L446.663 316.001L448.473 314.451L449.423 313.281L451.443 312.871L454.813 311.011L455.453 309.901L459.723 306.871L463.543 305.291L465.343 305.381L466.543 305.881L468.723 305.911L471.003 306.441L471.853 306.901L470.563 309.641L470.413 310.531L470.673 312.021L471.283 312.521L476.613 313.981L477.253 313.811L478.063 312.691L479.943 311.801L481.713 311.541L484.443 312.291L485.543 312.831L489.893 316.471L490.873 316.291L493.043 317.911L495.573 319.131L496.503 319.351L497.013 319.141L498.543 320.381L502.933 319.151L503.313 319.331L509.833 325.531L510.273 329.491L510.843 329.281L513.453 329.731L514.923 329.231L516.243 328.241L518.233 328.391L520.963 328.951L523.223 330.031L525.413 330.641L527.533 330.611L530.363 333.081L531.093 333.461L531.983 333.531L532.763 334.551L533.183 335.721L531.713 338.801L526.753 343.021L526.603 345.671L527.163 346.691V347.111L526.143 347.821L523.663 347.581L522.843 348.461L522.023 351.761L521.493 356.161L521.713 356.411L522.063 356.221L522.263 355.771L522.903 355.531L523.483 356.761L523.263 358.271L523.413 358.781L527.553 361.841L528.083 362.881L528.093 363.411L527.413 364.761L527.763 365.591Z" stroke="white" stroke-width="2.32896"/>
<path d="M359.213 400.071L358.813 402.531L358.533 402.931L357.033 403.711L355.713 403.751L355.243 403.971L354.023 405.001L352.033 407.681L351.303 408.331L350.293 408.631L349.673 410.311L349.513 413.241L346.923 416.881L345.963 417.401L345.733 417.781L346.043 419.711L345.963 420.661L344.753 423.001L342.753 425.261L343.103 426.111L342.823 427.321L341.383 428.351L340.983 429.561L339.253 431.251L337.993 433.691L336.043 435.561L328.483 440.091L327.223 441.231L326.483 442.771L325.643 443.851L320.233 446.121L319.123 446.941L318.193 449.271L318.213 450.421L316.763 453.981L316.093 454.661L314.433 455.671L313.323 455.991L312.993 456.341L311.423 464.261L311.063 465.081L308.683 466.641L306.133 464.311L302.723 462.421L298.733 464.391L298.053 465.141L296.393 465.631L293.813 466.061L291.453 465.601L290.443 464.951L289.973 460.681L289.653 459.981L288.753 459.031L288.523 456.561L289.033 455.221L288.393 454.431L288.303 453.991V451.121L287.413 449.151L286.813 446.411L286.763 445.691L287.353 444.331L287.373 442.721L285.803 441.631L285.423 440.831L285.263 438.671L283.613 436.851L281.443 436.591L279.933 436.901L278.103 436.611L275.643 434.651L275.083 433.161L273.543 433.491L271.373 436.231L270.373 435.631L268.653 436.441L267.573 436.601L265.833 435.911L263.273 435.421L259.813 435.651L256.153 434.941L255.673 434.031L253.683 433.901L252.793 434.421L250.293 433.541L251.203 426.271L250.773 423.891L251.373 422.471L252.353 421.011L252.953 414.981L252.293 412.651L252.243 410.921L251.483 409.961L251.053 409.871L250.563 410.521L249.923 407.261L249.133 405.391L247.923 403.371L247.573 401.541L251.603 399.241L252.363 398.361L248.163 394.501L253.543 383.081L254.663 383.021L254.383 380.891L253.643 380.761L256.873 370.431L257.533 369.271L254.443 363.421L254.473 361.511L255.173 361.711L256.193 362.811L258.343 364.331L263.963 362.361L266.013 360.361L268.033 357.411L268.123 356.241L269.523 354.791L272.113 354.821L273.673 354.601L274.443 354.941L276.103 354.431L277.453 353.181L279.473 352.691L280.743 352.891L281.503 354.041L284.293 355.291L286.913 355.761L287.563 356.111L287.833 356.971L288.613 357.991L291.643 359.151L292.903 360.261L294.143 360.831L298.663 360.201L299.923 359.401L300.413 358.551L301.843 357.941L304.283 358.011L305.873 359.051L306.173 360.421L306.413 360.671L307.403 360.711L309.533 359.831L310.543 359.891L316.163 353.881L317.503 353.751L316.273 360.361L314.473 361.061L312.813 363.891L312.623 364.351L312.773 364.881L314.073 364.991L315.813 366.261L320.433 366.531L321.003 365.961L323.663 365.881L324.533 365.961L325.703 366.531L327.253 366.221L327.443 367.991L327.183 370.571L327.413 371.681L327.693 372.091L328.353 372.281L329.493 371.611L331.743 372.511L331.823 372.931L330.513 374.691L329.943 375.861L329.683 376.701L329.813 377.031L333.613 377.731L336.393 377.571L339.093 379.251L340.233 379.421L341.673 380.131L342.343 380.741L345.413 382.301L346.093 383.151L349.443 384.491L350.933 384.531L352.833 384.961L354.453 386.511L357.603 387.121L360.263 389.361L360.503 389.811L359.923 390.061L358.933 394.241L359.523 397.451L359.213 400.071Z" stroke="white" stroke-width="2.32896"/>
<path d="M207.223 296.311L208.693 294.881L212.803 292.311L213.323 289.861L214.753 286.081L215.683 285.001L217.323 284.471L217.753 284.061L218.333 283.221L218.853 280.971L220.513 278.961L221.073 276.721L221.143 275.011L220.563 273.521L220.603 271.471L219.073 268.131L218.173 268.161L217.593 267.651L217.163 264.401L217.303 263.081L218.663 262.001L220.063 260.251L220.233 259.501L218.823 255.911L217.753 255.481L216.643 255.371L213.143 255.461L211.923 254.351L212.163 253.791L195.003 253.741L195.903 244.741L194.403 241.991L194.133 240.231L194.163 239.431L195.163 235.911L194.783 233.981L195.723 232.311L194.893 230.041L194.743 228.651L194.483 228.041L193.703 227.571L193.643 227.221L194.933 222.231L195.693 220.811L195.093 219.571L193.693 218.601L241.543 218.281L242.753 217.551L243.933 212.331L245.313 208.111L244.853 206.171L244.193 204.801L244.093 203.951L244.513 203.101L245.373 202.461L246.573 200.641L246.843 199.631L246.503 198.791L246.563 198.031L246.763 197.421L247.943 196.221L249.113 197.301L251.563 201.361L251.963 203.121L253.333 207.081L254.653 209.011L255.423 210.631L255.193 213.071L255.673 215.471L256.403 217.671L257.933 218.781L260.933 221.531L264.313 223.231L264.543 224.171L264.503 225.271L264.733 225.761L265.683 226.161L266.503 225.991L268.133 226.441L268.673 227.161L268.873 228.241L269.223 228.561L270.593 228.111L274.283 229.601L308.323 232.021L371.293 235.501L370.643 236.521L370.083 238.411L368.983 239.661L368.543 242.801L368.113 243.651L367.743 243.921L365.803 249.211L365.263 252.181L365.223 255.131L363.343 261.121L363.403 261.981L364.793 263.321L364.633 264.191L363.813 265.081L363.763 265.581L364.863 267.831L364.393 271.141L364.403 272.711L364.923 273.291L365.363 276.341L364.623 279.101L365.603 282.441L366.563 282.951L367.363 282.971L367.443 283.601L367.173 284.731L366.203 285.591L365.853 286.491L366.013 289.211L365.623 290.281L363.623 293.451L362.593 296.081L361.383 296.861L361.503 302.041L359.903 305.131L359.323 307.871L359.803 309.011L359.813 309.811L358.643 312.681L357.803 315.611L356.413 317.041L355.203 317.771L353.973 317.091L352.903 317.351L351.253 318.361L349.333 320.301L348.953 321.041L348.313 325.141L347.603 326.101L345.623 330.291L345.303 330.571L342.583 331.431L339.933 331.561L338.533 334.181L336.783 335.151L336.703 336.691L335.883 338.121L334.603 339.161L334.103 340.171L333.773 342.121L332.523 344.141L330.603 345.911L328.583 346.751L327.883 347.521L327.503 350.431L324.953 354.281L324.553 357.691L324.713 358.401L326.123 360.591L326.303 364.021L327.253 366.221L325.703 366.531L324.533 365.961L323.663 365.881L321.003 365.961L320.433 366.531L315.813 366.261L314.073 364.991L312.773 364.881L312.623 364.351L312.813 363.891L314.473 361.061L316.273 360.361L317.503 353.751L316.163 353.881L310.543 359.891L309.533 359.831L307.403 360.711L306.413 360.671L306.173 360.421L305.873 359.051L304.283 358.011L301.843 357.941L300.413 358.551L299.923 359.401L298.663 360.201L294.143 360.831L292.903 360.261L291.643 359.151L288.613 357.991L287.833 356.971L287.563 356.111L286.913 355.761L284.293 355.291L281.503 354.041L280.743 352.891L279.473 352.691L277.453 353.181L276.103 354.431L274.443 354.941L273.673 354.601L272.113 354.821L269.523 354.791L268.123 356.241L268.033 357.411L266.013 360.361L263.963 362.361L258.343 364.331L256.193 362.811L255.173 361.711L254.473 361.511L253.813 360.841L253.493 360.041L254.033 359.331L251.593 357.181L250.313 357.811L249.793 357.761L248.623 357.081L248.173 356.381L246.153 354.971L244.263 354.211L243.963 353.891L243.663 352.771L243.433 349.841L242.823 348.071L242.633 344.411L243.513 342.771L244.653 341.681L244.993 339.901L244.943 338.011L243.983 338.071L243.583 338.671L243.203 338.831L216.343 337.751L215.293 325.101L209.923 318.971L214.803 318.911L214.453 311.361L211.813 306.041L211.323 304.071L211.583 303.011L212.193 302.461L212.843 301.181L211.403 298.251L208.293 297.211L207.223 296.311Z" stroke="white" stroke-width="2.32896"/>
<path d="M371.293 235.501L308.323 232.021L274.283 229.601L270.593 228.111L269.223 228.561L268.873 228.251L268.673 227.161L268.123 226.441L266.493 225.991L265.673 226.161L264.723 225.771L264.493 225.271L264.533 224.171L264.303 223.231L260.923 221.531L257.923 218.771L256.383 217.661L255.663 215.461L255.183 213.071L255.413 210.631L254.643 209.001L253.313 207.071L251.943 203.121L251.553 201.361L249.103 197.301L247.923 196.221L247.353 195.661L247.203 193.701L246.563 192.441L244.973 190.881L243.903 190.301L243.533 189.731L242.703 187.391L242.733 186.261L243.313 185.291L244.763 184.161L245.543 182.851L275.443 118.611L273.633 116.941L273.763 116.161L273.573 115.681L272.183 116.031L271.333 116.641L269.463 115.861L268.363 113.691L265.673 112.241L264.403 110.901L264.323 110.301L263.003 109.481L261.633 109.331L259.383 108.681L257.003 107.371L255.123 106.701L253.773 105.611L253.143 104.711L248.563 102.171L243.923 98.4011L243.623 97.9611L243.583 97.0311L243.033 95.2011L241.193 93.9711L240.493 94.1611L240.133 93.9611L238.303 91.9812L238.353 89.8712L238.703 89.1811L238.523 88.7711L236.833 87.9211L236.593 87.2411L236.413 84.9711L236.843 83.5211L236.443 78.6611L234.853 61.6911L235.603 62.0111L236.033 62.5911L236.013 63.0711L236.463 63.4711L237.383 63.7511L238.753 63.0411L239.223 62.2311L241.933 62.4611L242.743 61.4111L242.203 59.6011L243.993 59.2411L245.403 57.6111L248.043 58.6211L249.923 58.6511L250.463 57.1311L253.793 55.5111L255.763 55.9011L256.923 55.7911L257.413 55.5411L258.613 54.0611L259.013 52.6611L260.473 51.5611L261.333 51.4511L261.983 51.9111L264.093 50.7811L264.503 50.8911L264.873 51.8811L265.603 52.3311L267.633 52.8111L269.243 53.0611L269.803 52.4611L271.473 52.0711L272.253 52.3511L273.073 52.3411L273.933 52.0011L276.173 52.3011L280.843 53.6811L281.803 53.5411L282.803 52.6711L282.773 50.3911L280.703 47.8911L279.463 47.2611L279.953 45.5811L281.263 44.1311L281.543 43.0211L281.853 42.8511L282.563 43.0411L283.393 43.8011L285.743 44.9111L297.363 42.5811L298.933 44.2711L299.953 44.3311L300.393 44.0411L301.013 44.6111L301.383 46.9111L300.763 48.2111L300.513 52.7511L300.753 54.1911L301.063 54.7311L302.233 54.7511L303.313 54.4611L306.703 54.8311L307.993 55.3211L309.923 56.3711L310.593 57.1711L311.083 58.4511L312.273 58.5711L313.413 59.4111L314.213 60.3911L315.053 60.6611L316.383 60.5211L316.763 60.1011L317.703 59.9611L320.543 62.6211L321.223 62.5911L321.713 63.7711L321.033 64.0011L320.843 64.7211L321.603 67.5512L323.623 69.8111L326.193 70.5411L326.363 70.8712L325.933 74.0112L326.123 76.1212L326.793 77.6311L327.413 78.1912L328.003 80.0011L327.873 81.5812L329.373 85.0611L330.193 85.2511L330.973 84.8911L333.903 88.1711L333.823 90.6011L334.233 91.5411L335.183 91.7312L335.513 92.2011L335.823 93.7811L335.613 94.4711L335.723 95.7711L337.593 97.1611L338.023 98.6611L339.473 99.6912L342.263 100.371L343.563 100.251L344.333 99.9111L345.273 99.9711L344.743 100.711L345.033 102.301L344.863 102.831L343.573 103.941L342.183 104.111L341.683 103.931L340.843 103.141L340.183 102.991L336.803 104.571L336.433 105.111L334.833 105.831L334.203 105.811L332.653 106.401L332.693 106.981L339.153 105.921L340.033 106.581L340.163 107.041V107.701L339.543 108.201L339.843 108.561L340.473 108.361L341.333 107.361L342.353 107.351L342.883 107.081L343.483 107.201L344.553 106.781L345.693 106.211L348.973 103.871L350.473 103.521L352.313 102.711L355.473 100.871L356.013 99.8712L356.683 99.3511L358.773 98.3411L359.433 97.6212L359.183 96.9511L359.393 96.5411L360.523 96.2612L361.613 96.3211L362.023 96.5311L362.403 100.331L361.883 102.911L362.213 104.531L363.023 106.131L364.333 107.481L364.633 109.121L364.513 109.591L362.673 111.431L362.203 111.561L361.333 111.041L359.513 110.521L358.253 110.211L357.323 110.351L355.193 109.311L354.933 108.191L354.053 107.661L351.773 111.481L351.163 113.851L351.843 116.821L352.323 117.461L353.243 118.081L352.233 116.941L351.803 114.251L351.923 113.731L354.493 109.511L356.803 110.691L356.913 111.141L359.443 113.591L359.193 115.611L358.453 116.161L358.853 118.491L359.373 119.621L360.493 120.371L361.233 120.521L361.753 121.011L361.413 120.371L360.643 120.131L359.443 119.091L359.223 118.411L359.563 114.211L360.383 113.021L361.813 113.751L362.643 114.951L362.553 115.741L363.753 116.601L364.003 116.311L363.003 115.051L362.083 112.951V112.511L364.343 110.191L365.963 110.281L367.893 110.921L368.233 111.481L367.623 112.071L367.943 112.351L368.423 112.381L369.453 112.211L370.783 111.311L374.873 110.351L375.643 110.551L377.383 111.611L380.553 111.191L381.623 110.781L382.643 109.771L383.623 109.181L385.363 108.671L386.133 108.741L386.193 109.491L384.153 113.511L383.913 115.011L383.453 116.081L382.623 117.111L382.613 117.991L383.193 119.411L382.873 121.881L383.753 120.691L383.763 119.291L385.303 116.291L386.433 113.101L387.553 111.541L387.823 111.271L388.583 111.221L389.163 110.871L390.983 110.641L391.863 109.291L393.373 107.601L394.733 105.341L395.253 104.881L396.043 105.371L396.663 104.911L398.283 107.251L399.473 107.841L399.423 107.101L399.073 106.351L399.693 105.341L403.203 104.831L402.173 104.511L398.663 104.971L398.353 104.761L398.643 102.331L399.153 102.041L399.823 102.421L400.843 102.531L401.913 99.4311L401.233 98.0411L401.263 97.3611L402.433 95.5512L405.273 93.0711L405.633 92.9911L406.743 94.1311L409.673 92.0411L410.133 91.9711L410.533 92.4211L410.633 92.9911L410.313 93.6611L411.383 93.5011L412.193 92.9211L412.553 92.1411L413.183 91.9511L413.463 92.1011L414.203 93.4911L415.533 94.6912L415.733 94.1311L415.623 93.7511L414.663 93.2612L414.523 92.9711L414.393 91.7711L414.563 91.3511L415.003 91.1611L417.283 91.4211L418.463 92.0711L419.083 93.0911L420.713 93.8012L422.363 93.0211L422.893 95.1611L422.393 95.4711L422.363 96.0611L423.283 95.5411L424.443 93.1912L424.823 93.4211L424.593 94.7511L425.003 95.1912L427.513 94.9311L427.963 95.5812L428.423 97.2612L427.823 98.2111L428.673 97.7111L428.933 98.0812L430.823 98.2211L434.353 96.9812L434.043 98.5611L433.293 100.391L434.763 99.9011L435.353 99.2811L435.983 100.901L435.213 101.351L434.743 102.381L434.903 103.761L434.193 108.151L433.623 108.891L432.483 109.041L432.433 109.661L432.703 110.151L433.693 109.991L434.123 110.521L434.043 112.131L433.143 115.151L432.783 115.861L431.043 117.431L430.543 119.811L430.673 121.451L426.993 124.541L428.033 126.121L427.243 126.931L427.423 128.751L426.963 130.031L426.133 131.481L424.653 133.241L422.693 134.781L421.093 139.471L420.803 141.371L420.333 142.581L417.893 144.901L416.773 145.361L416.153 148.241L414.603 149.411L414.173 150.561L412.623 152.731L411.453 153.651L409.103 153.421L394.393 165.251L394.883 165.331L397.173 166.141L399.043 165.901L400.333 166.021L401.353 167.681L401.743 167.991L402.613 168.131L403.873 169.301L403.833 169.931L403.463 170.601L402.743 170.971L401.773 171.041L401.483 171.321L401.573 172.731L402.583 174.071L401.663 176.821L401.023 177.301L399.563 177.761L399.313 178.221L399.603 179.421L399.413 180.761L398.113 180.911L396.603 182.251L395.753 183.521L395.903 185.031L395.663 185.531L393.163 186.731L389.753 187.871L387.283 189.651L387.093 190.001L387.523 192.191L387.583 194.861L386.303 196.961L384.893 198.641L384.743 199.211L384.913 200.091L385.503 201.051L387.173 202.791L387.923 203.111L388.073 203.411L387.413 207.451L385.653 212.601L384.573 213.411L382.873 216.651L382.693 217.641L381.753 219.181L381.013 220.031L379.963 220.191L378.593 221.111L377.563 223.031L376.353 224.711L375.173 225.801L374.023 227.381L372.893 231.841L371.293 235.501ZM392.453 105.191L387.933 107.151L384.543 107.671L382.523 107.361L381.873 108.491L380.033 109.681L379.313 109.071L378.703 107.541L378.473 107.821L378.893 109.051L378.553 109.861L377.843 110.271L374.073 108.631L373.273 109.351L369.083 110.611L365.883 110.041L365.073 109.431L364.833 107.581L364.603 107.171L363.493 106.151L362.433 104.551L362.223 102.771L362.743 100.021L363.363 99.6411L365.123 100.001L366.053 99.2511L366.133 98.6912L364.833 99.1212L363.613 98.9911L362.673 98.2811L362.493 97.2312L362.833 92.1511L363.563 91.3911L363.913 92.1411L365.673 92.7411L366.223 92.6811L365.763 92.2612L364.493 92.0411L363.593 89.8811L363.953 88.2011L364.843 86.2312L366.173 84.9011L367.133 84.3312L368.473 83.8411L369.793 83.7111L373.253 84.2312L380.463 86.0011L384.163 85.5411L384.273 85.2411L385.413 84.6212L387.573 84.2511L390.463 84.5411L393.263 85.3611L399.743 86.2111L400.373 86.6811L400.323 87.9111L399.623 88.6511L398.943 90.1511L398.583 92.8012L397.723 96.1011L396.433 96.7811L396.083 97.4711L396.313 98.6611L394.333 101.241L392.943 104.741L392.453 105.191ZM345.243 105.021L344.493 104.511L345.593 102.261L345.503 100.471L345.753 100.261L348.083 99.7811L348.983 98.9211L349.133 98.4211L348.933 96.0812L349.793 93.5011L351.053 92.0112L353.343 90.5411L356.213 90.3411L356.933 92.7011L355.833 94.8911L354.983 97.9311L353.883 98.6011L352.543 100.631L351.763 101.351L346.823 104.661L345.243 105.021ZM373.723 82.1212L372.693 81.8712L370.243 81.9511L369.453 81.7911L369.163 81.5311L368.783 80.4412L368.793 79.2011L370.303 78.7811L372.193 78.8211L374.383 77.5311L379.193 76.9311L379.963 77.1912L380.643 77.8712L380.463 78.8911L377.903 80.2811L376.123 82.7612L375.023 83.2612L373.723 82.1212ZM378.513 82.1212L380.373 80.9211L382.353 80.9511L384.003 81.5711L384.533 82.5611L384.583 83.1811L383.703 83.9511L380.853 84.2312L379.683 84.5512L377.423 83.6611L377.223 83.1311L378.513 82.1212ZM361.533 86.5112L361.033 86.2511L360.423 86.2911L358.883 85.6011L359.093 84.4412L359.733 83.5211L361.653 83.1212L364.013 82.2211L365.333 82.3012L366.133 82.9812L366.223 83.1111L364.293 84.7211L363.223 85.0611L361.533 86.5112ZM370.953 76.8211L370.133 76.5211L369.963 74.8611L370.113 74.2612L371.283 72.9511L373.733 72.0311L373.983 72.1511L374.513 72.8312L374.553 73.7211L372.603 75.7111L370.953 76.8211ZM357.123 97.0411L356.983 96.6311L357.173 95.7011L358.213 92.8911L360.803 91.2011L361.523 90.9211L362.213 91.0611L362.053 92.8511L360.493 93.2911L358.873 95.4812L357.123 97.0411ZM368.033 79.4711L366.843 79.1611L366.543 78.6811L367.423 77.7211L368.133 73.7711L369.023 72.5411L369.313 72.6711L369.383 72.9911L369.363 75.4711L369.963 77.3411L369.643 78.2211L368.613 78.6212L368.033 79.4711ZM353.223 89.6611L352.953 89.4711L353.073 88.8611L353.623 88.5011L354.813 86.7911L355.573 85.2511L356.303 84.5911L357.753 84.0512L357.553 85.5411L357.153 86.5411L355.433 88.2011L353.223 89.6611ZM367.093 82.6311L366.493 82.4812L365.653 81.7711L364.693 80.1311L364.643 79.7511L364.873 79.4611L365.683 78.8811L367.533 79.7211L367.823 80.1511L368.063 82.2411L367.093 82.6311ZM361.713 113.191L361.063 113.081L360.183 112.561L359.493 113.021L358.743 112.741L357.063 111.001V110.391L358.343 110.381L361.403 111.701L361.713 113.191ZM340.563 107.651L340.603 106.621L340.403 106.321L341.003 105.331L343.363 104.451L344.143 104.831L345.013 105.691L344.723 106.041L343.693 106.511L341.153 106.921L340.563 107.651ZM353.263 100.961L353.083 100.931L353.093 100.581L353.633 99.6411L355.423 98.0211L355.843 96.7811L355.893 95.4812L356.133 95.1811L356.453 95.6212V97.1311L355.563 99.8611L354.943 100.511L353.263 100.961ZM359.563 91.0611L361.213 88.1011L362.093 87.8911L362.803 88.0812L363.073 88.9511L362.493 89.6611L359.563 91.0611ZM390.983 110.031L390.143 109.681L389.803 108.621L390.843 106.901L391.913 106.571L392.103 106.671L392.083 107.411L391.343 109.651L390.983 110.031ZM357.503 90.5611L356.963 90.3611L357.283 88.3211L358.613 86.5112L358.843 86.5512L360.133 87.4311L360.123 87.6811L358.573 88.3211L357.503 90.5611ZM359.733 95.5911L360.453 95.6212L360.053 96.0711L359.113 96.3811L359.003 97.5011L358.213 98.2111L356.523 99.0512L356.363 98.8712L356.633 98.0411L357.103 97.4111L358.833 95.7411L359.733 95.5911ZM337.173 105.801L336.623 105.611L336.553 105.261L336.983 104.861L340.543 103.261L341.083 103.961L341.073 104.161L339.673 104.891L337.173 105.801ZM400.703 101.021L399.673 100.831L398.853 100.041L399.723 98.7911L401.063 98.7811L401.253 99.9711L401.153 100.561L400.703 101.021ZM363.453 82.1212L361.093 82.8211L360.503 82.8312L360.323 82.6212L361.353 81.5812L362.393 81.0711L363.433 81.2411L363.873 81.5812L364.023 81.8111L363.873 82.0211L363.453 82.1212ZM358.183 90.7111L358.103 89.9511L358.353 89.4511L360.833 87.9911L359.933 89.9911L359.123 90.6212L358.183 90.7111ZM360.323 95.2411L359.873 95.1212L359.803 94.8911L360.583 93.3911L361.773 93.4111L361.653 94.7612L360.323 95.2411ZM388.363 111.071L388.083 110.841L388.983 109.241L389.663 108.841L389.893 109.591L390.403 109.961L390.143 110.481L389.713 110.821L389.083 110.641L388.363 111.071ZM361.703 87.7511L360.813 87.6811L360.833 87.4911L363.193 85.6511L363.233 86.6111L363.003 87.2411L362.753 87.5812L361.703 87.7511ZM429.163 97.9711L428.783 97.4412L428.973 96.6811L429.993 95.7711L430.243 95.9211L430.473 97.6711L429.163 97.9711Z" stroke="white" stroke-width="2.32896"/>
<path class="regiao-nordeste" d="M610.693 199.411L608.193 197.351L607.373 197.091L604.723 196.881L602.413 197.951L600.933 199.231L600.483 201.031L598.583 202.061L596.573 202.511L595.433 202.491V203.091L594.633 203.621L592.453 203.911L588.573 203.651L586.963 204.531L586.413 205.171L584.593 205.271L583.703 205.961L583.163 206.721L583.553 207.451L583.563 207.991L583.163 208.471L581.383 210.001L580.043 210.161L578.393 211.001L576.793 210.211L575.843 209.271L575.493 207.031L575.733 206.541L575.553 206.241L574.413 205.921L573.973 206.211L572.463 206.461L572.503 206.011L575.033 203.371L575.203 202.941L574.483 201.071L574.443 200.601L574.813 199.821L577.813 198.751L577.923 198.451L577.423 197.061L573.923 195.141L572.443 195.551L570.223 196.811L569.293 198.321L567.813 199.191L566.763 199.501L564.063 201.381L562.543 203.021L560.913 203.251L558.283 204.221L557.513 203.891L557.563 203.211L556.933 201.971L556.553 201.891L555.623 202.621L554.113 202.941L553.123 202.611L551.723 200.701L551.323 200.611L551.153 200.361L552.343 199.241L553.953 195.751L553.613 194.561L552.923 194.481L551.683 193.591L551.703 191.931L551.353 191.211L550.773 190.921L550.533 190.511L550.653 189.581L550.823 189.201L551.913 188.571L552.573 187.261L552.053 185.951L553.083 182.951L553.923 181.801L554.003 181.261L554.573 180.801L556.503 182.441L557.403 182.861L560.283 183.471L561.443 182.341L564.673 180.681L565.493 179.971L565.593 178.931L566.003 177.981L569.183 176.771L570.613 176.651L573.873 175.611L574.513 175.691L575.043 176.131L575.053 177.321L572.063 180.531L571.623 181.491L571.243 183.231L570.833 183.611L569.983 183.861L569.773 184.171L569.693 185.891L573.223 186.411L573.543 186.641L573.853 188.021L574.143 188.251L577.293 186.991L579.063 186.911L581.013 187.211L581.903 188.381L581.383 189.921L582.213 190.661L584.563 189.731L585.063 188.991L585.613 187.781L585.143 186.841L584.983 185.421L585.463 184.831L586.473 185.151L585.943 183.621L585.223 182.841L585.533 181.361L587.353 180.011L588.733 179.961L589.153 180.351L589.053 181.351L589.673 181.841L593.093 182.241L593.623 182.591L599.453 182.201L601.623 182.501L604.083 183.601L605.123 183.201L608.623 183.411L609.553 183.171L609.643 185.571L611.093 189.961L611.153 190.601L610.973 191.541L610.603 191.991L610.573 192.871L611.153 192.131L611.663 190.631L611.673 192.611L612.263 193.621L611.993 198.801L611.633 199.401L610.693 199.411Z" stroke="white" stroke-width="2.32896"/>
<path class="regiao-nordeste" d="M558.543 227.451L557.323 224.411L557.313 223.471L555.203 222.611L554.703 222.241L554.253 221.411L554.863 220.521L554.843 219.901L554.393 219.581L553.393 219.591L552.963 220.031L552.673 221.771L552.243 221.921L551.853 221.661L551.313 220.011L549.733 218.861L546.743 218.461L544.383 217.691L543.033 216.881L542.203 215.441L540.713 214.881L540.123 214.991L537.593 216.451L535.943 216.891L535.173 218.941L532.943 219.391L532.653 219.641L532.903 221.001L532.733 221.591L531.633 222.831L529.243 223.861L528.603 223.801L527.833 223.271L527.073 223.441L526.573 224.311L525.803 227.881L522.933 228.761L522.113 229.681L521.153 229.911L519.313 229.291L520.233 227.611L519.973 225.611L517.763 224.701L517.043 222.761L517.103 220.031L516.663 219.521L513.853 218.141L511.653 217.851L510.493 218.111L509.593 217.711L512.213 216.441L514.183 214.731L514.723 213.861L517.013 212.531L517.983 212.251L521.873 208.381L522.613 206.621L522.673 204.351L522.383 203.811L520.763 202.231L520.833 200.041L520.233 198.911L520.173 197.961L520.283 197.511L520.803 197.181L522.593 197.021L527.523 197.221L528.413 197.461L530.043 197.271L532.183 196.471L533.473 196.371L536.553 196.791L539.403 198.691L541.233 199.521L541.693 200.511L542.703 201.581L544.063 202.061L544.843 202.631L545.473 204.271L547.123 204.221L548.663 201.931L549.733 201.101L551.323 200.611L551.723 200.701L553.123 202.611L554.113 202.941L555.623 202.621L556.553 201.891L556.933 201.971L557.563 203.211L557.513 203.891L558.283 204.221L560.913 203.251L562.543 203.021L564.063 201.381L566.763 199.501L567.813 199.191L569.293 198.321L570.223 196.811L572.443 195.551L573.923 195.141L577.423 197.061L577.923 198.451L577.813 198.751L574.813 199.821L574.443 200.601L574.483 201.071L575.203 202.941L575.033 203.371L572.503 206.011L572.463 206.461L573.973 206.211L574.413 205.921L575.553 206.241L575.733 206.541L575.493 207.031L575.843 209.271L576.793 210.211L578.393 211.001L580.043 210.161L581.383 210.001L583.163 208.471L583.563 207.991L583.553 207.451L583.163 206.721L583.703 205.961L584.593 205.271L586.413 205.171L586.963 204.531L588.573 203.651L592.453 203.911L594.633 203.621L595.433 203.091V202.491L596.573 202.511L598.583 202.061L600.483 201.031L600.933 199.231L602.413 197.951L604.723 196.881L607.373 197.091L608.193 197.351L610.693 199.411L611.573 199.641L612.123 200.861L610.853 202.581L610.743 203.131L610.753 203.611L611.453 203.981L611.723 204.481L611.913 205.541L609.953 211.921L606.703 220.871L606.433 220.661L603.533 220.391L601.613 219.581L600.143 219.771L597.583 221.061L595.343 220.211L593.343 220.451L591.793 221.691L591.673 222.141L589.493 224.431L587.683 225.541L586.523 225.491L584.663 226.551L583.493 226.661L580.353 226.371L577.853 227.021L575.943 226.541L574.163 225.491L572.263 223.371L569.713 221.351L568.633 221.471L566.963 221.171L565.963 219.951L565.143 220.551L565.053 221.241L562.673 224.531L560.503 225.291L559.863 226.381L558.543 227.451Z" stroke="white" stroke-width="2.32896"/>
<path class="regiao-nordeste" d="M505.963 127.171L507.273 127.291L507.963 127.061L510.203 127.571L511.193 128.421L511.513 129.021L511.403 129.821L510.313 131.671L508.733 133.641L508.553 135.101L508.843 136.391L510.643 141.111L513.793 147.531L514.233 149.261L515.593 150.851L515.573 151.611L514.833 152.971L515.623 156.841L515.143 158.441L516.143 160.451L516.743 163.441L516.153 165.021L515.353 165.601L516.273 166.291L516.383 166.671L517.323 174.831L517.083 175.281L517.843 177.851L518.893 183.051L519.903 185.721L521.213 186.371L523.773 186.841L524.543 188.001L524.533 188.691L523.033 190.941L521.893 194.051L521.973 195.021L522.653 195.701L522.593 197.021L520.803 197.181L520.283 197.511L520.173 197.961L520.233 198.911L520.833 200.041L520.763 202.231L522.383 203.811L522.673 204.351L522.613 206.621L521.873 208.381L517.983 212.251L517.013 212.531L514.723 213.861L514.183 214.731L512.213 216.441L509.593 217.711L509.143 218.871L507.643 221.171L506.593 221.841L505.803 221.661L503.803 222.041L503.913 224.441L502.053 226.241L501.733 226.191L501.113 225.571L498.953 225.561L498.133 226.541L497.363 226.901L494.633 227.241L493.123 228.581L492.303 229.801L490.603 229.901L489.123 230.541L486.123 230.651L485.303 230.371L485.113 230.091L485.243 229.431L483.533 228.451L482.203 228.061L480.813 228.611L478.683 229.041L478.363 228.861L477.953 227.931L476.453 227.471L474.503 227.491L471.263 229.141L471.203 230.071L473.443 234.511L473.563 235.661L473.273 238.231L473.023 239.141L472.303 240.001L469.353 245.051L466.383 247.471L465.033 247.891L463.553 247.361L462.213 247.191L460.013 247.941L458.843 248.831L458.173 249.701L457.033 250.081L456.283 251.531L455.953 251.741L453.843 251.561L452.043 252.081L447.863 250.231L446.093 247.741L445.563 245.531L444.903 244.491L443.463 243.151L441.133 243.171L438.193 242.961L438.243 241.041L438.503 239.981L439.653 237.531L439.783 231.171L440.543 229.771L440.573 229.261L438.843 226.201L438.373 223.011L437.673 221.071L438.403 219.071L440.103 217.671L441.303 215.191L441.433 213.681L441.773 212.851L442.073 212.641L443.513 209.901L444.143 207.581L444.533 204.611L445.513 201.631L447.643 199.681L450.363 198.921L452.973 198.611L454.043 198.241L455.743 196.711L456.793 196.671L458.133 196.151L460.993 193.581L463.333 192.671L465.343 190.671L465.973 189.801V189.341L467.873 187.421L468.373 187.201L469.213 186.961L469.443 187.261L470.563 187.001L471.563 186.401L473.023 186.211L474.033 186.421L476.543 188.241L478.053 188.141L480.493 187.281L481.323 187.241L481.973 187.521L484.253 187.231L485.463 185.921L485.963 184.461L486.083 183.251L486.373 182.811L486.763 180.611L486.633 179.761L486.463 179.261L484.853 178.351L483.073 176.321L482.563 174.021L482.453 171.911L482.623 169.431L486.723 165.001L486.933 164.451L487.033 162.021L486.483 159.041L484.903 156.241L486.043 153.371L486.323 151.901L485.943 150.631L484.713 149.791L484.363 147.871L485.133 146.821L485.773 146.651L486.593 144.671L488.483 142.821L489.363 140.991L489.323 139.201L492.243 135.791L493.053 135.951L496.363 135.491L500.493 131.521L502.283 129.251L502.673 127.721L502.033 127.191L501.813 126.471L502.273 125.031L503.003 125.151L504.473 126.021L504.983 126.531L504.853 126.841L505.963 127.171Z" stroke="white" stroke-width="2.32896"/>
<path class="regiao-sul" d="M397.013 499.661L391.773 499.631L391.443 500.071L389.703 500.311L388.943 500.241L388.833 499.851L387.263 500.421L385.913 501.851L382.563 503.981L381.123 503.821L379.893 503.201L376.763 500.601L375.733 500.211L374.973 500.201L372.133 500.931L369.803 501.101L368.993 501.071L367.573 500.311L366.463 500.451L364.933 501.101L364.343 502.571L363.613 503.441L361.743 504.421L358.173 504.011L356.173 505.161L355.453 505.931L354.763 507.521L355.613 510.511L354.743 511.371L353.823 511.391L353.073 511.771L352.903 512.261L351.573 510.371L347.323 510.501L343.563 510.071L341.983 508.891L341.823 508.481L340.793 507.851L336.533 507.491L331.243 505.811L328.903 506.381L326.213 506.351L324.193 504.941L323.873 504.431L322.813 504.191L322.283 504.181L321.573 504.551L317.943 504.531L317.723 503.321L315.193 499.141L315.213 496.551L314.223 493.671L310.803 491.301L309.713 492.431L307.593 492.321L306.493 492.751L305.423 493.651L303.963 492.571L303.143 492.631L302.863 490.431L303.523 488.861L304.593 487.591L305.813 485.411L305.873 485.071L305.383 484.321L305.403 483.081L306.303 479.441L307.563 476.421L307.313 474.121L308.593 471.741L308.383 470.721L307.543 469.841L307.233 468.241L307.893 467.181L308.683 466.641L311.063 465.081L311.423 464.261L312.993 456.341L313.323 455.991L314.433 455.671L316.093 454.661L316.763 453.981L318.213 450.421L318.193 449.271L319.123 446.941L320.233 446.121L325.643 443.851L328.903 441.561L332.733 442.211L336.743 442.101L340.013 442.391L341.223 441.771L341.573 441.171L342.303 440.801L343.473 441.091L344.953 441.871L347.473 442.331L350.113 443.421L351.423 443.551L352.493 443.011L355.073 443.001L355.853 444.001L357.603 444.841L361.113 445.641L361.743 446.151L362.453 447.471L364.183 447.541L364.603 447.201L366.253 447.351L366.913 447.891L372.223 448.021L375.193 447.171L376.323 448.721L379.913 451.551L380.803 453.311L380.813 456.051L380.423 456.631L380.263 457.441L380.643 459.281L381.943 460.791L381.863 462.551L381.503 463.111L382.993 466.111L384.203 467.261L384.873 467.541L385.373 468.221L385.323 469.111L386.243 471.081L386.843 471.371L387.093 471.811L386.843 472.861L385.573 474.991L385.893 477.031L386.493 477.411L387.503 477.621L389.883 477.501L393.303 476.971L393.803 477.361L395.383 477.171L396.973 477.301L398.583 478.561L398.443 478.971L397.553 479.621L396.863 482.921L397.213 483.701L398.283 484.231L398.933 483.381L400.033 480.621L400.793 480.451L402.933 481.031L402.533 482.981L403.263 486.281L404.683 486.861L404.843 488.181L403.493 489.201L402.883 490.681L402.333 490.561L402.603 488.621L404.043 487.671L402.633 487.951L401.743 488.441L400.873 488.421L400.533 488.031L399.963 487.861L399.423 488.231L399.143 489.161L399.663 489.961L398.933 490.921L398.633 491.021L396.153 490.491L395.363 489.951L394.913 490.071L394.733 490.971L395.073 491.341L396.683 491.901L398.083 491.651L400.213 492.251L400.483 492.731L399.513 493.411L397.973 496.191L396.733 496.961L394.313 497.531L394.113 497.981L397.063 497.781L397.213 498.971L397.013 499.661Z" stroke="white" stroke-width="2.32896"/>
<path d="M468.613 450.541L468.543 449.761L468.923 449.491L472.113 449.711L474.703 449.121L472.173 447.571L470.773 447.071L467.963 447.751L466.603 449.351L465.573 449.671L464.873 449.621L463.523 447.471H463.043L462.143 447.891L461.183 448.951L458.033 449.751L457.693 450.661L457.503 452.561L459.693 452.691L460.763 453.701L459.613 454.781L458.673 454.611L457.253 454.781L456.773 454.521L455.143 452.791L455.093 452.381L456.183 448.881L457.273 447.731L459.623 446.721L460.123 446.871L462.893 446.511L464.393 445.801L466.043 443.651L465.293 442.011L463.593 442.001L460.443 442.531L458.673 442.141L457.443 440.551L456.883 439.381L455.613 438.841L456.293 438.351L458.713 437.611L461.623 436.271L464.203 436.101L464.703 436.371L466.423 435.601L467.473 434.831L471.563 433.041L472.083 432.971L472.443 433.281L475.643 433.211L476.893 433.041L478.523 432.101L479.093 432.041L481.623 432.311L482.113 432.481L482.093 432.951L483.473 432.751L492.983 428.221L495.513 427.231L495.723 426.711L495.443 426.101L494.003 425.971L494.093 425.221L495.983 421.511L498.343 415.471L497.613 414.761L498.173 414.271L499.413 414.001L501.943 411.641L503.873 412.401L504.543 417.111L507.043 418.241L511.373 419.251L514.363 418.881L515.983 419.941L515.903 421.211L514.963 422.821L514.743 424.951L515.883 431.731L515.383 432.411L512.303 434.161L506.333 436.101L503.503 437.821L500.003 441.511L499.893 443.171L500.203 444.361L500.013 445.981L499.283 447.461L497.463 447.971L490.913 447.801L485.123 448.501L482.733 448.041L482.243 447.661L482.183 446.981L483.213 445.501L483.883 444.051L483.793 443.431L483.013 443.251L480.223 444.401L479.963 445.091L480.273 445.881L481.653 447.051L481.903 448.021L481.313 448.541L479.683 449.051L478.113 449.021L470.073 450.091L468.613 450.541ZM463.503 452.531L462.833 451.561L464.943 450.011L466.803 450.951L467.233 451.651L464.773 452.151L464.363 451.801H463.893L463.503 452.531Z" stroke="white" stroke-width="2.32896"/>
<path class="regiao-nordeste" d="M609.553 183.171L608.623 183.411L605.123 183.201L604.083 183.601L601.623 182.501L599.453 182.201L593.623 182.591L593.093 182.241L589.673 181.841L589.053 181.351L589.153 180.351L588.733 179.961L587.353 180.011L585.533 181.361L585.223 182.841L585.943 183.621L586.473 185.151L585.463 184.831L584.983 185.421L585.143 186.841L585.613 187.781L585.063 188.991L584.563 189.731L582.213 190.661L581.383 189.921L581.903 188.381L581.013 187.211L579.063 186.911L577.293 186.991L574.143 188.251L573.853 188.021L573.543 186.641L573.223 186.411L569.693 185.891L569.773 184.171L569.983 183.861L570.833 183.611L571.243 183.231L571.623 181.491L572.063 180.531L575.053 177.321L575.043 176.131L574.513 175.691L573.873 175.611L570.613 176.651L569.183 176.771L566.003 177.981L565.593 178.931L565.493 179.971L564.673 180.681L561.443 182.341L560.283 183.471L557.403 182.861L556.503 182.441L554.573 180.801L554.003 181.261L553.343 181.641L552.703 181.471L553.043 179.501L554.453 177.251L555.293 176.371L555.803 176.301L556.583 176.811L557.613 176.551L558.183 175.451L559.643 173.941L561.043 171.501L560.893 170.761L561.543 169.091L562.413 168.521L563.253 167.401L566.553 160.711L569.163 158.701L574.053 157.111L574.523 157.871L575.383 158.621L578.513 158.611L579.733 159.021L581.423 160.771L582.743 161.271L586.073 160.951L588.953 161.471L591.493 161.231L593.823 160.501L598.323 161.421L599.593 161.461L601.543 162.321L602.563 163.141L603.203 164.081L605.513 168.821L606.013 170.611L605.973 171.361L607.453 176.741L607.663 178.421L608.383 178.961L609.343 181.651L609.553 183.171Z" stroke="white" stroke-width="2.32896"/>
<path d="M187.583 291.211L186.293 289.761L185.853 287.881L184.293 287.361L183.433 287.681L181.623 287.761L177.553 285.951L177.543 285.551L176.883 284.941L175.613 285.531L173.633 283.851L172.113 282.881L171.253 281.421L170.973 280.031L169.933 279.641L168.163 280.761L166.943 280.731L165.533 279.931L164.663 278.601L161.533 277.021L159.573 276.851L158.433 277.391L157.533 278.241L156.103 278.071L155.793 277.771L153.653 277.261L150.593 276.981L149.833 276.551L148.653 275.361L148.353 273.391L146.773 272.901L144.883 271.931L144.063 270.211L143.773 270.011L141.053 269.731L140.673 269.381L139.833 265.671L138.953 264.781L138.473 265.941L137.813 265.621L137.543 264.981L138.163 263.451L137.323 261.931L135.963 261.541L134.703 258.071L134.533 256.411L136.083 253.501L135.873 251.841L134.713 249.871L133.963 247.711L133.903 245.421L134.523 244.921L134.903 243.551L135.943 242.501L136.303 241.031L136.063 239.541L135.643 238.651L135.553 237.121L136.093 235.471L134.923 233.291L133.903 232.911L132.813 233.891L132.753 234.401L131.913 235.361H131.343L129.163 234.341L123.983 234.421L118.373 236.201L116.683 236.191L115.203 236.671L112.233 235.411L115.493 232.851L117.413 232.271L118.963 230.461L119.113 229.901L118.953 228.611L122.913 228.871L125.783 228.541L126.503 228.911L128.813 231.241L129.183 231.221L130.403 230.431L130.533 229.711L130.943 229.181L132.023 228.681L132.793 228.811L134.163 228.421L135.463 227.211L137.303 226.191L137.683 226.281L138.323 228.541L139.003 229.071L139.683 228.991L142.223 225.831L141.963 224.081L142.493 223.241L144.243 221.981L144.703 222.001L145.543 222.551L147.333 222.651L148.533 221.581L150.663 221.201L154.533 221.661L154.293 220.201L154.403 218.391L156.463 217.181L157.273 216.031L157.633 215.011L157.463 214.561L156.563 213.861L156.613 213.191L157.803 211.601L160.283 211.071L160.543 210.851L160.453 209.681L162.173 209.181L163.553 206.621L174.343 206.561L176.493 207.691L176.943 208.181L177.743 210.091L179.073 211.361L181.613 212.341L182.863 215.611L183.323 215.821L184.303 215.691L184.923 215.891L185.603 218.771L188.843 220.251L189.523 220.061L190.063 218.321L191.983 217.241L193.373 217.521L193.733 217.901L193.693 218.601L195.093 219.571L195.693 220.811L194.933 222.231L193.643 227.221L193.703 227.571L194.483 228.041L194.743 228.651L194.893 230.041L195.723 232.311L194.783 233.981L195.163 235.911L194.163 239.431L194.133 240.231L194.403 241.991L195.903 244.741L195.003 253.741L212.163 253.791L211.923 254.351L213.143 255.461L216.643 255.371L217.753 255.481L218.823 255.911L220.233 259.501L220.063 260.251L218.663 262.001L217.303 263.081L217.163 264.401L217.593 267.651L218.173 268.161L219.073 268.131L220.603 271.471L220.563 273.521L221.143 275.011L221.073 276.721L220.513 278.961L218.853 280.971L218.333 283.221L217.753 284.061L217.323 284.471L215.683 285.001L214.753 286.081L213.323 289.861L212.803 292.311L208.693 294.881L207.223 296.311L206.483 296.271L203.893 294.721L202.623 293.291L195.543 294.251L194.223 293.821L193.973 293.521L190.593 294.181L190.113 294.021L189.593 292.671L187.583 291.211Z" stroke="white" stroke-width="2.32896"/>
<path d="M234.873 61.6611L236.473 78.6311L217.983 78.5611L218.013 79.2411L215.683 82.5011L214.023 85.5311L213.953 86.6611L212.803 89.3011L212.693 89.9611L212.923 90.6911L214.063 92.1011L214.043 92.6311L213.623 93.0211L211.593 93.5711L210.183 94.9811L208.933 95.4411L207.113 95.2111L206.193 92.7011L204.323 90.6611L201.493 89.7311L199.893 89.7911L199.343 90.6811L197.253 91.3911L195.973 92.0811L194.953 93.3411L194.133 96.3111L194.503 98.1111L194.253 99.8411L193.503 102.131L193.943 104.241L191.583 103.201L190.243 103.621L189.713 103.551L188.673 101.511L187.193 99.8611L185.233 98.5511L184.713 98.5111L179.703 94.0911L179.843 92.9511L181.683 93.2811L182.823 91.9611L182.883 91.3811L181.753 87.0511L181.173 86.1511L179.953 85.3111L179.073 83.1411L178.783 78.1611L179.353 77.2011L180.123 74.1611L179.463 72.5811L179.103 70.9911L180.723 69.5311L180.673 69.0811L179.803 67.9611L179.613 65.7011L177.953 60.9411L175.223 57.2011L175.933 55.7011L176.843 52.3811L176.353 51.7211L174.403 50.7711L173.043 50.6611L172.163 50.8711L171.193 50.5011L169.983 49.3311L169.923 48.3711L169.293 48.2611L168.163 48.6811L167.553 48.6711L166.803 48.3311L166.083 47.5511L166.383 47.0911L166.613 44.8111L166.313 44.5911L162.943 44.3611L159.193 44.5011L155.883 43.8011L155.683 43.2011L156.483 41.4411L156.603 39.9611L155.873 38.1911L153.933 34.6511L153.203 32.5911L152.733 28.8711L153.523 27.3911L153.443 26.4311L151.603 24.4311L149.443 23.3711L146.633 20.5911L145.573 18.7811L145.283 17.8211L144.143 17.1711L143.893 16.7811L143.923 15.9411L144.213 15.6111L145.113 15.6811L146.233 16.3411L147.173 18.0711L147.783 18.1611L151.173 17.6611L152.523 17.7611L154.433 18.3511L155.043 19.5511L155.593 21.4811L156.133 21.8311L157.093 21.7511L157.833 21.1011L158.783 20.7011L161.963 20.8611L162.433 20.9111L163.743 22.1211L164.343 22.2711L164.863 22.1311L165.473 20.5711L166.783 20.7111L168.233 21.6411L172.163 26.2111L173.213 26.7811L173.923 26.8911L175.433 26.2111L176.173 25.0811L176.273 24.2411L175.443 21.4811L175.803 19.7411L176.263 19.4611L178.193 19.4111L179.203 18.3111L180.753 17.2211L181.503 17.2711L185.403 18.6111L185.993 18.4411L186.793 17.7211L187.823 17.4211L188.953 17.7711L189.983 17.5611L191.323 16.2811L192.323 16.0311L193.473 16.2611L194.583 16.1911L195.263 15.3411L195.313 13.9911L198.343 12.1811L200.673 12.3711L203.433 11.9811L204.323 10.8511L204.413 10.1411L205.003 9.02114L205.753 8.89114L207.603 7.99114L208.703 6.95114L209.813 5.24114L208.613 1.68114L207.443 1.32114L208.083 1.14114L209.513 1.21114L210.313 1.53114L213.883 1.43114L214.943 0.481145L215.683 0.261145L217.053 0.681145L217.583 1.99114L218.623 2.79114L219.103 4.16114L218.433 9.06114L217.713 10.4411L216.463 11.1411L216.523 11.9711L218.133 12.3811L219.753 12.1611L222.103 12.9711L223.923 14.0711L223.043 15.5011L223.033 16.6511L225.373 20.0711L225.573 21.6211L224.063 24.5411L222.183 25.9511L221.463 27.4511L221.733 27.8411L221.793 30.0111L220.323 32.4211L219.423 35.1911L219.113 37.7611L219.023 40.4311L220.003 42.3011L220.513 44.0611L220.503 45.4611L222.073 46.4911L222.973 46.6911L223.103 47.3711L222.643 52.5211L222.763 53.2611L224.573 53.5511L223.913 54.7211L224.373 55.2211L226.523 55.9611L227.983 57.8811L230.643 60.6211L234.873 61.6611Z" stroke="white" stroke-width="2.32896"/>
<path class="regiao-sul" d="M322.253 638.781L321.893 638.791L319.953 637.681L319.753 637.221L320.273 632.951L319.813 628.701L319.963 627.631L320.593 626.391L323.433 624.011L324.263 622.451L326.563 619.891L325.103 618.241L324.033 617.621L321.783 617.021L319.463 614.771L318.253 613.151L318.153 611.561L317.723 610.381L316.493 608.351L314.433 606.111L313.763 605.521L311.373 604.311L309.923 604.521L308.023 603.011L306.503 601.381L305.253 600.601L305.113 598.901L303.213 596.741L299.893 596.281L298.973 595.811L297.243 594.151L295.483 594.281L293.313 592.901L291.403 589.191L290.293 587.701L287.763 585.581L287.063 585.661L286.393 587.451L283.803 589.691L281.133 589.811L281.233 586.951L281.633 585.671L281.243 584.671L277.593 580.381L275.223 578.611L273.043 576.551L271.293 574.441L268.603 572.231L266.703 572.091L264.553 572.301L263.413 573.661L263.353 574.621L262.323 575.591L261.213 575.611L260.633 575.131L257.473 575.271L256.823 574.791L256.663 573.881L256.173 573.661L257.023 573.441L258.063 572.721L260.583 569.951L260.693 568.111L261.293 566.861L262.113 566.411L263.403 566.341L264.043 566.081L264.963 565.081L270.413 558.601L271.043 557.181L271.213 556.071L272.033 555.001L273.233 554.151L274.603 553.741L276.563 549.521L276.663 548.911L276.973 548.541L278.613 547.681L280.243 545.881L281.093 544.731L281.603 543.441L282.943 541.341L283.873 541.051L285.443 541.231L285.993 542.021L286.463 540.741L286.253 540.161L284.903 539.341L284.853 538.981L285.203 538.651L286.283 538.271L287.103 537.311L289.893 536.361L290.943 535.291L291.043 534.371L291.863 533.461L294.073 532.311L296.543 531.911L298.313 530.101L298.463 529.041L299.783 526.681L300.113 526.641L300.163 527.001L300.453 527.201L301.783 527.031L304.223 525.901L306.903 525.311L308.113 524.741L310.213 522.391L310.713 522.401L311.383 522.011L312.393 520.661L314.703 519.931L315.003 520.311L318.523 520.701L321.783 519.551L322.343 518.741L323.693 519.321L323.543 520.241L326.623 520.211L328.253 521.201L330.813 520.831L332.733 521.981L335.313 521.571L336.853 521.751L339.653 521.591L341.913 522.511L344.393 523.911L345.393 526.351L346.983 526.541L347.073 526.061L348.883 525.711L354.443 529.251L355.813 530.801L356.523 530.771L358.083 531.751L361.113 535.241L362.753 537.451L363.233 538.931L365.403 541.591L366.573 542.141L373.263 543.201L375.373 542.801L378.723 543.141L379.603 545.481L377.523 547.061L376.253 547.471L375.523 549.331L375.743 551.521L375.363 553.081L374.843 554.381L373.663 554.581L372.373 556.271L372.343 557.681L374.143 558.851L374.413 558.651L374.133 557.681L374.143 556.721L375.633 555.901L377.213 556.541L377.943 557.451L379.113 558.301L379.563 558.271L378.163 560.001L374.263 567.041L370.053 578.641L363.753 589.121L358.313 595.781L351.803 601.741L345.713 605.421L342.613 609.731L342.433 609.301L343.083 607.721L343.423 605.541L342.243 603.831L342.343 603.411L343.273 603.241L344.283 603.641L344.843 604.221L345.863 604.261L348.443 602.851L349.263 602.171L352.113 598.461L352.863 597.771L353.313 597.961L354.333 597.771L355.383 596.931L356.313 595.661L356.683 594.181L356.863 593.251L356.633 591.151L356.833 589.781L358.403 589.711L359.143 590.011L359.413 590.841L359.763 590.581L359.473 589.181L359.983 587.111L360.463 586.541L363.203 584.951L363.933 583.871L364.403 581.121L364.193 578.841L364.753 578.161L365.253 578.961L365.623 578.991L366.053 578.571L366.523 575.491L366.423 575.051L365.473 573.831L364.803 573.801L364.543 574.491L364.713 574.881L364.573 575.451L364.223 575.651L362.713 575.631L360.703 576.031L360.363 577.641L359.833 577.691L359.023 577.251L359.123 575.541L358.303 574.651L357.263 574.981L356.663 574.501L355.933 573.241L355.533 571.791L355.653 571.221L355.013 570.531L354.403 573.241L354.843 575.491L356.093 577.601L355.523 578.411L354.783 580.951L355.163 583.981L354.983 584.751L354.503 584.381L354.763 584.141L354.733 583.431L354.263 582.151L353.813 581.761L353.283 582.421L353.253 583.791L351.843 587.061L351.793 588.951L352.013 589.471L351.293 590.171L349.683 590.811L349.073 592.391L344.983 593.961L344.263 594.491L343.733 596.081L343.633 598.351L342.663 600.621L340.303 601.921L340.193 603.681L340.673 604.511L340.923 605.531L339.973 606.091L339.723 607.601L340.153 608.201L340.833 608.061L342.133 608.691L342.283 609.601L340.153 611.251L337.833 615.771L335.903 622.651L333.893 627.141L332.213 629.661L324.423 637.191L322.253 638.781Z" stroke="white" stroke-width="2.32896"/>
<path class="regiao-sul" d="M379.563 558.271L379.113 558.301L377.943 557.451L377.213 556.531L375.623 555.901L374.143 556.721L374.133 557.681L374.413 558.651L374.143 558.851L372.343 557.681L372.383 556.271L373.663 554.581L374.843 554.381L375.373 553.071L375.743 551.521L375.523 549.331L376.253 547.471L377.523 547.051L379.603 545.471L378.723 543.131L375.373 542.791L373.263 543.191L366.573 542.131L365.413 541.591L363.243 538.931L362.753 537.451L361.123 535.241L358.093 531.751L356.523 530.761L355.813 530.791L354.443 529.241L348.883 525.701L347.073 526.041L346.983 526.521L345.383 526.331L344.383 523.891L341.913 522.501L339.643 521.571L336.853 521.731L335.313 521.551L332.723 521.961L330.813 520.811L328.243 521.171L326.613 520.191L323.533 520.221L323.683 519.291L322.333 518.711L321.773 519.521L318.513 520.681L314.993 520.291L316.443 517.361L317.173 515.271L316.593 512.021L317.003 508.811L316.963 506.261L317.923 504.511L321.553 504.531L322.263 504.151L322.793 504.161L323.853 504.401L324.163 504.911L326.193 506.321L328.873 506.351L331.213 505.771L336.503 507.451L340.763 507.811L341.783 508.441L341.953 508.851L343.523 510.031L347.293 510.451L351.543 510.321L352.873 512.221L353.053 511.721L353.793 511.341L354.713 511.321L355.583 510.461L354.733 507.471L355.423 505.891L356.143 505.111L358.143 503.971L361.713 504.371L363.583 503.401L364.313 502.531L364.903 501.051L366.433 500.401L367.543 500.261L368.963 501.021L369.773 501.051L372.103 500.881L374.943 500.151L375.693 500.161L376.733 500.561L379.853 503.161L381.083 503.781L382.523 503.941L385.873 501.811L387.223 500.381L388.783 499.811L388.903 500.201L389.663 500.271L391.403 500.041L391.733 499.601L396.973 499.631L396.583 500.951L397.093 502.601L397.023 502.991L395.523 504.131L394.543 503.651L393.723 501.121L393.703 502.241L394.293 504.961L396.003 506.621L396.563 507.571L395.553 509.861L395.393 512.181L395.493 512.611L396.253 513.341L396.513 519.201L396.823 519.751L397.253 519.951L398.023 519.441L398.373 520.161L398.473 521.031L398.003 521.091L397.573 520.811L396.383 521.441L396.043 525.281L396.613 527.871L396.043 528.621L396.353 530.551L397.263 532.431L396.403 534.771L395.883 538.781L394.173 543.461L393.833 543.361L393.473 542.601L393.683 541.631L392.763 540.451L392.503 540.781L392.683 543.211L393.843 544.041L392.923 545.701L391.283 546.351L387.153 549.391L384.353 551.951L380.603 556.391L379.563 558.271ZM397.443 531.721L397.293 531.251L397.543 529.501L398.303 527.101L397.903 525.921L398.063 524.901L399.463 524.141L399.683 524.201L400.343 525.141L399.803 527.701L398.983 528.561L398.393 529.781L398.593 530.951L397.443 531.721ZM396.993 507.351L395.123 505.331L397.673 502.891L397.923 502.931L398.573 503.981L397.713 505.301L396.993 507.351Z" stroke="white" stroke-width="2.32896"/>
<path class="regiao-nordeste" d="M570.203 261.951L567.303 262.841L565.753 262.201L565.213 261.861L564.733 261.141L562.813 260.221L562.213 259.701L562.093 259.291L562.433 258.901L562.563 257.481L562.413 257.091L560.983 255.581L560.463 254.091L559.373 253.421L558.413 251.821L558.393 251.051L558.983 249.471L559.303 249.171L561.003 249.181L562.133 249.931L564.683 248.941L565.373 248.391L565.673 247.811L564.913 245.061L564.993 244.181L565.653 242.561L565.733 239.451L564.983 238.301L562.993 236.351L561.723 233.851L561.503 231.711L562.173 230.561L568.633 233.541L572.313 234.491L577.733 237.561L579.033 240.011L580.793 241.461L582.453 242.251L582.913 242.281L586.503 244.511L587.103 245.821L584.723 246.581L580.153 249.521L579.183 250.411L577.633 252.621L577.313 252.601L577.423 251.501L576.373 249.681L575.383 249.841L575.723 251.001H576.963L577.193 251.241L576.673 253.211L575.403 255.301L574.873 254.951L574.503 254.281L573.513 254.121L573.713 254.801L574.843 255.421L574.583 257.191L573.723 258.341L572.793 260.371L572.013 260.521L571.713 260.061L572.193 258.661L572.603 258.531L572.913 258.101L573.283 257.061L572.473 256.691L572.573 257.371L572.123 258.501L571.643 259.001L571.383 260.091L571.663 260.811L571.403 261.331L570.203 261.951Z" stroke="white" stroke-width="2.32896"/>
<path d="M404.843 488.181L404.683 486.851L403.263 486.281L402.533 482.981L402.933 481.031L400.793 480.451L400.033 480.621L398.933 483.391L398.273 484.241L397.213 483.711L396.863 482.931L397.553 479.631L398.443 478.971L398.583 478.571L396.973 477.301L395.383 477.171L393.803 477.361L393.303 476.981L389.893 477.511L387.513 477.631L386.503 477.421L385.903 477.031L385.573 474.991L386.853 472.871L387.103 471.821L386.853 471.381L386.253 471.081L385.333 469.111L385.393 468.221L384.893 467.541L384.223 467.251L383.013 466.111L381.523 463.101L381.883 462.551L381.963 460.791L380.663 459.271L380.283 457.431L380.453 456.621L380.843 456.041L380.823 453.301L379.933 451.541L376.343 448.711L375.213 447.161L372.243 448.021L366.933 447.891L366.273 447.351L364.623 447.211L364.203 447.551L362.483 447.481L361.763 446.161L361.133 445.651L357.623 444.851L355.873 444.011L355.093 443.011L352.513 443.021L351.443 443.561L350.123 443.431L347.483 442.341L344.953 441.881L343.473 441.091L342.303 440.801L341.573 441.171L341.233 441.771L340.023 442.391L336.743 442.101L332.733 442.211L328.903 441.561L325.653 443.851L326.493 442.771L327.223 441.231L328.483 440.091L336.043 435.551L337.993 433.681L339.253 431.251L340.983 429.561L341.383 428.351L342.823 427.321L343.103 426.101L342.753 425.261L344.753 423.001L345.963 420.661L346.033 419.721L345.723 417.791L345.953 417.401L346.913 416.881L349.513 413.241L349.673 410.311L350.293 408.631L351.303 408.331L352.033 407.691L354.023 405.011L355.243 403.991L355.713 403.761L357.023 403.721L358.523 402.941L358.803 402.541L359.203 400.081L360.423 398.951L362.573 397.841L364.493 397.471L365.923 395.781L367.423 395.171L368.173 395.311L369.903 396.861L372.453 396.941L376.743 397.901L378.413 397.541L380.033 397.761L382.033 397.171L384.213 398.591L385.883 399.381L385.753 400.301L386.083 401.721L387.293 403.811L387.923 403.841L388.463 403.521L389.133 402.581L389.543 401.451L389.803 401.261L390.353 401.311L390.713 401.701L390.963 402.661L390.973 405.441L392.173 405.971L392.583 405.521L392.313 402.981L392.803 401.791L393.253 401.311L401.433 400.641L402.443 399.391L403.943 400.851L405.063 401.281L407.843 400.591L408.283 399.601L408.083 399.141L408.393 398.531L410.773 398.421L412.433 399.201L413.283 398.561L414.593 398.271L417.853 401.621L418.053 402.661L417.483 403.671L417.193 406.041L417.773 406.651L419.663 407.861L420.063 409.411L420.003 409.971L418.483 412.001L418.303 413.941L419.093 414.681L419.403 415.291L419.773 417.501L421.073 419.301L421.903 421.291L421.873 422.141L423.483 422.091L424.263 421.781L424.543 421.421L425.543 421.371L429.243 422.691L429.473 423.061L429.423 424.331L428.723 426.511L426.863 429.231L427.123 432.171L426.933 435.621L426.403 437.181L427.123 438.781L428.903 440.021L430.713 440.851L431.223 442.571L430.013 443.271L432.033 446.581L433.163 446.831L435.173 446.591L435.353 447.121L438.973 446.121L439.533 446.541L440.843 446.221L441.593 445.241L441.643 444.401L441.403 444.161L441.573 441.861L442.763 441.531L442.853 441.881L442.503 442.371L442.513 442.851L444.853 442.931L447.243 442.681L449.033 442.011L450.263 440.771L452.193 439.751L454.403 439.531L455.643 438.801L456.913 439.341L457.473 440.511L458.703 442.101L460.473 442.491L463.623 441.961L465.323 441.971L466.073 443.611L464.423 445.761L462.923 446.471L460.153 446.831L459.653 446.681L457.303 447.691L456.213 448.841L455.123 452.341L455.173 452.751L456.803 454.481L457.283 454.741L457.223 454.941L455.533 455.361L454.473 454.541L452.993 455.651L452.563 456.301L452.833 456.521L452.073 457.161L448.853 458.711L446.603 459.411L446.323 459.851L446.363 460.811L446.863 462.361L446.543 462.781L445.143 463.041L444.443 462.401L443.103 462.111L439.983 461.611L439.123 461.761L437.803 462.101L436.073 462.921L435.573 463.431L434.363 465.581L433.053 466.151L432.553 466.031L433.133 465.561L432.653 464.341L431.483 463.491L430.653 464.721L430.913 465.471L430.613 466.081L422.993 470.321L422.043 471.141L421.733 472.301L418.463 475.301L415.213 477.251L413.293 477.781L408.793 480.991L406.463 482.951L405.793 483.031L405.353 483.651L406.253 484.081L406.913 484.141L407.843 483.781V484.541L407.223 485.851L405.903 486.701L404.843 488.181ZM449.153 465.171L447.613 464.521L446.453 464.701L445.963 464.321L446.063 463.541L447.013 462.891L448.103 461.041L448.823 461.291L449.483 461.941L449.613 464.851L449.153 465.171Z" stroke="white" stroke-width="2.32896"/>
<path d="M433.613 282.081L428.253 283.501L426.513 284.841L423.953 285.941H422.403L417.873 286.941L415.353 289.021L413.573 289.921L413.113 289.681L411.603 287.061L411.053 287.031L410.543 290.331L409.853 290.411L406.503 289.731L403.373 288.261L403.933 286.701L403.713 285.961L399.183 286.491L396.423 286.151L395.863 286.691L395.563 287.691L394.813 288.441L393.673 288.391L393.063 285.291L391.953 281.581L390.913 279.701L389.763 278.391L388.583 279.361L387.113 281.751L385.483 287.691L384.853 287.921L380.783 286.491L377.693 284.781L373.763 284.381L371.563 283.351L369.163 282.951L369.683 280.611L370.903 278.731L370.933 277.021L370.373 277.321L368.563 279.411L367.903 280.641L367.703 282.521L367.363 282.971L366.563 282.951L365.603 282.441L364.623 279.101L365.363 276.341L364.923 273.291L364.403 272.711L364.393 271.141L364.863 267.831L363.763 265.581L363.813 265.081L364.633 264.191L364.793 263.321L363.403 261.981L363.343 261.121L365.223 255.131L365.263 252.181L365.803 249.211L367.743 243.921L368.113 243.651L368.543 242.801L368.983 239.661L370.083 238.411L370.643 236.521L371.293 235.501L372.913 231.811L374.043 227.361L375.193 225.781L376.383 224.681L377.593 223.001L378.623 221.081L379.993 220.161L381.043 220.001L381.773 219.151L382.713 217.611L382.893 216.621L384.593 213.381L385.683 212.581L387.443 207.431L388.103 203.391L387.953 203.091L387.213 202.771L385.543 201.031L384.943 200.081L384.783 199.201L384.923 198.631L386.333 196.941L387.623 194.841L387.563 192.171L387.133 189.991L387.323 189.641L389.793 187.861L393.203 186.721L395.703 185.511L395.943 185.011L395.793 183.501L396.653 182.231L398.163 180.891L399.453 180.741L399.643 179.401L399.353 178.201L399.603 177.741L401.063 177.281L401.703 176.801L402.633 174.051L401.613 172.711L401.523 171.311L401.813 171.031L402.783 170.951L403.503 170.581L403.873 169.921L403.903 169.281L402.643 168.111L401.773 167.971L401.383 167.661L400.363 166.001L399.073 165.881L397.203 166.131L394.913 165.321L395.443 164.681L398.063 162.831L400.023 162.301L400.893 162.351L403.673 163.871L405.073 163.951L406.023 163.431L407.763 163.721L408.353 164.411L408.433 165.441L408.713 165.761L409.933 165.791L413.333 167.221L414.173 168.251L414.643 171.751L415.283 173.251L415.073 176.971L415.303 178.051L415.973 179.181L415.963 179.621L414.193 185.771L413.883 188.141L414.163 189.141L413.913 190.731L412.163 192.771L410.403 193.441L410.223 194.151L412.163 195.471L412.583 195.201L413.953 195.441L414.203 195.791L414.313 196.671L413.693 197.861L414.543 199.301L415.423 199.231L418.423 203.391L419.333 204.241L421.613 207.261L423.753 205.921L428.023 204.981L429.823 206.201L429.903 207.951L429.263 211.201L429.653 212.551L426.263 212.901L424.923 213.441L424.353 213.991L423.673 215.421L422.943 218.101L423.313 219.401L420.683 221.951L420.423 222.651L420.623 223.071L422.703 223.361L423.643 224.051L424.383 225.641L424.443 227.301L425.063 228.341L428.943 230.291L429.033 230.821L427.393 232.631L427.523 234.281L429.663 235.901L430.653 238.771L431.993 240.771L432.703 240.951L434.483 240.741L435.483 241.041L436.303 241.481L436.913 242.301L438.193 242.961L441.133 243.171L440.443 243.821L440.223 244.801L439.663 245.271L435.843 247.291L432.633 249.911L432.443 250.281L433.733 252.081L433.373 252.471L432.363 252.741L431.463 253.351L429.943 256.841L428.933 257.561L428.433 258.721L428.663 259.641L430.523 261.591L434.113 262.261L435.983 263.251L436.033 264.011L435.473 264.461L433.433 265.271L433.003 266.231L433.093 266.731L433.443 267.061L434.473 266.881L435.393 267.171L435.973 267.681L436.263 268.321L435.303 269.031L434.153 269.451L432.203 271.121L432.013 271.971L431.963 274.891L432.313 276.141L433.253 276.801L434.303 277.041L434.713 277.291L434.883 277.711L434.933 278.771L433.573 281.151L433.613 282.081Z" stroke="white" stroke-width="2.32896"/>
</g>
<defs>
<clipPath id="clip0_5_13">
<rect width="612.516" height="639.043" fill="white"/>
</clipPath>
</defs>
</svg>
